<svg width="280" height="301" viewBox="0 0 280 301" fill="none" xmlns="http://www.w3.org/2000/svg">
<path d="M261.997 65.8904L261.638 65.5419L261.997 65.8904ZM89.4965 7.39044L89.015 7.25595L89.4965 7.39044ZM105.497 266.891L105.786 267.298L105.497 266.891ZM276.497 266.891L279.397 261.898L273.623 261.883L276.497 266.891ZM277.997 7.39044C277.502 7.46571 277.502 7.46569 277.502 7.4658C277.502 7.46602 277.502 7.46628 277.502 7.46672C277.503 7.46761 277.503 7.46905 277.503 7.47104C277.504 7.47502 277.505 7.48118 277.506 7.48952C277.508 7.50619 277.512 7.53154 277.517 7.56536C277.526 7.63301 277.54 7.73456 277.558 7.86848C277.592 8.13633 277.641 8.53361 277.695 9.04802C277.803 10.0769 277.935 11.5739 278.025 13.4405C278.207 17.1745 278.226 22.3833 277.575 28.2794C276.273 40.0819 272.296 54.5798 261.638 65.5419L261.997 65.8904L262.355 66.239C273.232 55.0512 277.255 40.2991 278.569 28.3891C279.227 22.429 279.208 17.1658 279.024 13.392C278.933 11.5047 278.8 9.9888 278.69 8.94324C278.634 8.42043 278.585 8.01512 278.549 7.73968C278.531 7.60196 278.517 7.49669 278.507 7.42543C278.502 7.3898 278.498 7.36267 278.495 7.34423C278.494 7.33501 278.493 7.32796 278.492 7.32311C278.492 7.32069 278.491 7.31881 278.491 7.31749C278.491 7.31683 278.491 7.31625 278.491 7.31592C278.491 7.31548 278.491 7.31518 277.997 7.39044ZM261.997 65.8904L261.638 65.5419C248.619 78.9331 230.318 85.8691 210.413 87.7521C190.509 89.635 169.036 86.4606 149.732 79.6688C130.424 72.8758 113.322 62.4778 102.135 49.9481C90.9533 37.425 85.7082 22.8142 89.9781 7.52494L89.4965 7.39044L89.015 7.25595C84.6273 22.9667 90.0533 37.9185 101.389 50.6141C112.719 63.3032 129.981 73.7802 149.4 80.6121C168.822 87.4454 190.44 90.646 210.507 88.7476C230.573 86.8494 249.124 79.8478 262.355 66.239L261.997 65.8904ZM89.4965 7.39044L89.9781 7.52494C91.2577 2.94325 93.2354 1.07975 95.3374 1.00259C96.4197 0.962853 97.6339 1.38173 98.9411 2.2932C100.247 3.20346 101.614 4.58445 102.988 6.40883C108.494 13.7185 113.901 27.8715 115.875 45.9437C119.818 82.0533 110.029 133.634 60.1688 177.013L60.497 177.39L60.8252 177.768C110.964 134.146 120.843 82.2262 116.869 45.8351C114.884 27.6569 109.438 13.3097 103.787 5.8072C102.372 3.92853 100.931 2.46196 99.513 1.47292C98.0964 0.485103 96.6709 -0.0470394 95.3007 0.00326034C92.4976 0.106163 90.3189 2.58694 89.015 7.25595L89.4965 7.39044ZM60.497 177.39L60.1688 177.013C35.1325 198.795 18.3253 220.345 8.97952 239.176C-0.35536 257.985 -2.28815 274.173 2.60426 285.156C7.52799 296.21 19.2596 301.793 36.7249 299.598C54.1772 297.403 77.4642 287.445 105.786 267.298L105.497 266.891L105.207 266.483C76.9476 286.586 53.8191 296.44 36.6001 298.605C19.3941 300.769 8.19851 295.258 3.51774 284.749C-1.19437 274.171 0.590966 258.327 9.87527 239.62C19.1486 220.936 35.8617 199.486 60.8252 177.768L60.497 177.39ZM105.497 266.891L105.786 267.298C162.956 226.629 205.153 214.733 233.204 218.329C247.219 220.126 257.702 225.788 264.786 233.661C271.873 241.537 275.587 251.656 276.009 262.411L276.509 262.392L277.008 262.372C276.578 251.412 272.79 241.061 265.529 232.992C258.266 224.92 247.555 219.161 233.332 217.337C204.908 213.693 162.451 225.761 105.207 266.483L105.497 266.891Z" fill="#616956"/>
</svg>
