<svg width="103" height="89" viewBox="0 0 103 89" fill="none" xmlns="http://www.w3.org/2000/svg">
<path d="M85 42.2748L85.2937 42.6795V42.6795L85 42.2748ZM65.5 59.7748L65.4621 59.2762L65.5 59.7748ZM0 88.2748L5.66054 87.1383L1.84602 82.8044L0 88.2748ZM76.5 0.774808L76.5608 1.2711C88.6887 -0.213953 98.269 4.50337 101.094 12.1358C103.91 19.7475 100.149 30.6615 84.7063 41.8702L85 42.2748L85.2937 42.6795C100.851 31.3881 105.09 20.0521 102.031 11.7888C98.981 3.54625 88.8113 -1.23643 76.4392 0.278515L76.5 0.774808ZM85 42.2748L84.7063 41.8702C76.8196 47.5944 71.6893 52.0955 68.6261 55.6034C67.0945 57.3572 66.0646 58.8797 65.4689 60.1981C64.8736 61.5155 64.6955 62.6669 64.9289 63.6512C65.4054 65.6604 67.471 66.6088 69.8969 66.9685C72.3713 67.3354 75.4763 67.137 78.4829 66.6278C81.4937 66.1178 84.4479 65.2888 86.6294 64.3676C87.7165 63.9085 88.6377 63.4158 89.2798 62.9121C89.6006 62.6604 89.8726 62.3901 90.0572 62.1008C90.2436 61.8088 90.3581 61.4684 90.3031 61.1042C90.2479 60.7382 90.0348 60.4357 89.7406 60.1946C89.4503 59.9566 89.0583 59.7582 88.5802 59.5894C87.6238 59.2519 86.2165 58.9971 84.2937 58.8403C80.4401 58.5259 74.3954 58.5965 65.4621 59.2762L65.5 59.7748L65.5379 60.2734C74.4542 59.595 80.4374 59.529 84.2124 59.837C86.104 59.9912 87.4113 60.2373 88.2474 60.5324C88.6657 60.68 88.9394 60.8309 89.1067 60.968C89.2701 61.1019 89.3063 61.2001 89.3143 61.2534C89.3226 61.3085 89.3144 61.4059 89.2142 61.5628C89.1122 61.7226 88.9338 61.9126 88.6626 62.1253C88.1209 62.5502 87.2918 63.0023 86.2403 63.4464C84.1445 64.3314 81.2675 65.1419 78.3159 65.6418C75.3601 66.1425 72.3715 66.3245 70.0436 65.9793C67.6673 65.6269 66.2222 64.7709 65.9019 63.4204C65.737 62.7249 65.8389 61.8078 66.3802 60.6099C66.9209 59.413 67.8838 57.9737 69.3793 56.2611C72.37 52.8363 77.4304 48.3867 85.2937 42.6795L85 42.2748ZM65.5 59.7748L65.4621 59.2762C34.1779 61.6566 11.3333 78.0716 3.06053 84.9153L3.37924 85.3006L3.69795 85.6858C11.9014 78.8994 34.5518 62.631 65.5379 60.2734L65.5 59.7748Z" fill="#616956"/>
</svg>
