<svg width="118" height="218" viewBox="0 0 118 218" fill="none" xmlns="http://www.w3.org/2000/svg">
<path d="M2.2358 151.517L2.67227 151.761L2.2358 151.517ZM42.2358 217.017L47.0417 213.818L41.8679 211.256L42.2358 217.017ZM116.736 0.0172729L116.236 -7.73184e-06C113.24 86.6237 80.1964 132.344 50.2426 152.43C35.248 162.485 21.0515 166.104 11.7737 165.264C7.12391 164.843 3.80697 163.314 2.17535 161.032C0.571789 158.79 0.49145 155.664 2.67227 151.761L2.2358 151.517L1.79933 151.273C-0.49634 155.381 -0.543418 158.95 1.36197 161.614C3.2393 164.239 6.90701 165.827 11.6835 166.26C21.2582 167.127 35.6809 163.399 50.7995 153.261C81.0722 132.961 114.231 86.9108 117.235 0.0345536L116.736 0.0172729ZM2.2358 151.517L2.67227 151.761C7.29561 143.488 15.078 137.214 23.4345 133.946C31.7972 130.676 40.6647 130.442 47.4859 134.134C54.2779 137.811 59.1633 145.449 59.4506 158.198C59.7383 170.966 55.4073 188.814 43.7824 212.768L44.2322 212.986L44.682 213.204C56.3398 189.183 60.7431 171.169 60.4503 158.176C60.1571 145.165 55.147 137.144 47.9619 133.255C40.8059 129.381 31.6147 129.674 23.0703 133.015C14.5196 136.358 6.54656 142.778 1.79933 151.273L2.2358 151.517Z" fill="#616956"/>
</svg>
