<svg width="70" height="70" viewBox="0 0 70 70" fill="none" xmlns="http://www.w3.org/2000/svg">
<g clip-path="url(#clip0_24_723)">
<path d="M60.8679 25.7905C61.4468 25.5354 61.4169 24.8468 61.4445 24.3043C61.4054 21.5846 60.9024 18.8903 60.2224 16.2634C59.8986 15.1991 59.1061 14.3853 58.3435 13.6202C57.9759 13.2538 57.4522 12.9756 57.2294 12.5003C57.1329 12.2499 57.025 11.9577 56.7907 11.7977C56.5679 11.6308 56.3244 11.5126 56.1154 11.3526C55.7157 11.021 55.4056 10.548 55.1368 10.1029C55.0335 9.89186 54.8497 9.63218 55.0105 9.40959C55.1851 9.18933 55.1942 8.88791 55.2655 8.62591C55.3895 8.09958 55.5296 7.57558 55.6468 7.04462C55.8121 6.26557 56.0097 5.359 55.5641 4.62864C55.4194 4.39215 55.2471 4.18579 55.1047 3.95857C54.9393 3.73598 54.9209 3.45079 54.744 3.23053C54.5649 2.99867 54.2869 2.89201 54.0297 2.81782C53.5036 2.67175 52.9638 2.62537 52.4263 2.59755C51.349 2.5164 50.2511 2.72044 49.2794 3.20502C48.7304 3.49485 47.954 3.93306 47.9448 4.64951C47.9632 4.79558 48.0459 4.91615 48.1148 5.02976C48.2641 5.25235 48.3652 5.50275 48.3629 5.77171C48.248 6.12182 48.2549 6.48816 48.2825 6.8545C48.2825 6.91014 48.2894 6.96811 48.2963 7.02376C48.3376 7.48052 48.3905 7.93496 48.2618 8.35463C48.1883 8.50998 48.0987 8.66532 48.0252 8.81835C48.0023 8.84849 47.9816 8.87863 47.9563 8.90878C47.8851 9.09426 47.807 9.33772 47.9357 9.51625C48.2779 9.84085 48.9096 9.69246 49.1692 10.1237C49.2036 10.1794 49.1875 10.2373 49.1186 10.2512C48.5398 10.2767 47.9035 10.0681 47.4349 9.72492C47.0536 9.45596 46.5138 9.00848 46.0911 8.82994C45.9694 8.77893 45.8247 8.7372 45.6915 8.79053C45.5789 8.84385 45.487 8.98297 45.3561 8.96674C45.4687 8.77662 45.3974 8.48679 45.3285 8.28739C45.2504 8.06712 45.1448 7.85845 45.0184 7.66137C44.7749 7.2533 44.3293 7.0423 43.9802 6.74552C43.1555 5.94561 42.386 5.06222 41.6142 4.20202C41.4626 4.02581 41.295 3.86582 41.1686 3.67338L40.7873 3.08909C40.6587 2.87346 40.4864 2.70652 40.2245 2.70189C39.9857 2.69261 39.834 2.49553 39.6824 2.33555C38.9474 1.47303 38.3203 0.288227 37.073 0.176934C36.6182 0.0957829 36.1588 0.0354994 35.6948 0.00999479C35.3916 0.0007204 34.8173 -0.0711561 34.7852 0.36474C34.7691 0.471396 34.7898 0.585007 34.6841 0.642972C34.4889 0.738035 34.204 0.782088 34.0892 1.00699C33.9652 1.23421 33.9927 1.48462 33.9996 1.71416C34.0708 2.6532 34.3258 3.55513 34.4751 4.46866C34.6106 5.37059 34.6818 6.29108 34.6543 7.20461C34.4406 7.19533 34.2017 7.05158 33.9973 6.97738L33.2921 6.64814C31.2822 5.76244 28.8658 6.65278 27.9883 8.69778C27.7678 9.16382 27.5978 9.70637 27.6001 10.2257C27.5909 10.3185 27.5863 10.4159 27.5633 10.504C27.5633 10.5179 27.5542 10.5318 27.5496 10.5388C27.4715 10.5086 27.3038 10.4344 27.1981 10.4437C26.8559 10.4854 26.996 10.9468 26.8995 11.1625C26.8168 11.3132 26.6262 11.4291 26.5067 11.5682C26.1208 11.9554 26.6836 12.0713 27.0144 12.0992C26.6905 12.8759 26.2219 13.7709 26.6928 14.587C26.9363 15.0554 27.4416 15.278 27.8528 15.5492C26.3115 16.9821 25.8796 19.1547 24.862 20.9284C24.5152 21.5243 24.1017 22.0784 23.5803 22.5305C23.0612 22.9873 22.503 23.4348 22.0941 24.0052C21.2534 25.1135 20.6952 26.4235 19.7121 27.4112C19.2206 27.8842 18.6693 28.3039 18.0445 28.5867C15.5844 29.7669 12.3616 29.4771 10.4344 31.7029C9.5409 32.7787 8.82882 34.1259 8.88395 35.5703C8.96894 36.9986 10.3724 38.0049 10.1335 39.4609C10.0026 40.1148 9.59143 40.6944 9.19634 41.2532C8.38779 42.3893 7.41385 43.4142 6.81433 44.701C6.51801 45.3618 6.5272 46.1061 6.56625 46.8109C6.65813 48.2113 6.95674 49.5955 6.65354 50.9496C6.32047 52.299 6.15968 53.725 6.24467 55.1254C6.2975 56.178 6.38708 57.2539 6.78217 58.2462C6.97742 58.7586 7.41385 59.1111 7.79056 59.4751C8.13512 59.8507 8.40846 60.3005 8.70937 60.7179C9.33876 61.5386 9.83262 62.5866 10.7652 63.1083C11.3946 63.4422 12.1182 63.47 12.7705 63.6857C13.0898 63.7877 13.3861 63.9453 13.6411 64.1587C15.5981 66.046 17.3117 68.5988 20.1164 69.2735C21.2856 69.5726 23.0612 69.6097 24.2533 69.7465C27.0098 69.9691 29.7869 70.1105 32.5571 69.8879C33.6528 69.8137 34.9322 70.2264 35.2216 68.7704C35.2354 68.7309 35.2492 68.6938 35.263 68.6614C35.2813 68.6289 35.2768 68.6336 35.3043 68.6173C35.3549 68.5918 35.4375 68.5779 35.5179 68.5686C36.0463 68.5826 36.5815 68.3553 37.0225 68.0933C37.6335 67.7502 38.2146 67.363 38.759 66.9178C39.0301 66.6929 39.3195 66.4402 39.478 66.1179L39.5998 65.8837L39.6595 65.7701C39.6595 65.7701 39.671 65.7492 39.6756 65.7423C39.8157 65.7098 39.9696 65.7446 40.1189 65.8049C40.7437 66.0831 41.226 66.6581 41.9129 66.8645C42.7811 67.1288 43.4105 66.3822 43.3072 65.573C43.2658 65.0212 43.1257 64.5296 42.9396 64.0126C42.8409 63.7761 42.687 63.5628 42.6456 63.324C42.6249 63.0851 42.8569 63.004 43.0683 62.9275C43.7206 62.7258 44.389 63.0828 45.0414 63.2057C45.4686 63.3077 45.9671 63.3077 46.376 63.0944C46.562 63.0133 46.6792 62.8301 46.8331 62.7211C47.1845 62.7211 47.5383 62.9553 47.9012 63.0828C48.5467 63.3611 48.7189 63.2498 49.1278 62.7837C49.1554 62.7559 49.1829 62.7397 49.2105 62.7234L49.3162 62.6771C49.6722 62.5241 50.4716 62.7188 50.4831 62.1253C50.3751 61.3068 49.8008 60.6274 49.1967 60.1197C48.6638 59.6907 48.1217 59.2618 47.8369 58.6288C47.5773 58.0028 47.366 57.3281 47.1684 56.665C46.1876 53.3169 45.6938 49.8552 44.6693 46.5072C43.8492 43.8338 42.8087 41.244 41.9473 38.5961C41.906 38.3387 42.0553 37.9144 42.223 37.6107C43.19 35.8208 44.373 31.267 41.4741 30.75L41.3914 30.7361C41.3822 30.8195 41.3593 30.8775 41.3685 30.9702C41.3685 30.9981 41.3868 31.056 41.4374 31.0839C41.5132 31.1233 41.5752 31.1001 41.6303 31.121L41.7383 31.1766C42.517 31.536 42.8868 32.366 42.9029 33.1984C42.9235 34.207 42.6755 35.2133 42.3952 36.1778C42.2253 36.7343 42.0162 37.3 41.7199 37.7962C41.6877 37.8379 41.6556 37.8542 41.6119 37.8542C40.4359 34.0586 38.9152 30.3651 37.0087 26.8872C36.5608 25.809 36.5103 24.5361 36.8249 23.4116C37.0868 22.6673 37.5393 21.937 37.4773 21.1092C37.4612 20.6965 37.3234 20.2954 37.0776 19.9685C36.7262 19.4793 36.361 18.9738 35.8372 18.6562C35.5685 18.4776 35.2377 18.8208 35.0126 18.5634C34.8105 18.3571 34.6589 18.0951 34.5302 17.8377C34.018 16.8453 35.2836 15.5261 35.7959 14.7192C36.2438 14.0537 36.6113 13.3419 36.926 12.6046C38.0745 9.84781 37.7047 8.3129 36.6688 5.63028C36.4299 4.82804 35.9659 3.89365 36.1519 3.05663C36.1818 2.97085 36.2392 2.88274 36.3058 2.87578C36.6412 3.02185 36.9283 3.33255 37.2177 3.57368C37.4314 3.77076 37.6771 3.97944 37.9643 4.06986C38.047 4.1116 38.1549 4.15333 38.1641 4.21825C38.1802 4.28781 38.1205 4.38055 38.0768 4.46866C37.7346 5.08541 38.5339 5.2593 38.9221 5.50739C39.0898 5.60709 39.2621 5.70679 39.2988 5.89924C39.3218 5.98966 39.3241 6.08704 39.331 6.18906C39.4183 6.6922 39.8386 7.06085 40.1005 7.47588C41.0653 8.74647 42.0392 10.0032 43.1142 11.181C44.157 12.1131 45.3928 12.7855 46.6195 13.43L46.8951 13.5413C46.9847 13.5784 47.0743 13.6225 47.1202 13.6944C47.2121 13.859 47.157 14.0677 47.1271 14.2508C46.9962 14.8328 46.8308 15.4101 46.67 15.9828C45.9947 18.2736 45.2665 20.5667 44.1777 22.6928C43.8286 23.407 43.4955 24.1536 43.4105 24.9628C43.3715 25.3662 43.3875 25.765 43.399 26.1661C43.4588 27.3648 43.5208 28.5728 43.8791 29.7321C44.0215 30.1842 44.2765 30.4926 44.7841 30.4068C45.5835 30.2677 46.2473 29.7854 46.9778 29.4771C47.3109 29.3379 47.6784 29.1896 48.039 29.2429C47.8553 30.6039 47.9747 32.5307 47.9701 33.901C47.9885 35.4706 48.0275 37.0496 48.2733 38.6077C48.7557 41.7262 50.3108 44.5549 50.7426 47.6804C50.97 49.2315 51.0091 50.8221 51.4065 52.3454C51.7602 53.878 52.2196 55.3804 52.5297 56.9154C52.7112 57.8637 52.8857 58.8444 52.8559 59.8043C52.8559 59.8507 52.8421 59.8924 52.826 59.9365L52.7824 60.064C52.3413 60.8848 51.2893 61.1885 50.8965 62.0789C50.8 62.3154 50.7518 62.5843 50.7817 62.8394L50.7954 62.9924L50.8299 63.1431C51.0849 64.2282 52.1048 63.4028 52.803 63.4492C52.4907 64.0079 52.3666 64.634 52.1943 65.2206C52.0014 66.2755 51.1147 66.8158 50.6737 67.7339C50.506 68.0562 50.5864 68.5199 50.8873 68.7379C51.4386 69.1761 52.1599 69.241 52.8306 69.2086C53.3337 69.1738 53.8482 69.0718 54.2892 68.8098C54.9622 68.3113 55.401 67.5531 55.9201 66.9085C56.1154 66.6396 56.3083 66.3729 56.4852 66.0831C56.9836 65.1742 56.5702 64.1169 56.2991 63.2104C56.6873 63.0921 57.1904 63.0898 57.5326 62.8208C57.5533 62.8069 57.574 62.7629 57.59 62.7327C57.6291 62.5078 57.5533 62.32 57.5074 62.1253C57.3328 61.4088 57.048 60.7063 57.1146 59.9852L57.1398 59.8808C57.1467 59.8646 57.1582 59.8484 57.1812 59.8322C57.2271 59.7927 57.3075 59.7672 57.3948 59.693C57.4798 59.6049 57.5096 59.5145 57.5349 59.4194C57.6383 58.7192 57.3328 58.0886 57.2432 57.4301C57.0066 55.7932 56.9836 54.1423 56.8849 52.4868C56.8435 51.8237 56.7907 51.1629 56.6988 50.4998C56.499 49.1898 55.9683 47.947 55.8857 46.6277C55.7019 43.2959 56.9721 40.138 57.8726 36.9893L57.9415 36.7505C57.953 36.7111 57.9668 36.6578 57.9691 36.674C57.992 36.6508 58.0242 36.623 58.054 36.5952C58.3412 36.3355 58.7363 36.0572 58.9752 35.7535C59.0349 35.6909 59.0877 35.5819 59.0992 35.5008C59.2209 34.8539 58.9223 34.2279 59.0004 33.6042C59.1222 33.625 59.4851 33.6853 59.4851 33.6853L59.5678 33.6992L59.577 33.6158C59.8159 31.4548 60.4521 29.3797 60.8794 27.2535C60.9253 26.915 61.0425 26.5533 60.9552 26.2055C60.9115 26.0734 60.7875 25.9597 60.7967 25.8299C60.8197 25.8114 60.8403 25.7974 60.8725 25.7766L60.8679 25.7905ZM52.7916 62.9205C52.4792 63.0991 52.1025 63.215 51.751 63.3077C51.5925 63.3425 51.4065 63.3866 51.2526 63.3286C51.1653 63.0736 51.0987 62.7443 51.1561 62.473C51.5006 61.7079 52.2793 61.279 52.8857 60.7271C53.0121 61.4459 53.143 62.269 52.7893 62.9182L52.7916 62.9205ZM28.4684 69.568C27.3796 69.4659 26.2839 69.5007 25.1951 69.3593C24.1109 69.2341 23.029 69.0416 21.9264 68.979C21.3752 68.9489 20.8308 68.9744 20.3093 68.8399C19.7879 68.7101 19.2849 68.4898 18.8002 68.2487C16.873 67.2957 15.458 65.6171 14.0637 64.0126C15.8876 64.212 17.2405 62.5542 18.0904 61.1167C20.8423 56.4516 21.4441 50.9009 23.8077 46.069C24.8207 44.0796 26.1805 42.2804 27.5105 40.4974C27.5427 40.4556 27.5725 40.4139 27.6047 40.3745C25.4937 45.4592 23.8146 50.734 22.6156 56.1085C22.1607 57.8706 21.6232 59.6536 20.6034 61.1723C20.0888 61.9235 19.4801 62.6145 19.0115 63.4213C18.3224 64.5505 19.402 64.5041 20.1669 64.2607C22.8016 63.3796 25.0274 60.3492 26.254 57.9332C27.0534 56.2708 27.4669 54.4646 28.0756 52.7303C28.3512 51.9814 28.6085 51.207 29.0564 50.5415C29.1138 50.4673 29.1896 50.3352 29.2769 50.3189C29.5985 51.4342 29.3412 52.6306 29.5618 53.7667C29.7869 54.9793 30.306 55.0976 31.0181 54.082C31.721 53.1569 32.1298 52.044 32.5364 50.9658C33.0601 49.5121 33.5103 48.0374 33.9353 46.5535C34.335 45.0951 34.6244 43.5857 34.5968 42.0601C34.9667 42.0856 35.3411 42.2363 35.7224 42.2549C36.1864 42.292 36.671 42.0879 37.1121 42.176C37.2177 42.278 37.1833 42.4914 37.2131 42.6792C37.3119 43.7759 37.3142 44.8772 37.2729 45.9785C37.1902 48.1812 36.9375 50.3769 36.7882 52.5865C36.485 56.9896 36.2002 61.4042 35.4651 65.7608C35.364 66.3034 35.2561 66.8436 35.1366 67.3792C35.0103 67.9125 34.8932 68.4597 34.6956 68.9512C34.6014 69.19 34.4085 69.3338 34.1558 69.3801C33.7722 69.4543 33.3473 69.3755 32.9453 69.3848C32.5272 69.4056 32.1206 69.4706 31.7095 69.5285C30.6207 69.7395 29.5572 69.6862 28.4615 69.5726L28.4684 69.568ZM36.4942 1.43825C36.5355 1.10901 36.3954 0.740353 36.1014 0.568777C35.936 0.462122 35.7568 0.404157 35.5777 0.362422C35.6167 0.362422 35.6558 0.36474 35.6902 0.367059C35.9705 0.404157 36.3127 0.441254 36.5309 0.631379C37.0547 1.30841 37.1718 2.79927 38.233 2.83868C38.0171 2.59059 37.8012 2.31468 37.5692 2.04109C37.5669 1.74894 37.4199 1.48694 37.2821 1.2574C37.1856 1.09278 37.0868 0.92816 37.0478 0.761221C37.3716 1.06496 37.7093 1.33623 38.1388 1.50085C38.1756 1.51245 38.2215 1.52404 38.2813 1.51708C38.3387 1.51708 38.4306 1.45448 38.4443 1.37333C38.4443 1.36869 38.4443 1.36406 38.4443 1.35942C38.8831 1.82546 39.2437 2.34714 39.7077 2.80854C39.5561 3.03345 39.3815 3.2514 39.1909 3.44616C38.8831 3.75453 38.4926 4.10232 38.0676 3.81482C37.4314 3.4392 36.7813 2.96157 36.3954 2.31932C36.2897 2.04341 36.4873 1.73039 36.4965 1.43593L36.4942 1.43825ZM35.3893 19.0781V18.9877V18.9599C35.4835 18.8672 35.6259 18.9112 35.7362 18.9761C36.0394 19.1616 36.2645 19.4514 36.4804 19.732C36.74 20.1146 37.0638 20.4971 37.1052 20.9771C37.1465 21.4431 37.0363 21.9138 36.8755 22.3566C36.7514 22.6557 36.6343 23.029 36.3862 23.2308C36.3173 23.2794 36.2346 23.2655 36.129 23.2308C34.7967 22.6024 33.237 23.1264 31.8542 23.1427L31.737 23.1473V23.2655C31.737 23.3513 31.737 23.5994 31.737 23.6829C32.4859 23.6458 33.2163 23.4904 33.9422 23.4209C34.6221 23.3536 35.3273 23.3513 35.9429 23.6249C36.0945 23.6898 36.23 23.7779 36.2874 23.8985C36.338 24.0237 36.3173 24.193 36.292 24.3669C36.2323 24.7123 36.2185 25.088 36.2645 25.4381C36.3472 26.1267 36.5585 26.7782 36.7216 27.4344C36.2783 27.5039 35.8947 27.7845 35.4789 27.5318C35.3503 27.4622 35.201 27.3671 35.0402 27.3579C34.1053 27.2558 33.2163 27.6546 32.3044 27.7938C31.5694 27.8772 30.7562 27.9607 30.0579 27.6686C29.9316 27.606 29.8167 27.5155 29.7639 27.395C29.6904 26.238 28.9163 25.2387 28.8451 24.1072C28.9645 23.4997 29.4331 23.0128 29.819 22.5445C30.3404 21.9857 30.9767 21.5266 31.3994 20.8681C31.7095 20.46 32.0219 20.052 32.348 19.6578C32.6788 19.2868 33.0004 18.844 33.4598 18.6376C33.9445 18.5449 34.4797 18.786 34.861 19.0851C34.9712 19.2219 35.031 19.4004 35.1297 19.5488C35.1596 19.6022 35.2308 19.6717 35.2928 19.6161C35.4215 19.4746 35.3801 19.259 35.3893 19.0828V19.0781ZM29.0151 14.8908C27.2877 15.373 27.2372 13.328 27.4921 12.1084C27.5748 12.4632 27.6254 12.8249 27.692 13.182C27.8344 13.6016 28.048 14.0375 28.3972 14.3366C28.6131 14.5036 28.8772 14.587 29.0955 14.7354C29.1896 14.8444 29.1322 14.8745 29.0174 14.8884L29.0151 14.8908ZM32.7018 6.77103C32.3572 7.00057 31.9139 7.0423 31.5027 7.19997C30.3152 7.75643 29.2861 8.61895 28.5005 9.68319C28.3328 9.97069 28.1721 10.2605 28.0113 10.5503C27.7402 8.139 30.4346 6.09168 32.7018 6.77103ZM29.5066 12.2916C29.6467 12.2661 29.8029 12.2221 29.9339 12.2661C30.0097 12.3704 30.0625 12.542 30.0717 12.6579C30.0281 12.6997 29.9408 12.7553 29.8167 12.7576C29.5686 12.7739 29.2884 12.702 29.0311 12.6023C28.9048 12.549 28.7785 12.4562 28.7486 12.3287C28.7463 12.2939 28.7486 12.287 28.7647 12.287C28.8244 12.2823 28.8933 12.3125 28.9668 12.3148C29.146 12.3357 29.3275 12.331 29.5043 12.2916H29.5066ZM29.2815 13.1008C29.5503 13.182 29.8328 13.1704 30.1016 13.1472L30.1911 13.1402C30.1911 13.1402 30.1934 13.1402 30.1957 13.1402C30.2141 13.1634 30.2187 13.219 30.2233 13.2747C30.2233 13.5205 30.1682 13.8219 30.0326 14.0306C29.8833 14.1094 29.7134 14.1048 29.5664 14.019C29.3275 13.8914 29.1552 13.6712 28.976 13.4718C28.7693 13.2051 28.5488 12.8898 28.4638 12.5559C28.7073 12.7785 28.9645 12.9941 29.2792 13.1008H29.2815ZM33.3909 9.55103C32.9154 10.184 32.1183 10.5225 31.4086 10.8054C30.5449 11.0975 29.6215 10.6779 28.7348 10.7892C29.0472 10.4159 29.4492 10.4669 29.8833 10.5712C31.2041 10.8031 32.4996 10.3138 33.4437 9.38409C33.4437 9.4351 33.4254 9.49306 33.3909 9.55103ZM29.9867 11.2668C31.0801 11.6354 32.2033 11.0883 33.0395 10.3602C32.5548 11.1671 31.4545 11.7815 30.5724 11.7514C29.9385 11.7305 29.1827 11.5752 28.8313 10.9886C29.1506 11.0002 29.6651 11.188 29.9867 11.2645V11.2668ZM30.3749 10.1817C29.8627 10.1075 29.2402 10.0333 28.7991 10.3718C28.8037 10.3625 28.8037 10.3533 28.8106 10.344C29.5686 9.61595 30.6092 9.31685 31.4614 8.71633C32.4009 8.01612 33.1773 7.36691 34.4131 7.63818C33.9376 8.874 31.6934 10.3927 30.3749 10.184V10.1817ZM28.5442 11.232C28.8313 11.5497 29.2815 12.1015 29.7616 11.858C29.4607 12.0435 29.0449 11.9276 28.7073 11.8905C28.4845 11.8348 28.1606 11.8557 28.0067 11.6841C27.8574 11.385 28.2708 10.8865 28.5442 11.2297V11.232ZM35.1757 10.402C35.2262 10.4205 35.263 10.4483 35.2607 10.4808C35.2653 10.504 35.2676 10.5295 35.2722 10.555C35.2561 10.497 35.2239 10.4437 35.1757 10.402ZM33.5701 11.3294C33.6206 11.7305 33.7286 12.1038 33.763 12.4794C33.7515 12.5142 33.7332 12.5907 33.7148 12.6835C33.6436 11.8302 33.4116 10.9816 33.6114 10.1376C33.8227 9.47915 34.1076 8.82299 34.4521 8.22247C34.5118 8.12973 34.6014 8.03698 34.6979 8.02539C34.482 9.17541 33.361 10.0773 33.5701 11.334V11.3294ZM35.4697 8.23638C35.5363 8.28971 35.5914 8.38941 35.6236 8.44506C35.6236 8.59576 35.596 8.74415 35.5823 8.87632C35.5662 8.66764 35.5363 8.45897 35.472 8.23638H35.4697ZM35.6558 9.91968C35.6236 9.69942 35.6121 9.50002 35.6029 9.30757C35.6259 9.50465 35.6581 9.70405 35.6558 9.91968ZM35.3686 10.1121C34.9781 9.84549 34.4866 10.0681 34.3097 10.4877C34.4039 10.4785 34.5004 10.4599 34.5945 10.4414C34.5509 10.4854 34.5164 10.5411 34.5004 10.606C34.4843 10.6361 34.459 10.7011 34.4889 10.7521C34.6106 10.9005 34.7875 10.9607 34.9575 10.8935C35.0379 10.8564 35.1045 10.8263 35.1895 10.8031C35.2538 10.7497 35.2813 10.6848 35.279 10.6176C35.2859 10.6802 35.2928 10.7428 35.2997 10.8054C35.3365 11.1694 35.3571 11.6146 35.4192 11.9995L34.7209 11.9183L34.4246 11.8835C34.5118 11.9948 34.7048 12.236 34.8541 12.4191C34.5647 12.4493 34.1949 12.5235 34.3602 12.8365C34.4981 13.015 34.6726 13.0707 34.7829 13.2144C34.7301 13.2817 34.6543 13.3466 34.5945 13.4184C34.2661 13.8126 34.6129 14.3552 33.9123 14.2833C33.8618 13.7662 34.0639 13.2561 34.0823 12.7345C34.103 11.6749 33.7653 10.5503 34.4544 9.62522C34.5968 9.39568 34.7415 9.16614 34.8472 8.89486C34.9207 8.68387 34.9483 8.47288 35.0264 8.30362C35.2308 8.86009 35.3526 9.53016 35.3709 10.1098L35.3686 10.1121ZM30.4576 8.8369C30.0579 9.18469 29.5365 9.23106 29.1529 9.62059C29.0449 9.73188 28.9393 9.84317 28.8267 9.94519C29.3619 9.136 30.1475 8.49607 30.9583 7.98829C31.6222 7.56167 32.3113 7.18142 33.1153 7.18374C33.3587 7.18142 33.6551 7.17215 33.8434 7.33908C32.5203 7.09331 31.4476 8.12277 30.4576 8.83922V8.8369ZM28.5028 13.6318C28.705 13.8219 28.8474 14.0746 29.1184 14.2068C29.2586 14.2647 29.3941 14.2763 29.5158 14.3042C29.6422 14.325 29.734 14.3992 29.7593 14.5267C28.62 14.4618 28.1054 13.2909 27.8918 12.2684C28.1261 12.7066 28.3007 13.175 28.5028 13.6294V13.6318ZM30.4231 12.2823C30.7195 12.236 31.002 12.0482 31.2891 12.1108C31.4591 12.185 31.636 12.4215 31.8657 12.3867C32.0471 12.3357 32.0655 12.1084 32.1069 11.9624C32.0127 12.0227 31.8863 12.0853 31.7761 12.0505C31.6819 12.025 31.7049 11.9253 31.7439 11.8604C31.8726 11.7351 32.0425 11.6192 32.1987 11.5056C32.5111 11.2946 32.835 11.0419 33.1773 10.8958C33.1474 11.6169 33.5494 12.2986 33.4299 13.015C33.3932 13.5019 33.3541 14.0004 33.2875 14.4827C31.8772 15.9063 33.7676 17.2511 34.5027 18.531C34.2661 18.3965 34.0088 18.2991 33.7263 18.2921C32.5571 18.3292 31.9736 19.5882 31.3305 20.3696C30.5012 21.4872 29.1207 22.1619 28.558 23.5044C28.1812 23.2215 27.8895 22.7949 27.6552 22.3891C27.6346 22.3497 27.6139 22.2848 27.6185 22.2917C27.6874 22.0529 27.8436 21.8489 27.9906 21.6332C28.4913 20.8936 29.1529 20.256 29.4997 19.4143C29.5112 19.3749 29.5112 19.3239 29.4768 19.2729C29.3665 19.1384 29.1759 19.1987 29.0771 19.317C28.4293 20.1053 27.8551 21.1185 27.29 21.9741C25.7969 24.2162 23.9088 26.1591 21.8874 27.919C21.3131 28.4291 20.732 28.9345 20.1417 29.4214C19.6202 29.8202 19.1195 30.2978 18.5131 30.5575C18.2374 30.6271 17.9503 30.5645 17.6632 30.5946C17.1234 30.6503 16.6272 30.9633 16.0943 30.9818C16.4297 30.5645 17.0522 30.5251 17.4817 30.2167L17.8469 29.9895L18.0284 29.8712C18.0583 29.848 18.0881 29.8364 18.1203 29.797C18.141 29.7646 18.1777 29.7367 18.1639 29.6649C18.1272 29.5999 18.0743 29.6092 18.0376 29.6023C17.7206 29.586 17.4036 29.7878 17.0981 29.702C16.9258 29.6556 16.765 29.5768 16.5928 29.5281C16.5606 29.5188 16.5399 29.5002 16.5445 29.4979C16.5445 29.4863 16.5652 29.4562 16.5882 29.4353C16.5928 29.4284 16.6433 29.4145 16.6709 29.4075L16.8776 29.3542C17.5828 29.222 18.2696 28.9554 18.8737 28.5659C20.4035 27.6709 21.1524 25.9876 22.1539 24.601C22.7832 23.6087 23.8445 23.0731 24.5519 22.1433C25.9991 20.3256 26.2724 17.8261 27.8367 16.108C28.1996 15.6791 28.7463 15.489 29.2586 15.2177C30.3221 14.7493 30.9078 13.3628 30.4208 12.2847L30.4231 12.2823ZM37.0776 41.6961C36.694 41.8051 36.2989 41.863 35.9061 41.8514C35.5065 41.8398 35.1137 41.754 34.7393 41.6103C34.629 41.0932 34.6313 40.553 34.6428 40.0151C34.6474 38.9578 34.8472 37.402 33.6528 36.8966C32.9843 36.718 32.7707 37.4762 32.7776 38.0304C32.5686 37.9376 32.3435 37.8843 32.1092 37.8982C30.8963 37.9979 31.3213 39.4285 31.8289 40.0707C32.1597 40.5368 32.541 40.9518 33.0211 41.2834C33.4047 41.5546 34.0777 41.7494 34.2293 42.2085C34.0731 42.5864 34.1857 43.3655 34.0915 43.8802C33.7033 46.2962 32.9522 48.6496 32.1344 50.9473C31.7324 51.9907 31.3488 53.0688 30.6528 53.9499C30.4829 54.1516 30.113 54.5689 30.0097 54.1145C29.8236 53.4073 29.8351 52.6259 29.7983 51.8886C29.7616 51.3183 29.8213 50.7201 29.5847 50.1729C28.8336 48.8768 27.3704 53.8038 27.1981 54.2722C26.7341 55.7097 26.2839 57.1565 25.5833 58.492C24.6829 60.2634 21.7748 63.6207 19.8362 64.0358C19.6616 64.0705 19.4709 64.1007 19.2987 64.059C19.216 64.0381 19.1723 63.9824 19.1838 63.9036C20.0888 62.5982 21.049 61.3161 21.7565 59.8762C23.1347 56.9733 23.4884 53.7157 24.4256 50.6644C25.7625 46.0574 27.584 41.6172 29.4377 37.198C30.6758 34.2534 31.8289 31.2508 32.5502 28.1276C33.2783 27.9027 34.3694 27.5642 35.2584 27.6964C35.9659 31.1673 36.4413 34.7032 36.8272 38.2275C36.949 39.3821 37.0455 40.5391 37.0799 41.6961H37.0776ZM31.8496 38.4292C32.1229 38.2275 32.5732 38.3666 32.7937 38.6263C32.9659 38.8117 33.1589 39.0668 33.4506 39.1503L33.5793 39.1874C33.4667 38.8883 33.3564 38.5822 33.2875 38.2692C33.237 37.9701 33.067 37.2513 33.5471 37.2977C33.972 37.3765 34.0478 37.8704 34.1168 38.2414C34.2982 39.3126 34.1926 40.4927 34.3189 41.5709C33.3702 41.1303 32.4721 40.4232 32.0196 39.447C31.8886 39.1387 31.6566 38.7236 31.8496 38.4269V38.4292ZM14.1487 54.7011C13.0783 55.6309 11.5439 56.2801 10.253 55.399C9.82343 54.9608 9.48117 54.4182 9.1481 53.9012C8.97353 53.5928 8.73464 53.2612 8.65195 52.9135C8.97812 53.1291 9.38929 53.1731 9.75682 53.0433C10.5378 52.7535 11.1167 52.1321 11.7552 51.629C13.4068 50.4418 15.3753 49.7648 16.9764 48.478C18.435 46.1223 20.3254 43.9845 21.4165 41.4039C21.6301 40.8892 21.8415 40.3814 22.1653 39.9432C22.4823 39.4957 22.8521 39.0784 23.16 38.6031C23.4563 38.1231 23.7204 37.6316 23.9639 37.1284C25.202 34.6475 26.0312 31.9232 27.8229 29.7878C28.388 29.1362 29.1069 28.6424 29.8029 28.1416C30.5541 27.912 31.3764 28.3549 32.139 28.1694C32.1436 28.5728 31.9874 28.9878 31.8932 29.3843C31.5533 30.5969 31.1743 31.8003 30.7493 32.9851C29.8948 35.3478 28.891 37.6733 27.5036 39.767C25.078 43.1823 22.0872 46.1408 19.3308 49.2825C17.6563 51.1513 16.1357 53.1685 14.1487 54.7081V54.7011ZM17.4886 34.0517C17.7321 33.5346 18.0881 32.0971 18.7451 32.0948C18.7405 33.4488 18.6762 34.8214 18.4947 36.1732C18.1455 38.8859 17.4059 41.5268 16.9718 44.228C16.7513 45.5844 16.6387 46.9523 16.5468 48.318C15.8301 48.9185 14.661 49.5213 13.7904 50.0523C13.5193 50.2146 13.2483 50.3676 12.9818 50.5462C14.1028 47.5019 14.6931 44.2975 15.357 41.135C15.6992 39.5236 16.2 37.9585 16.7007 36.3911C16.9511 35.6074 17.2015 34.8237 17.4886 34.054V34.0517ZM29.4584 28.1323C29.0036 28.4499 28.4477 28.6771 28.0595 29.1084C26.8053 30.2932 25.9531 31.8444 25.1974 33.3839C24.4417 34.9304 23.8169 36.5349 22.9601 38.0234C22.4915 38.8071 21.9724 39.5908 21.4188 40.3188C21.2994 40.4394 21.1317 40.444 20.9847 40.3351C20.5528 40.0058 20.392 39.4123 20.2221 38.9045C20.0957 38.4176 19.8775 37.9029 19.9188 37.3997C20.0659 37.1447 20.3438 36.9777 20.5873 36.7783C21.0375 36.4189 21.428 35.9784 21.768 35.5077C21.9678 35.211 22.1676 34.8516 22.1309 34.4713C22.0964 34.2464 21.9609 34.0609 21.8644 33.8639C21.3246 32.8506 20.6723 31.9046 20.0636 30.9331C19.9924 30.8103 19.928 30.6827 19.8706 30.5529C19.8178 30.4115 19.7098 30.2723 19.7672 30.2005C21.4326 28.7397 23.1691 27.2929 24.8368 25.8299C25.8498 24.9813 26.2839 23.5762 27.3359 22.7972C27.6736 23.1171 27.9676 23.4904 28.2157 23.8916C28.7509 24.7332 29.0105 25.7117 29.2563 26.6716C29.3481 27.1446 29.5457 27.6523 29.4538 28.1346L29.4584 28.1323ZM20.5023 40.3977C20.5299 40.4324 20.5551 40.4672 20.5827 40.502C20.7159 40.6388 20.9043 40.6944 21.049 40.7988C21.4188 41.0701 20.7825 41.9627 20.6378 42.285C19.9005 43.5695 19.0529 44.7891 18.2213 46.0133C17.9067 46.4678 17.5874 46.9222 17.2474 47.3581C17.1923 47.4253 17.1372 47.4995 17.0843 47.5621C17.1762 45.2459 17.6241 42.9481 18.1846 40.6991C18.4625 39.5259 18.7589 38.348 18.8461 37.1354C18.899 36.3842 18.9036 35.6213 18.9265 34.8701C18.9173 34.6545 18.9633 34.4389 18.9954 34.2279C19.1677 35.1646 19.2573 36.1477 19.4296 37.0705C19.6363 38.0628 19.7581 39.1595 20.2726 40.0476C20.3438 40.182 20.4219 40.3003 20.5069 40.3977H20.5023ZM29.4883 28.0766C29.4928 28.0558 29.4951 28.0326 29.4974 28.0117C29.4974 28.0372 29.4928 28.0581 29.4883 28.0766ZM38.5707 40.9819C38.5224 41.0353 38.4466 41.084 38.38 41.128C38.1572 41.2648 37.8931 41.4155 37.6496 41.5036C37.0914 38.188 36.7974 34.8353 36.2346 31.5198C36.0486 30.4068 35.8533 29.2939 35.6902 28.1786C35.6604 28.065 35.8257 27.9166 35.9314 27.9746C36.5424 29.0203 36.8181 30.2329 37.1029 31.4038C37.3693 32.5886 37.5968 33.7827 37.8012 34.9814C38.1182 36.929 38.3892 38.8906 38.5615 40.8567L38.5684 40.9657V40.9843L38.5707 40.9819ZM16.239 29.8017C16.5353 29.8318 16.8776 29.8179 17.1303 29.9848C17.1647 30.0196 17.2107 30.0799 17.1624 30.1077C16.811 30.2584 16.4159 30.3257 16.0782 30.5204C15.7957 30.641 15.5499 31.1789 15.9082 31.3528C16.471 31.4502 16.9511 30.9633 17.507 30.9656C18.0445 30.9517 18.6555 31.0073 19.1149 30.641C19.2045 30.5784 19.301 30.5228 19.3905 30.5599C19.889 30.9424 20.1876 31.631 20.5069 32.1736C20.9249 32.9573 21.2971 33.7711 21.7932 34.52C21.8231 35.044 20.9939 35.721 20.7963 36.0967L19.7695 36.8224C19.7305 36.5581 19.0896 32.0832 19.0896 32.0832C19.0483 31.9464 19 31.798 18.837 31.689C18.1318 31.3667 17.4151 33.2471 17.1969 33.7479C16.8087 34.68 16.4687 35.6306 16.1632 36.5928C15.2421 39.4772 14.6633 42.4496 14.0752 45.4128C13.7651 46.8828 13.4275 48.3551 12.8946 49.7602C12.805 49.992 12.7039 50.2192 12.5913 50.4395C12.4811 50.6273 12.256 50.7919 12.0883 50.9426C11.5163 51.4226 10.9214 51.8817 10.315 52.3176C10.0233 52.5286 9.70398 52.7233 9.34565 52.7627C7.98811 52.7349 9.57076 48.5081 9.81654 47.6781C11.1396 43.8756 13.0921 40.3397 14.9848 36.8015C15.5752 35.6932 16.1678 34.5896 16.8822 33.5601C17.3094 32.9666 18.0789 32.4217 17.9365 31.5847L17.9296 31.5406C17.6953 31.4363 17.4312 31.4085 17.1808 31.4571C15.0538 31.9974 12.3249 37.0612 10.6825 38.9833C10.2093 37.0983 8.72545 36.0248 9.56616 33.8708C10.1749 32.0832 11.7575 30.794 13.5033 30.2074C14.3807 29.9083 15.3087 29.7344 16.239 29.797V29.8017ZM24.7357 43.9289C24.7357 43.9289 24.7311 43.9382 24.7288 43.9405C24.7311 43.9312 24.7357 43.9219 24.738 43.9127C24.738 43.9173 24.738 43.9219 24.7334 43.9289H24.7357ZM39.6756 40.4139C39.4941 40.5692 39.308 40.7246 39.1036 40.8475C39.0393 40.8822 38.952 40.9309 38.8992 40.9031C38.4788 36.9592 38.1779 32.9225 36.8502 29.1525C36.7675 28.9345 36.6688 28.5937 36.5378 28.4012C36.4597 28.2505 36.3196 28.1184 36.3173 27.9561C36.4161 27.8471 36.6366 27.8378 36.7882 27.8425C36.9283 27.8378 36.9811 27.9074 37.0638 28.0048C37.3831 28.4105 37.6289 28.8858 37.8816 29.3495C39.393 32.1574 40.2131 35.255 41.3685 38.2159C41.1365 38.9764 40.3371 39.8435 39.6779 40.4116L39.6756 40.4139ZM6.74542 53.3818C6.76379 52.0324 7.3013 50.778 7.27603 49.4193C7.25536 48.0977 6.79136 46.7715 7.02795 45.4684C7.3794 44.1955 8.35104 43.1962 9.09068 42.125C9.46739 41.5732 9.82573 41.0144 10.1887 40.4579C11.367 38.7375 15.6739 31.6055 17.5989 31.7609C17.6586 31.7794 17.6724 31.8467 17.6632 31.9185C17.1486 32.7277 16.5284 33.4627 15.9978 34.2696C14.4588 36.725 13.161 39.3195 11.9045 41.9303C10.6618 44.5433 9.43064 47.1912 8.68411 50.0059C8.44981 50.9542 8.20403 51.9188 8.34185 52.9111C8.44522 53.4027 8.64276 53.8571 8.88395 54.2837C9.25606 54.9121 9.70628 55.5497 10.3678 55.9021C11.0477 56.185 11.8035 56.3774 12.5293 56.1363C13.4504 55.7885 14.197 55.1555 14.9596 54.5597C15.7061 53.9476 16.4113 53.2868 17.0774 52.5912C19.5927 49.992 21.7036 47.0404 24.15 44.3833L24.3935 44.1167C24.4738 44.0448 24.5152 43.9335 24.5451 43.8385C24.5611 43.8199 24.5749 43.8037 24.591 43.7851C24.6507 43.7689 24.7311 43.7921 24.7357 43.857C24.6163 44.2396 24.274 44.541 24.0788 44.8981C23.6791 45.6284 23.3299 46.3843 23.0061 47.1541C21.5038 50.8569 20.6815 54.8054 19.0138 58.4433C18.1708 60.3005 17.1395 62.5194 15.2559 63.4654C14.8378 63.6926 14.3623 63.7645 13.9121 63.5697C13.6135 63.4538 13.2988 63.3101 12.9658 63.2335C12.635 63.1547 12.3042 63.1199 11.9849 63.0573C10.3081 62.7327 9.55008 60.9659 8.58533 59.7232C8.20632 59.1829 7.62977 58.7795 7.28062 58.237C6.8327 57.3744 6.80744 56.3311 6.74082 55.3689C6.71326 54.7057 6.71326 54.0426 6.74542 53.3795V53.3818ZM41.8394 66.3474C41.1066 66.039 40.5071 65.26 39.648 65.3017C39.246 65.3064 39.2667 65.8396 39.0324 66.0553C38.4696 66.6303 37.7966 67.101 37.1419 67.567C36.7423 67.8475 36.3334 68.1026 35.8487 68.1675C35.6833 68.1884 35.4858 68.2324 35.3571 68.1351C35.3411 68.1211 35.3526 68.1281 35.3457 68.1049C35.3411 67.989 35.364 67.8661 35.3801 67.7502C35.5593 66.6164 35.8786 65.5174 36.0715 64.3859C36.1979 63.4121 36.2346 62.4267 36.3219 61.4505C36.7951 57.5738 37.3004 53.6392 37.475 49.7323C37.5301 48.4455 37.6082 47.0961 37.583 45.807C37.5669 45.1833 37.5301 43.4582 37.5301 42.8647C37.537 42.5911 37.5186 42.1528 37.5761 41.8932C37.8793 41.7169 38.2284 41.5686 38.5592 41.4318C38.5982 41.4225 38.6373 41.3923 38.6534 41.4202C38.9382 42.2363 38.8647 43.2148 38.9083 44.0796C38.9244 45.3873 38.8785 46.695 38.8096 48.0003C38.658 51.258 38.3685 54.5736 38.8762 57.8242C39.2667 59.6073 40.1947 61.2395 41.3547 62.6214C41.6625 62.9182 42.1127 63.2822 42.1035 63.739C42.1104 63.9268 42.0714 64.1633 42.1242 64.372C42.3194 64.9354 42.8776 65.3782 42.8707 65.995C42.811 66.4773 42.2138 66.563 41.8325 66.3521L41.8394 66.3474ZM41.5224 62.0928C40.7643 61.0749 40.0913 59.9666 39.6916 58.7517C38.7522 55.6564 39.0898 52.3825 39.2713 49.1805C39.5148 46.5999 39.2184 44.01 39.037 41.4387C39.1909 41.1118 39.7169 40.8567 40.004 40.5762C40.3049 40.2585 40.6771 39.9293 40.9343 39.5769C41.1158 39.3381 41.2904 39.083 41.4856 38.8651C41.5109 38.8117 41.5706 38.8535 41.6142 38.9022C41.8531 39.1897 42.0691 40.0244 42.2023 40.3559C43.1877 43.1962 44.2007 46.0991 44.8967 49.0252C45.5973 51.9652 46.1141 54.9747 47.1087 57.8451C47.3269 58.4109 47.4877 59.0137 47.8553 59.5052C48.1677 59.8507 48.5949 60.0269 48.9303 60.3353C49.2564 60.6437 49.5459 60.9984 49.8008 61.3717C49.9364 61.6082 50.1821 61.905 50.0765 62.1855C49.7939 62.3107 49.4471 62.269 49.1439 62.3525C48.9785 62.3919 48.8591 62.5171 48.7488 62.6307C48.6408 62.742 48.5214 62.8788 48.3652 62.8556C48.0574 62.8 47.7726 62.6307 47.474 62.5171C47.2488 62.4313 47.0122 62.3316 46.7642 62.3617C46.5184 62.4104 46.3484 62.6261 46.1532 62.7559C45.7558 63.062 45.2527 62.8973 44.814 62.7582C44.203 62.5681 43.5437 62.2667 42.8983 62.5495C42.6915 62.6539 42.5331 62.8533 42.3194 62.8765C41.9864 62.7374 41.7613 62.3803 41.5247 62.0951L41.5224 62.0928ZM37.1971 10.1655C36.9582 11.9345 36.1289 13.5784 35.1114 15.0252C34.7415 15.5956 34.2982 16.1289 34.0869 16.792L34.0708 16.8871C34.0708 16.9427 34.08 16.9566 34.0846 16.9891C34.1076 17.1027 34.1466 17.2696 34.1374 17.3833C34.1374 17.3902 34.1374 17.3948 34.1328 17.3995C34.1282 17.3995 34.1259 17.3972 34.1213 17.3948L34.0938 17.374H34.0892C34.0892 17.374 34.0892 17.3693 34.0892 17.367C34.0341 17.207 33.9514 17.0355 33.8342 16.9149C33.4093 16.4419 32.9062 15.853 33.1543 15.1759C33.1956 15.0878 33.276 15.0021 33.3633 14.958C33.407 14.9395 33.4506 14.9371 33.4529 14.9719C33.5609 15.2246 33.5632 15.6466 33.8802 15.737C33.9376 15.4055 33.6711 15.0415 33.8273 14.7424C34.0547 14.6056 34.4843 14.7331 34.7393 14.4433C34.9138 14.2184 34.8082 13.9471 34.8449 13.7036C34.8564 13.6178 34.8977 13.5923 34.969 13.5552C35.0356 13.5205 35.1343 13.4718 35.1711 13.3674C35.2032 13.2747 35.201 13.1889 35.2055 13.1054C35.2193 12.9501 35.2101 12.7716 35.2699 12.6324H35.3227L35.2928 12.5907C35.3158 12.5513 35.3457 12.5142 35.387 12.4864C36.2277 12.3218 35.5524 11.4824 35.789 10.9584C35.8992 10.7011 35.9544 10.2652 35.9796 9.97301C36.0554 9.31221 36.0968 8.57953 35.7339 7.98365C35.6397 7.83295 35.5432 7.67064 35.3847 7.5779C35.2262 7.48516 35.1206 7.43647 35.0884 7.29503C34.9046 6.67828 35.0287 5.99662 34.9644 5.34973C34.8173 4.03044 34.5279 2.74594 34.2638 1.4568C34.2959 1.4313 34.3763 1.39188 34.4337 1.36406L34.629 1.27827C35.0126 1.14611 35.4307 0.921204 35.8372 0.925841C35.9268 1.05336 35.7385 1.17393 35.6627 1.26668L35.3365 1.56114C35.1826 1.71185 34.9896 1.8811 34.9781 2.11528C34.9827 2.27295 35.1045 2.42366 35.2653 2.44684C35.3526 2.45148 35.4215 2.39351 35.472 2.34019C35.7385 2.04804 35.8097 1.57273 36.0876 1.30609C36.0968 1.8811 36.0876 2.47467 35.7913 2.97085C35.6971 3.13315 35.4284 3.28386 35.4973 3.50412C35.5731 3.63628 35.7247 3.73598 35.8051 3.86119C36.1404 4.61705 36.3219 5.44479 36.5539 6.24239C36.841 7.51762 37.3579 8.85313 37.1971 10.1655ZM40.282 3.05431C40.5415 3.15401 40.6862 3.47862 40.8149 3.71512C40.87 3.84959 40.9803 4.06754 40.9435 4.17188C40.6518 4.4733 40.1005 4.97411 39.7904 5.25698C39.7376 5.30336 39.5975 5.43088 39.5446 5.47029C39.5377 5.47725 39.5285 5.48421 39.5171 5.48884C39.2024 5.18279 37.9735 4.95557 38.5018 4.51039C38.8234 4.22984 39.1633 3.9748 39.4711 3.67338C39.7215 3.45079 39.9673 3.17488 40.2797 3.052L40.282 3.05431ZM47.3867 13.3443C47.2075 13.3651 46.9916 13.2492 46.8193 13.1796C42.8477 11.3595 42.324 9.4235 39.7054 6.37687C39.3723 5.94793 40.1143 5.48652 40.3807 5.18279C40.6748 4.91615 40.9665 4.64719 41.272 4.3991C41.3822 4.28317 41.4994 4.32027 41.6051 4.41069C42.138 5.04135 43.1969 6.32818 43.7137 6.97275C44.0537 7.32285 44.5797 7.57326 44.8048 7.99061C44.9403 8.49375 44.4028 8.91805 44.3638 9.45133C44.52 9.61827 44.6532 9.58117 44.7749 9.48147C44.7129 9.76666 44.6325 10.1284 44.6142 10.2095L44.8117 10.1469C45.2183 10.0379 45.3905 9.57653 45.68 9.36786C45.9809 9.1731 46.3323 9.33308 46.6103 9.54407C47.0789 9.87099 47.5268 10.2791 48.0689 10.5063C48.2067 10.5596 48.356 10.606 48.5122 10.6153C48.0804 11.4963 47.536 12.3588 47.3867 13.3489V13.3443ZM57.7348 36.3471C57.6107 36.2682 57.6773 36.1778 57.675 36.0433C57.7325 35.5634 57.9714 35.1275 58.0609 34.6522C58.1597 34.1977 57.9828 33.6389 58.2723 33.2494C58.4124 33.1729 58.603 33.3004 58.6007 33.4535C58.6191 33.6134 58.6237 33.7781 58.6306 33.9427C58.6398 34.3508 58.688 34.7588 58.711 35.1623C58.7179 35.2481 58.7179 35.2967 58.6926 35.3593C58.4997 35.7674 58.077 36.041 57.7371 36.3471H57.7348ZM56.5725 58.6497C56.6506 59.9226 56.8251 61.3647 57.1628 62.5078C57.1421 62.5727 57.0571 62.6237 56.9744 62.6585C56.7126 62.7629 56.43 62.7976 56.1475 62.8139L55.0105 62.902C54.4753 62.9089 53.839 62.997 53.375 62.7003C53.3268 62.6609 53.3153 62.5611 53.2992 62.4707C53.2349 61.803 53.2946 61.1306 53.2923 60.4582C53.2487 59.4913 53.1568 58.5337 53.0327 57.5738C52.6124 54.5249 51.4639 51.5988 51.4156 48.5035C51.372 47.7105 51.016 47.0057 50.8437 46.2521C50.4647 43.9799 50.7265 41.6381 50.3246 39.3566C50.0994 37.8171 49.4586 36.3911 49.1829 34.8817C48.9555 33.7456 49.1094 32.5817 49.1117 31.4316C49.1117 31.1186 49.0888 30.8056 49.0566 30.4926C49.0566 30.481 49.0566 30.4671 49.0451 30.4486C49.0313 30.4277 49.0084 30.4254 48.9969 30.4254C48.944 30.4254 48.9004 30.43 48.8522 30.4323H48.8315V30.4555C48.9257 31.8745 48.7143 33.3004 48.8407 34.7241C49.0107 36.4352 49.8169 38.0049 50.0512 39.7021C50.2511 41.179 50.3567 42.6815 50.3223 44.1747C50.3154 44.3231 50.3292 44.4969 50.3314 44.65C50.3269 44.6685 50.3246 44.6778 50.32 44.6848C49.8192 42.1644 48.5145 39.8482 48.464 37.2421C48.402 35.9552 48.5214 34.6638 48.5076 33.363C48.5375 32.0948 48.1332 30.845 48.3698 29.644C48.6339 29.7252 48.8843 29.8504 49.1737 29.8828C49.3483 29.899 49.5045 29.8828 49.6515 29.8851C49.7939 29.8875 49.9249 29.9153 49.98 29.9941C50.4876 31.4177 52.1438 37.5249 53.3015 37.8982C53.4026 37.9376 53.4232 37.9307 53.4531 38.0396C53.5082 38.2599 53.4577 38.5428 53.6897 38.7167C53.8551 38.8048 53.9975 38.8488 54.179 38.8117C54.1927 38.8071 54.2203 38.7978 54.2433 38.77C54.2525 38.9439 54.2892 39.1108 54.4041 39.2523C54.5695 39.4215 54.7923 39.3311 54.9691 39.2569C55.1299 39.1897 55.2494 39.1943 55.4262 39.1711C55.6008 39.1572 55.8098 39.0251 55.888 38.8581C55.927 38.7862 55.9798 38.6749 55.966 38.7144C56.1016 38.6842 56.2945 38.7399 56.4507 38.6726C56.5472 38.6402 56.6207 38.5799 56.6896 38.5219C57.0112 38.2112 57.2409 37.7313 57.4315 37.3232C57.3098 37.9747 57.0342 38.6054 56.8504 39.2476C56.0258 41.7123 55.2057 44.3161 55.6008 46.9547C55.7685 48.26 56.1268 49.526 56.3336 50.8128C56.7287 53.405 56.3841 56.0389 56.5679 58.6474L56.5725 58.6497ZM53.336 63.2451C53.9585 63.3471 54.5511 63.2057 55.169 63.1478C55.3619 63.1362 55.6008 63.0898 55.7754 63.1709C55.7272 63.5674 55.4998 63.9477 55.3367 64.3117C55.2379 64.5018 55.1184 64.7847 54.9944 65.0305C54.976 64.9168 54.9462 64.8055 54.8933 64.6989C54.5235 63.9616 53.5932 64.0335 52.9041 64.1679C53.0327 63.8549 53.1866 63.5512 53.3337 63.2475L53.336 63.2451ZM54.2249 64.576C54.8543 64.8774 54.4224 65.6727 54.5488 66.2384C54.7877 66.3196 54.96 66.1272 55.0633 65.9347C55.3642 65.3829 55.5549 64.7777 55.7708 64.1888C55.8121 64.0775 55.9017 63.8201 55.95 63.7228C55.95 63.7228 55.9523 63.7228 55.9546 63.7251C56.1085 63.9291 56.1452 64.2166 56.2026 64.467C56.2624 64.8519 56.2945 65.2785 56.2233 65.6611C56.1016 65.9231 55.904 66.1619 55.7386 66.4054C55.2517 67.0708 54.7371 67.727 54.1882 68.3414C53.9355 68.6822 53.545 68.7773 53.1453 68.8237C52.4447 68.8863 51.3123 68.9141 50.9539 68.1791C50.9631 67.7803 51.3215 67.4603 51.5489 67.1543L51.9531 66.679C52.4171 66.2477 52.5435 65.5266 52.7364 64.9748C52.8099 64.794 52.9248 64.6432 53.0902 64.5667C53.4278 64.4207 53.8895 64.4647 54.2295 64.5806L54.2249 64.576ZM49.0405 9.38409C49.1554 9.28439 49.2725 9.11281 49.199 8.94819L49.1783 8.90182L49.1278 8.91109C48.797 8.97833 48.588 9.33076 48.2733 9.36786C48.2733 9.35395 48.2733 9.34003 48.2733 9.34003C48.3101 8.68619 48.8131 8.16914 48.8131 7.48979C49.0428 7.4411 49.3437 7.6405 49.6102 7.51066C49.6332 7.33445 49.6676 7.142 49.4103 7.142C49.2495 7.10722 49.0084 7.05853 48.843 7.03071C48.781 7.0168 48.712 7.00521 48.6569 6.98202C48.5673 5.49116 48.6477 4.83268 50.2717 4.4733C50.1913 4.89296 50.1201 5.38451 50.2419 5.81808C50.3659 6.25862 50.6415 6.63655 50.8781 7.02144C50.9723 7.16055 51.101 7.38314 51.3077 7.2788C51.7074 7.06085 51.9371 6.59713 52.3253 6.42324C52.9983 6.20065 52.9133 7.12809 52.7112 7.51994C52.6193 7.72397 52.4815 7.92569 52.3115 8.03003C52.3184 8.0138 52.3276 7.99757 52.3413 7.97438C52.4217 7.86077 52.594 7.71933 52.6262 7.54312C52.6469 7.37618 52.6078 7.28112 52.5848 7.13273C52.5733 7.08172 52.5435 7.0539 52.5113 7.03303C52.1139 6.82436 51.9256 7.64746 51.8199 7.90482C51.7924 7.9767 51.7556 8.13204 51.7257 8.19001C51.689 8.2642 51.6201 8.33608 51.5512 8.44274C51.5374 8.4752 51.5029 8.5007 51.5167 8.59345C51.6293 8.88327 51.8314 9.10817 51.96 9.38177C52.1874 9.74811 52.1737 10.126 51.9715 10.497C51.6086 11.1996 50.6393 12.1594 49.8054 11.712C49.3506 11.443 49.8399 11.2575 49.7181 10.9028C49.6538 10.6964 49.4884 10.5132 49.601 10.3301C49.6975 10.133 49.8835 9.94751 49.8399 9.70174C49.6217 9.63913 48.9165 9.84781 48.9326 9.51625C48.928 9.48147 48.99 9.43046 49.0382 9.38177L49.0405 9.38409ZM50.5589 3.78699C49.9019 3.76612 49.3598 3.76149 48.7603 3.87278C49.1232 3.51803 49.7503 3.64324 50.2212 3.68265C50.3567 3.70352 50.4853 3.65251 50.5589 3.78699ZM53.0006 3.30936C52.5389 3.33718 52.0634 3.54818 51.6086 3.47398C51.3766 3.39515 51.0114 3.27226 50.8827 3.05895C50.8781 3.03577 50.9654 2.99403 51.0366 2.98244C51.2709 2.93838 51.5167 2.92679 51.7556 2.92215C52.3919 2.93838 53.0373 3.00099 53.6667 3.0775C53.9837 3.10996 54.2617 3.24908 54.4523 3.49949C53.9952 3.39747 53.4899 3.27458 53.0006 3.30936ZM56.2555 11.8743C56.2738 11.8673 56.2945 11.8743 56.3152 11.8696L56.3772 11.8905C56.6552 12.0806 56.7976 12.4354 56.9584 12.7321C57.0732 13.0498 57.3902 13.2376 57.6521 13.4231C57.9966 13.6596 58.3687 13.9448 58.5364 14.3343C57.6337 14.281 56.8665 14.965 56.3037 15.6118C55.7111 16.2912 55.3436 17.1653 55.3436 18.0765C55.2953 19.201 55.4331 20.3093 55.5687 21.4199C55.6674 22.0599 55.9408 22.7137 55.6973 23.3467C55.5572 23.7594 55.2907 24.0979 54.9622 24.3831C54.303 24.9674 53.5611 25.4589 52.872 26.0131C52.4654 26.3701 51.8934 26.7434 51.7832 27.3393C51.7234 27.7358 52.0611 27.8471 52.362 27.752C52.9018 27.5526 53.336 27.1747 53.8114 26.8733L54.9071 26.1221C55.2126 25.9273 55.5089 25.7024 55.8328 25.5447C55.7524 25.7859 55.5021 26.0084 55.355 26.2009C54.9278 26.6808 54.3214 27.344 53.9217 27.8401C53.8666 27.9166 53.8275 27.9491 53.7885 28.0534C53.7264 28.2969 53.9906 28.3804 54.1698 28.3178C54.8658 28.0326 55.3527 27.4529 55.9546 27.0263C56.0901 26.9289 56.2693 26.7782 56.2968 26.8385C56.3405 26.8663 56.3887 26.9336 56.4255 27.0078C56.685 27.5712 56.5311 28.2111 56.3772 28.7908C56.0625 29.8133 55.6077 30.8404 55.4423 31.9209C55.3619 32.2687 55.293 32.6373 55.1299 32.9295C54.7486 33.5253 53.9975 33.887 53.7678 34.6128C53.6644 34.9768 53.6024 35.2921 53.3681 35.5958C53.1912 35.8903 52.9524 36.1732 52.872 36.514C52.8651 36.5488 52.8743 36.5882 52.8903 36.6207C53.0121 36.718 53.1958 36.7065 53.3176 36.7204L53.5128 36.7296H53.5588C53.5657 36.9545 53.5588 37.2652 53.4439 37.467C53.2625 37.3788 53.1154 37.1934 52.9914 37.0102C52.1392 35.5379 51.6339 33.8778 51.0343 32.2872C50.5795 30.9007 50.0834 29.5049 49.8858 28.0534C49.8307 27.5944 49.7894 27.1306 49.6883 26.6739C49.7365 26.6808 49.7802 26.6901 49.8215 26.7179C49.8812 26.755 49.9272 26.8199 50.0099 26.8802C50.2074 27.0054 50.405 26.7968 50.5451 26.6785C50.4394 26.3145 49.941 26.3261 49.6676 26.2241C49.7158 24.8352 49.7572 22.8876 50.4302 21.4501C50.6898 20.9817 51.0366 20.5481 51.3467 20.1099C51.5236 19.892 51.6706 19.6277 51.8773 19.4514C52.8605 19.15 53.9125 19.3703 54.9554 19.2126C54.9416 19.0735 54.8727 18.9205 54.7417 18.8625C54.5993 18.7744 54.3627 18.793 54.2594 18.7489C54.0756 18.4429 53.9837 18.0858 53.7425 17.8168C54.0917 17.425 53.9768 17.0123 53.6943 16.5996C53.6116 16.4581 53.5748 16.3468 53.6185 16.1984C54.2042 14.7354 55.3895 13.5923 56.0556 12.1618C56.1222 12.0598 56.1613 11.9067 56.2578 11.865L56.2555 11.8743ZM56.0235 23.5762C56.2601 23.9982 56.3198 24.5106 56.4415 24.979C56.5518 25.5099 56.6666 26.078 56.7355 26.609C56.159 26.1313 55.6238 26.8524 55.0955 27.1747C55.6215 26.5881 56.8688 25.445 56.2899 24.8909L56.2532 24.8607C56.0924 24.8654 55.966 24.9257 55.8581 24.979C54.6246 25.6398 53.5909 26.6321 52.3712 27.3092C52.3184 27.33 52.2655 27.3555 52.2196 27.3509C52.1668 27.2535 52.2793 27.1376 52.3436 27.0425C53.3796 25.7974 55.5135 25.0323 56.0212 23.5785L56.0235 23.5762ZM56.662 33.1775C56.6873 33.523 56.8872 33.8731 57.2271 33.9867C57.3879 34.0447 57.5625 34.0748 57.6727 34.1885C57.6934 34.4644 57.6429 34.9466 57.5602 35.2921C57.3948 36.0294 57.1697 36.7621 56.8688 37.453C56.7493 37.7081 56.6391 37.9469 56.4346 38.1394C56.4071 38.1649 56.3933 38.1811 56.3795 38.1927C56.4117 37.9168 56.538 37.5156 56.6023 37.2606C56.6712 36.9499 56.8228 36.6207 56.7631 36.2937C56.6827 36.1222 56.4921 36.1848 56.3657 36.194C56.2371 36.6902 56.1452 37.1957 55.9867 37.6664C55.8696 38.0118 55.7111 38.348 55.4745 38.6077C55.5893 37.9539 55.7984 37.307 55.9132 36.6485C55.9339 36.4746 55.989 36.3053 55.9569 36.1291C55.9385 36.0178 55.7754 35.9552 55.6858 36.0248C55.6422 36.0433 55.6077 36.1222 55.6031 36.1454C55.4607 36.6578 55.3734 37.1586 55.2609 37.6617C55.2034 37.9121 55.1552 38.1672 55.0748 38.406C55.0059 38.6286 54.9186 38.8743 54.6797 38.9393C54.6039 38.4686 54.7578 37.9121 54.8198 37.4368C54.9002 36.9615 55.0312 36.3216 55.0932 35.8486C55.0312 35.8161 55.0449 35.7697 54.9462 35.7048C54.8451 35.6724 54.8015 35.7419 54.744 35.7976C54.3076 36.5511 54.3122 37.5156 53.9378 38.2761C53.9286 38.2553 53.9194 38.2275 53.9102 38.2066C53.7747 37.249 54.2617 36.2775 54.264 35.3107C54.2571 35.1089 54.0848 34.9745 54.094 34.789C54.1973 34.1931 54.8038 33.9473 55.1391 33.5022C55.6192 32.7996 55.6904 32.4101 56.6368 32.6744C56.6804 32.8251 56.6414 33.0152 56.6666 33.1752L56.662 33.1775ZM57.0686 32.8506C57.2087 32.9271 57.3443 32.9666 57.5005 32.9851C57.6268 32.999 57.8473 32.999 57.9553 33.0616C58.0586 33.2448 57.8588 33.421 57.7348 33.5277C57.6107 33.6366 57.4844 33.7131 57.3213 33.6668C57.0847 33.581 56.9055 33.2657 56.9584 33.0083C56.9721 32.9318 57.0227 32.8692 57.0663 32.8506H57.0686ZM52.64 16.4164C52.64 16.4164 52.6308 16.4094 52.6285 16.4071C52.6859 16.3932 52.7456 16.3863 52.803 16.4048C52.9799 16.4836 53.2004 16.6668 53.3107 16.8314C53.0971 16.7016 52.8536 16.5509 52.6423 16.4164H52.64ZM53.6254 17.1862C53.6323 17.207 53.6369 17.2441 53.6346 17.2673C53.6438 17.3415 53.5358 17.3902 53.4393 17.3693C53.3911 17.3624 53.3428 17.3415 53.2992 17.316C53.4118 17.2905 53.5105 17.2233 53.5932 17.1954C53.6093 17.1908 53.6185 17.1885 53.6231 17.1862H53.6254ZM53.6139 17.1676C53.6139 17.1676 53.6208 17.1746 53.6231 17.1815C53.6162 17.1792 53.6093 17.1607 53.6139 17.1676ZM52.4034 18.6863C52.6514 18.4011 52.9248 18.0951 53.166 17.7983C53.3704 18.0974 53.6415 18.2852 53.8183 18.6005C53.9699 18.8857 53.5266 18.8857 53.3451 18.9066C52.9707 18.946 52.555 18.9599 52.1851 19.0318C52.192 18.9112 52.3276 18.786 52.4011 18.6863H52.4034ZM52.7847 17.0563C52.7479 17.0285 52.7249 16.9752 52.7594 16.9404C52.8214 16.9729 52.8811 17.0586 52.9317 17.1282C52.8811 17.1073 52.8306 17.0865 52.7847 17.0563ZM51.8291 17.7658C51.7901 18.0139 51.5282 18.3269 51.4065 18.5611C51.3651 18.6515 51.2709 18.7512 51.3192 18.8579C51.4432 18.946 51.5787 18.7164 51.6568 18.6399L51.9164 18.3061C52.0014 18.2133 52.0588 18.0765 52.192 18.0603C52.2564 18.0464 52.3643 18.0371 52.3988 18.0672C52.3942 18.058 52.3942 18.0742 52.3827 18.0951C51.8406 18.6933 51.2089 19.5326 50.6484 20.2769C50.8735 19.1477 51.1951 18.0301 51.7671 17.0262C51.7671 17.0262 51.8084 16.9474 51.8222 16.9219C51.8107 17.2047 51.8544 17.4876 51.8291 17.7658ZM48.9188 21.2275C49.1232 19.7876 49.3989 18.3663 49.8973 16.9984C50.3292 15.7162 50.8414 14.4456 51.1469 13.1124C51.2617 13.4926 51.4524 14.1279 51.4524 14.1279C51.5006 14.2694 51.6614 14.4757 51.8429 14.3737C52.068 14.2578 52.2012 14.019 52.3804 13.8706C52.5274 13.7523 52.6882 13.6434 52.849 13.5367C52.9753 13.4463 53.205 13.3118 53.3107 13.2028C52.6698 14.4827 51.8567 15.7139 51.2939 17.061C50.7219 18.4034 50.2511 19.79 49.9019 21.2113C49.477 22.9827 49.1577 24.819 49.2932 26.653C49.3391 27.5549 49.6998 28.4337 49.7319 29.3333C49.7434 29.5118 49.5551 29.484 49.4241 29.4794C49.2794 29.4585 49.0819 29.4214 48.9992 29.2985C48.9142 29.1664 48.8682 28.9832 48.8246 28.8139C48.5972 27.752 48.5352 26.6553 48.5053 25.5702C48.5099 24.1188 48.7235 22.665 48.9142 21.2298L48.9188 21.2275ZM53.8826 35.5472C53.7747 35.8694 53.6713 36.2427 53.3199 36.3285C53.46 36.0804 53.7379 35.9065 53.7701 35.6121C53.7563 35.5657 53.8114 35.5773 53.8826 35.5472ZM51.9256 13.801C51.8613 13.8428 51.8107 13.8729 51.7602 13.8799C51.5856 13.5367 51.5121 13.0962 51.565 12.7136C51.6017 12.4423 51.7579 12.4238 51.983 12.3681C52.1668 12.3357 52.4103 12.1942 52.5756 12.0992C53.1131 11.7977 53.669 11.4129 54.1927 11.0813C54.3352 11.0025 54.5855 10.8216 54.7348 10.7984C54.2754 11.3595 53.9837 12.1177 53.4784 12.6301C52.996 13.0336 52.4585 13.4463 51.9256 13.801ZM51.7763 11.9809C51.7625 11.9809 51.7487 11.9763 51.7625 11.9832C51.6959 11.9299 51.6086 11.8348 51.5581 11.7676C51.5581 11.7653 51.5604 11.7607 51.5627 11.7583C51.8406 11.3271 52.215 11.0048 52.4608 10.5272C52.7181 9.90114 52.4723 9.23106 52.0772 8.74184C52.6514 8.35231 53.143 7.77266 53.2785 7.09099C53.3635 7.50602 53.4554 7.92105 53.5611 8.33144C53.8895 9.08731 54.8175 9.48842 54.8221 10.388C53.7402 10.7451 52.8582 11.6308 51.7763 11.9786V11.9809ZM55.7938 11.9763C55.5021 12.7229 54.9416 13.3141 54.4615 13.9494C53.9653 14.6195 53.6759 15.38 53.1844 16.0338C53.1752 16.0454 53.1568 16.0663 53.1568 16.0617C53.1545 16.0732 53.1407 16.0709 53.1292 16.0732C52.8766 16.0964 52.6239 15.9712 52.362 16.0454C52.2012 16.0872 52.045 16.2124 51.9968 16.3468C53.0006 14.5522 53.9883 12.5559 55.1414 10.9236C55.2838 11.1764 55.5319 11.3827 55.7111 11.5868C55.7593 11.6447 55.8259 11.705 55.8259 11.7607C55.8374 11.8325 55.8167 11.9044 55.7915 11.974L55.7938 11.9763ZM54.7647 8.85081C54.7578 8.91341 54.7578 8.99224 54.7257 9.00152C53.8459 8.7001 53.7839 7.58949 53.63 6.7803C53.5703 6.51134 53.5496 6.19833 53.3176 6.00821C52.6009 5.53058 51.8452 6.26325 51.31 6.69915C51.2778 6.72466 51.2457 6.75016 51.2135 6.77103C50.8391 6.27949 50.4555 5.71838 50.5359 5.08541C50.8138 3.98639 52.2357 3.74062 53.2073 3.64092C54.2915 3.52267 55.3711 4.32259 55.3964 5.45175C55.4469 6.46034 55.0358 7.45038 54.8038 8.42419C54.767 8.54244 54.767 8.72329 54.7647 8.85081ZM51.0849 3.79858C50.9471 3.66179 50.8276 3.52035 50.6691 3.39283C50.4899 3.26299 50.2809 3.29313 50.1086 3.2514C50.5474 3.21894 50.9815 3.52731 51.2204 3.88669C51.1791 3.88669 51.1285 3.84264 51.0849 3.8009V3.79858ZM49.2955 4.39678C48.9234 4.51039 48.7534 4.8605 48.4387 5.00657C48.3675 5.00657 48.3514 4.89528 48.3353 4.81645C48.317 4.66806 48.3124 4.49416 48.4387 4.40838C48.696 4.23216 49.0405 4.2739 49.3368 4.22289C49.6033 4.18347 50.0168 4.15797 50.2671 4.08377C49.9433 4.21825 49.539 4.29013 49.2932 4.39446L49.2955 4.39678ZM49.3828 10.9329C49.3736 11.2668 49.222 11.6401 49.4149 11.9461C48.5053 13.2817 47.6623 14.7424 46.8698 16.166C47.2534 14.8258 47.7955 13.5367 48.17 12.1942C48.3124 11.8789 48.8499 10.4066 49.3276 10.6106C49.4057 10.6871 49.3897 10.8216 49.3851 10.9306L49.3828 10.9329ZM49.6998 12.2452C50.1224 12.3125 50.4968 12.1224 50.9034 12.0528C51.0343 12.0319 51.1722 11.9925 51.2457 12.0737C51.2893 12.1177 51.287 12.1108 51.2457 12.1757C50.6921 13.0498 50.0742 13.8752 49.4172 14.6728C48.3583 15.9457 47.2741 17.207 46.5368 18.7164C46.0843 19.7111 45.889 20.8542 45.0644 21.6193C45.0644 21.4176 45.1792 21.2066 45.255 21.0049L45.5054 20.3905C46.585 17.7357 47.7611 15.1018 49.3483 12.7136C49.477 12.5397 49.5665 12.2986 49.6998 12.2452ZM46.9801 18.7883C47.5543 17.5061 48.6202 16.4906 49.245 15.2177C49.2771 15.2177 49.3254 15.227 49.3231 15.2687C49.3139 15.3962 49.2519 15.5261 49.2358 15.6536L49.1232 16.1753C48.2963 19.9639 47.2741 23.8637 47.5107 27.7752C47.5061 28.0859 47.6623 28.4824 47.7014 28.7351C47.1363 29.1038 46.4334 29.3124 45.8155 29.6023C45.4135 29.7924 45.0988 30.1425 44.6624 30.124C43.8332 30.0173 43.5874 26.1545 43.7114 25.4079C43.9434 23.5971 45.3515 22.3195 46.1417 20.7499C46.4656 20.1053 46.6815 19.4259 46.9801 18.7906V18.7883ZM48.4019 21.5892C48.5972 20.2815 48.8154 18.9761 49.0911 17.6824C49.2312 17.0378 49.3782 16.3932 49.5688 15.7626C49.748 15.1899 49.9639 14.5777 50.421 14.179C50.421 14.4433 50.3177 14.7145 50.2511 14.9835C49.8376 16.4349 49.0681 18.102 48.7833 19.5882C48.673 20.1447 48.5834 20.9377 48.4984 21.5057C48.3284 22.7833 48.1768 24.0655 48.1148 25.3615C48.0275 26.6739 48.4203 27.9422 48.5627 29.1988C47.892 28.9832 47.9425 28.0929 47.9058 27.5086C47.8667 25.5262 48.1332 23.5484 48.3997 21.5869L48.4019 21.5892ZM58.2148 33.2981C58.2148 33.2981 58.224 33.2819 58.2286 33.2772C58.224 33.2842 58.2194 33.2912 58.2148 33.2981ZM59.2186 33.0176C58.0747 32.8437 56.9859 32.155 55.7869 32.2803C55.9293 30.6317 56.9239 29.1362 57.0548 27.4668C57.1582 25.7488 56.561 24.0956 56.1659 22.454C55.8857 21.3573 55.7662 20.2282 55.7318 19.1013C55.7295 18.2736 55.6973 17.3995 56.0625 16.6459C56.6023 15.533 57.9759 14.0306 59.1681 15.2061C59.8549 15.7579 59.9399 16.6552 60.0869 17.469C60.1397 17.7473 60.2247 18.0278 60.3465 18.2852C60.6198 18.7883 60.629 19.368 60.7094 19.9268C60.753 20.4809 60.8656 21.0605 60.8036 21.6124C60.6175 21.7144 60.1811 21.6912 60.2408 22.0181C60.2431 22.0297 60.2408 22.0297 60.2569 22.0297C61.3985 22.0297 60.9919 23.4023 61.1573 24.1675C60.8174 24.0794 60.5417 23.8104 60.2178 23.6667C59.8618 23.5183 59.4874 23.4464 59.1153 23.356C58.8764 23.3096 58.6329 23.2424 58.3848 23.2609C58.3687 23.2609 58.3228 23.2818 58.2975 23.3003C58.2654 23.3235 58.2769 23.3189 58.2746 23.356C58.2746 23.4209 58.27 23.6759 58.2677 23.7362C58.7087 23.6829 59.1382 23.7919 59.5379 23.9843C59.995 24.2069 60.4843 24.4272 60.861 24.7657C60.9069 24.8097 60.9506 24.9164 60.969 24.9929C61.0379 25.2781 60.6727 25.4218 60.4728 25.5957C60.3671 25.6699 60.2982 25.8647 60.3465 25.9968C60.3993 26.2078 60.5739 26.3585 60.5854 26.544C60.2592 28.0372 59.5609 31.3667 59.2186 33.0129V33.0176ZM40.1212 3.11228C40.1602 3.08909 40.1924 3.07286 40.2222 3.06127C40.1878 3.0775 40.1556 3.09605 40.1212 3.11228ZM27.4807 14.9116C27.1958 14.7192 27.0373 14.4386 26.9684 14.1233C27.0603 14.4294 27.2601 14.7099 27.4807 14.9116ZM26.9294 13.5993C26.9431 13.3234 27.0052 13.0475 27.0993 12.7994C27.0672 13.0683 26.9684 13.328 26.9294 13.5993ZM57.2064 59.4125C57.1077 59.4357 56.9216 59.4125 56.9216 59.2826C56.9009 59.1598 56.9032 59.0276 56.9055 58.8978C56.9124 58.5314 56.9124 58.1651 56.9009 57.7987C56.9239 57.9796 56.9492 58.1581 56.9882 58.3343C57.0686 58.696 57.2432 59.0346 57.2064 59.4125Z" fill="white"/>
</g>
<defs>
<clipPath id="clip0_24_723">
<rect width="70" height="70" fill="white"/>
</clipPath>
</defs>
</svg>
