<svg width="411" height="447" viewBox="0 0 411 447" fill="none" xmlns="http://www.w3.org/2000/svg">
<path d="M168.694 288.329C165.145 289.589 162.006 291.636 159.632 294.267L145.698 309.739L53.307 412.354C49.3118 416.795 46.4442 421.841 44.906 427.159L39.4491 445.924L38.5582 446.85L4.45984 229.828L3.33228 222.638L20.8582 219.847C20.9696 219.826 21.0879 219.813 21.1993 219.799C26.8232 218.97 32.4958 220.007 36.9921 222.68L39.985 224.17L168.701 288.329H168.694Z" fill="#616956"/>
<path d="M407.571 141.621L410.153 157.838L393.156 160.546C390.824 160.915 388.583 161.597 386.502 162.551L385.305 155.054C384.379 149.256 380.788 144.12 375.275 140.723L187.313 24.8138C183.22 22.2872 177.248 23.1921 174.068 26.8253L25.5425 196.371C21.1645 201.368 19.2365 207.507 20.1831 213.437L21.1923 219.792C21.0809 219.806 20.9626 219.82 20.8513 219.841L3.3253 222.632L4.45287 229.822L4.00045 229.891L0.276704 206.491C-0.836939 199.496 1.43907 192.264 6.59663 186.376L166.133 5.88883C171.562 -0.25709 181.64 -1.84403 188.691 2.32517L395.321 124.464C402.051 128.459 406.464 134.626 407.578 141.621H407.571Z" fill="#616956"/>
<path d="M384.852 152.159L386.509 162.551C383.474 163.922 380.795 165.871 378.707 168.251L376.326 170.597L273.996 271.486C272.632 271.472 271.261 271.576 269.897 271.792L173.058 287.216C171.562 287.453 170.107 287.828 168.701 288.323L39.9851 224.163L36.9922 222.673C32.4958 220.001 26.8232 218.97 21.1993 219.792L19.7168 210.465C19.0764 206.435 20.385 202.266 23.357 198.869L174.061 26.8253C177.249 23.199 183.213 22.2872 187.306 24.8138L378.031 142.421C381.776 144.732 384.219 148.219 384.845 152.159H384.852Z" fill="#575E4E"/>
</svg>
