<svg width="408" height="176" viewBox="0 0 408 176" fill="none" xmlns="http://www.w3.org/2000/svg">
<path d="M407.823 110.711L0 175.671L0.361934 174.433L5.81878 155.668C7.36396 150.35 10.2316 145.297 14.2198 140.863L106.61 38.2479L120.545 22.7752C122.918 20.1442 126.057 18.0979 129.607 16.8381C131.006 16.337 132.461 15.9681 133.964 15.7314L230.803 0.307483C232.174 0.0917149 233.545 -0.0126909 234.902 0.00122969C238.8 0.036031 242.572 1.01047 245.739 2.84102L257.864 9.81521L383.49 82.0558C388.668 85.0348 392.963 88.9395 396.081 93.5194L407.447 110.168L407.823 110.732V110.711Z" fill="#585E4E"/>
<path d="M167.68 75.4377C167.976 66.4617 171.778 54.8839 178.816 48.9274C180.398 47.584 182.126 46.7214 183.962 45.9109C184.897 45.4935 185.953 45.4851 186.904 45.8518C186.971 45.879 187.037 45.9 187.111 45.9263C190.421 47.0491 191.899 49.4537 192.796 52.7174C194.184 57.754 192.578 63.1598 191.11 67.9588C191.018 68.6151 191.791 68.6071 192.147 68.9917C192.606 69.0267 193.963 64.522 194.117 63.8622C194.728 61.2178 194.937 58.2588 194.851 55.5475C194.843 55.2592 194.59 54.0467 194.609 53.9682C194.696 53.6399 194.972 53.8357 195.064 54.1421C195.679 56.2544 195.13 62.539 194.581 64.7711C194.408 65.4716 192.963 69.0965 193.176 69.4532C193.262 69.5971 194.567 70.2165 194.706 70.182C195.414 70.0017 196.588 65.249 196.734 64.3765C196.972 62.9294 196.875 61.7491 196.864 60.4356C196.864 60.2343 196.967 58.6889 197.048 58.7203C197.696 61.6076 197.363 65.058 196.559 67.9152C196.439 68.3495 195.656 69.9764 195.649 70.2104C195.634 70.6405 196.155 70.8294 196.482 70.671C197.068 68.3514 197.775 66.038 198.003 63.6424C198.732 56.0962 196.991 46.6533 188.031 45.335C187.877 45.3152 187.237 45.0884 187.515 45.0133C187.814 45.3565 188.595 45.1206 188.99 45.1908C193.88 46.0342 196.669 49.8503 198.286 54.2973C200.547 53.5521 203.144 53.2955 205.533 53.2414C211.91 53.0963 219.875 54.9294 225.106 58.6705C227.304 60.2448 229.131 61.7451 229.063 64.7135C228.923 70.3172 221.581 72.4136 217.098 73.2809C210.002 74.6591 202.087 73.9067 195.394 71.2321C191.634 69.733 186.575 67.3303 186.669 62.596C186.691 61.3718 187.217 60.5969 187.617 59.4959C183.933 63.0822 183.853 69.1484 186.733 73.3089C189.174 76.8273 195.005 80.059 199.049 81.2869C208.55 84.1689 229.194 82.0295 230.657 69.6171C231.093 65.905 229.656 64.3624 228.589 61.2576C231.552 64.6563 232.058 69.6426 229.982 73.5743C225.981 81.1621 215.757 83.1761 207.907 83.2379C202.577 83.2815 197.876 82.1568 193.141 79.6908C189.339 84.4157 184.512 89.1819 178.066 89.3316C171.975 89.4509 168.363 84.8829 167.581 79.1785C167.977 79.1353 167.879 79.5973 167.933 79.8155C168.808 83.4286 170.585 85.8871 174.584 85.8257C179.405 85.7548 183.942 82.343 187.456 79.3561C187.561 79.6228 187.327 79.779 187.192 79.9576C184.258 83.6778 176.157 88.2343 171.472 85.6471L170.079 84.6702C171.656 87.2228 174.697 88.6712 177.628 88.6641C182.333 88.6493 185.931 86.1148 189.255 83.0382C189.727 82.599 192.592 79.7204 192.616 79.3956C192.663 79.1743 192.45 79.1385 192.332 79.0311C190.673 77.5989 188.275 76.5531 187.09 74.5366C185.895 75.8254 184.997 77.4011 183.831 78.7484C181.251 81.7208 175.943 86.5877 171.754 84.5143C168.313 82.8015 168.212 79.7088 167.681 76.4066C167.665 76.3084 167.686 76.1982 167.653 76.0333C167.653 76.0333 167.681 75.5696 167.685 75.4306L167.68 75.4377ZM187.748 51.0682C186.7 51.6102 185.624 52.3328 184.6 52.9405C180.496 55.3843 175.941 66.0106 175.011 70.6685C174.171 74.8592 173.758 80.3233 175.645 84.2495C179.386 82.668 182.592 79.7169 184.957 76.4635C185.18 76.158 186.34 74.4529 186.375 74.2713C186.467 73.7785 185.526 72.63 185.264 72.0481C182.404 65.6945 185.26 58.5885 191.754 56.0211C191.709 52.4915 190.671 48.1236 187.049 46.6534C182.713 44.8923 177.433 50.7428 175.161 53.9439C170.074 61.1044 165.439 76.0788 172.295 83.3532C173.314 84.4329 173.781 84.6806 175.279 84.2818C173.851 81.9196 173.71 78.7765 173.795 76.0699C173.976 70.4533 175.777 64.6456 178.577 59.7948C180.853 55.8507 184.019 51.9681 188.536 50.5983C188.705 51.0312 187.87 51.0049 187.747 51.062L187.748 51.0682ZM191.574 57.3205C188.301 59.1242 186.062 62.9368 188.436 66.3586C188.555 66.3903 190.123 64.9549 190.264 64.6935C190.471 64.3275 191.009 61.8582 191.124 61.2675C191.38 59.975 191.547 58.6336 191.573 57.3143L191.574 57.3205ZM227.096 61.6492C227.589 62.3019 227.935 63.1851 228.42 63.8643C228.65 63.7714 228.468 63.4917 228.423 63.3226C227.679 60.507 224.409 58.6793 221.963 57.4522C214.879 53.8949 205.977 52.7438 198.257 54.6792L198.77 61.2692C205.284 59.9949 212.205 60.5887 218.314 63.2292C221.258 64.5039 224.469 66.24 226.115 69.1092C227.722 67.718 228.893 66.1561 227.912 64.0383C226.069 60.0359 221.754 58.4416 218.001 56.7842C218.14 56.624 218.558 56.6841 218.742 56.7308C219.587 56.9443 221.508 57.8761 222.355 58.3032C223.702 58.9854 226.261 60.5344 227.095 61.6431L227.096 61.6492ZM190.008 65.426C189.192 65.8813 188.38 66.6381 189.401 67.3335L190.008 65.426ZM198.803 61.7611C198.562 64.9579 197.959 68.092 196.892 71.1164C203.068 73.2179 209.793 73.9304 216.256 72.8089C217.849 72.5337 224.889 70.8811 225.458 69.615C225.813 68.8293 222.9 66.4235 222.236 65.9614C215.89 61.5331 206.285 59.9952 198.797 61.7621L198.803 61.7611Z" fill="white"/>
<path d="M215.314 49.0883C215.307 49.1649 215.184 49.3793 215.184 49.3793C215.184 49.3793 215.483 49.4834 215.564 49.6344C215.644 49.7854 215.582 49.9524 215.418 49.9907C214.687 50.1811 214.206 49.8852 214.206 49.8852C214.206 49.8852 214.449 49.5513 214.769 48.9411C214.938 48.6187 215.33 48.8656 215.309 49.0954L215.314 49.0883Z" fill="white"/>
<path d="M214.527 48.0791C214.631 48.3459 214.276 48.5275 214.063 48.9762C213.318 48.5205 213.695 47.3916 214.059 47.9889C214.178 48.1842 214.367 47.6637 214.527 48.0791Z" fill="white"/>
<path d="M214.629 44.8034C214.744 44.691 214.942 44.7542 214.974 44.9191C214.995 45.048 215.003 45.1789 215.068 45.2378C215.186 45.3452 215.429 45.2065 215.567 45.449C215.748 45.7604 215.228 45.9742 214.558 46.1549C214.258 45.73 214.271 45.1679 214.624 44.8105L214.629 44.8034Z" fill="white"/>
<path d="M212.541 49.4985C212.902 49.2781 213.01 49.8841 213.01 49.8841C213.01 49.8841 213.235 49.6727 213.405 49.753C213.832 49.9502 213.079 50.4837 212.646 50.7341C212.485 50.8287 212.51 50.787 212.451 50.6137C212.31 50.2332 212.215 49.707 212.542 49.5046L212.541 49.4985Z" fill="white"/>
<path d="M215.501 46.7495C215.604 47.1675 216.31 47.5349 215.81 47.7959C215.688 47.8592 215.496 47.5998 215.496 47.5998C215.461 47.7374 215.234 47.8988 215.134 47.7824C214.777 47.3917 215.046 47.1418 215.495 46.7505L215.501 46.7495Z" fill="white"/>
<path d="M208.35 52.0693C208.211 52.022 208.057 52.0021 207.917 52.0366C207.437 52.1434 206.824 52.4913 206.321 52.5703C204.171 52.9077 202.846 51.5175 201.082 51.184C200.608 51.0947 198.461 51.4883 198.556 52.776C198.316 51.3224 200.542 50.6709 201.203 50.7119C203.155 50.8397 205.237 53.3634 207.352 51.603C206.173 50.1456 205.071 48.9404 204.761 47.0007C204.615 46.0733 204.82 43.8513 206.159 44.0816C206.353 44.1141 206.462 44.3298 206.515 44.3466C205.69 44.1426 205.402 45.3142 205.361 45.9373C205.226 48.0036 206.595 49.7837 207.784 51.3464C209.132 50.4362 210.078 48.5257 210.296 46.9436C210.375 46.3648 210.424 45.9544 210.144 45.4949C210.04 45.3161 209.799 45.2597 209.619 45.3571C208.463 46.0105 208.425 47.4135 207.786 48.4325C208.055 47.4212 207.386 44.5623 206.515 44.3466C206.534 44.3499 206.697 44.1797 206.861 44.2671C207.621 44.6575 207.834 45.373 208.136 46.0933C209.558 44.127 211.071 44.5879 210.821 47.0814C210.712 48.1495 210.132 49.2662 209.568 50.1664C209.367 50.4875 208.521 51.2307 208.535 51.4803C208.571 52.3933 210.81 52.067 211.21 51.526C211.064 52.0775 209.729 52.3562 209.107 52.3217C209.038 52.32 208.972 52.299 208.912 52.2769L208.351 52.0754L208.35 52.0693Z" fill="white"/>
<path d="M187.179 45.3996L187.041 45.4842C186.615 44.9343 186.897 44.7643 187.179 45.3996Z" fill="white"/>
<path d="M187.958 67.5223C191.393 71.9231 203.33 74.127 208.723 74.2495C214.603 74.3837 228.559 72.9732 229.39 65.518L229.427 63.9454C231.814 69.1334 225.412 72.3282 221.387 73.6209C214.017 75.9797 203.181 74.981 195.932 72.4565C192.084 71.116 187.372 69.0806 186.287 64.7327C186.677 64.533 186.621 65.2969 186.671 65.3771C187.064 66.0329 187.504 66.9518 187.952 67.5233L187.958 67.5223Z" fill="white"/>
<path d="M224.725 75.5636C224.827 75.7741 224.233 76.2008 224.08 76.3067C217.25 81.3055 206.292 81.6098 198.58 78.8244C197.34 78.3773 195.741 77.7724 194.743 76.9474C196.293 77.3208 197.731 78.0641 199.263 78.5222C207.734 81.0561 217.029 80.0187 224.725 75.5636Z" fill="white"/>
<path d="M187.873 73.8726L187.729 73.9582L185.978 71.0236C185.79 70.7071 185.413 69.0294 185.326 68.5523L185.262 66.901C185.566 68.5208 186.009 70.1 186.55 71.6576L187.873 73.8726Z" fill="white"/>
<path d="M176.259 62.185C174.713 65.8825 173.593 69.6137 173.222 73.6238L173.065 80.5642C172.079 74.9611 172.865 68.3436 175.523 63.2696C175.702 62.9269 175.932 62.3873 176.259 62.185Z" fill="white"/>
<path d="M176.541 62.0149C176.548 62.1397 176.248 62.0735 176.232 61.8117C176.225 61.6869 176.525 61.7531 176.541 62.0149Z" fill="white"/>
<path d="M222.106 64.333C222.043 64.7331 221.675 64.3126 221.585 64.2637C216.546 61.5434 213.509 61.1202 207.989 60.3884C207.738 60.3523 207.502 60.4584 207.387 60.1241C207.463 59.8479 211.068 60.3204 211.512 60.3828C213.834 60.742 216.157 61.3527 218.321 62.2715C218.806 62.4724 222.154 64.036 222.107 64.3392L222.106 64.333Z" fill="white"/>
<path d="M215.22 56.025C215.06 55.6852 215.377 55.7802 215.577 55.8117C216.228 55.9109 217.14 56.3529 217.826 56.5096C216.932 56.8701 216.126 55.7004 215.214 56.026L215.22 56.025Z" fill="white"/>
<path d="M222.473 64.3069L222.66 64.7747C222.433 64.7348 222.273 64.7159 222.191 64.477L222.473 64.3069Z" fill="white"/>
<path d="M207.071 59.9158C207.295 59.9813 207.241 60.3988 206.959 60.3614C206.94 60.3643 206.918 60.1852 206.671 60.1737C206.398 60.1598 205.902 60.2819 205.676 60.1663C205.844 59.9952 206.959 59.883 207.077 59.9148L207.071 59.9158Z" fill="white"/>
<path d="M223.443 65.2747C223.463 65.4793 222.888 65.0661 222.82 64.8754C222.801 64.6708 223.375 65.084 223.443 65.2747Z" fill="white"/>
</svg>
