<svg width="90" height="77" viewBox="0 0 90 77" fill="none" xmlns="http://www.w3.org/2000/svg">
<g clip-path="url(#clip0_24_724)">
<path d="M65.6025 20.0371L50.2738 27.596C51.5227 26.6317 53.0378 25.8619 54.428 25.1105C55.9369 24.2956 59.1307 23.0549 60.2752 22.1705C60.914 21.677 60.8853 20.9748 61.5118 20.852C61.4197 20.3094 60.2773 21.0751 60.4922 20.2418C63.0658 20.2296 61.3808 20.9236 61.303 21.1611C60.9468 22.2421 62.5949 21.1079 62.9491 20.9646C63.7967 20.6206 64.6955 20.1845 65.5984 20.0392L65.6025 20.0371Z" fill="white"/>
<path d="M68.4647 14.7202C69.2672 15.2566 68.9151 15.2014 68.2845 15.49C68.2538 15.5044 68.2395 15.705 68.1146 15.7357C67.7911 15.8135 66.9455 15.7971 66.8309 15.4348C66.5913 14.6752 67.5925 14.8287 67.6601 14.5953C68.002 13.412 67.2444 13.0885 67.0745 12.5336C66.9701 12.1938 67.0847 11.295 67.0336 11.2438C66.8718 11.078 65.5943 11.6267 65.8072 10.8364C66.3354 11.0309 66.708 11.0166 67.2342 10.8364V12.0628H68.4626C68.6551 10.3491 68.3295 11.1762 67.2363 10.5272C67.1421 10.302 68.5425 10.1505 68.8332 10.4781C69.1239 10.8057 68.5629 11.2766 70.1988 11.0391L72.7539 11.4465H69.1772C69.1342 11.4465 68.9417 11.1394 68.8721 11.2418C69.2242 12.8469 67.355 12.7773 67.8771 14.3865C67.9979 14.7591 68.3439 14.6383 68.4606 14.7161C68.393 14.6486 68.4299 13.9381 68.653 13.7846C69.0891 13.4816 72.2052 13.7068 72.8276 13.934C73.1122 14.0385 73.104 14.4029 73.2043 14.4643C73.5176 14.6609 74.1809 14.278 74.183 14.7141C73.4725 14.45 72.758 15.0806 72.2523 15.099C71.9595 15.1092 71.591 14.9004 71.2266 14.9065C70.6676 14.9168 69.5313 15.2403 69.2775 14.7161H72.6495C72.6986 14.7161 72.9812 14.4971 72.8563 14.3067C72.5881 13.8992 70.2684 14.3742 69.689 14.5114L69.992 13.8951C69.3839 13.9115 67.9139 14.1531 69.0768 14.6138C69.0625 14.7919 68.4831 14.7387 68.4606 14.7161L68.4647 14.7202Z" fill="white"/>
<path d="M63.1518 10.0192C63.5838 11.5629 62.2202 12.3184 62.5417 13.7659C62.5765 13.9194 62.8529 13.9256 62.8734 13.9604C63.42 14.937 61.7739 14.3801 61.2007 14.4272C60.8137 14.4579 60.3428 14.7384 59.7962 14.6933C59.0612 14.6319 58.664 14.0955 59.3785 14.1037C60.0173 14.1119 60.6479 14.2368 61.3153 14.1037C61.2887 13.9379 61.3542 13.5366 61.3133 13.4915C61.2211 13.3953 59.0919 13.899 58.6578 13.6922L60.4554 13.3523C60.7072 13.2418 60.7707 12.4228 61.4074 13.3032C61.6531 13.643 61.26 14.0628 62.1302 13.899C62.0995 13.4874 62.2202 12.9817 62.0974 12.5948C62.0155 12.3409 61.3174 12.1874 61.2252 11.4708C61.2007 11.2845 61.2641 10.0663 61.3133 10.0131C61.3788 9.94141 62.8324 10.0643 63.1538 10.0131L63.1518 10.0192ZM62.9143 10.4594C62.3185 9.46028 59.9907 11.3725 62.9471 11.2435C62.9143 11.006 63.0249 10.6437 62.9143 10.4594Z" fill="white"/>
<path d="M70.7107 16.358C70.5776 17.2425 69.1567 17.8035 68.3603 17.8055C67.9488 17.8055 67.4021 17.5291 67.1667 17.568C66.9886 17.5967 66.9763 17.9816 66.8186 18.0737C65.3056 18.952 63.8274 19.0401 62.1302 18.6019L64.0956 18.0164C64.8306 17.8649 65.8072 18.1433 66.4952 17.9632C66.7634 17.8935 66.9005 17.7236 66.6241 17.48C66.143 17.0562 65.4571 17.3858 65.1951 16.9702C66.7756 16.8801 69.2161 18.0717 70.3033 16.5607C69.5314 16.5198 68.7411 16.6201 67.9693 16.5423C67.5025 16.4952 66.9497 16.0919 66.5463 16.139C66.4911 16.1451 66.2474 16.8862 65.6025 16.5566C66.5095 15.2381 67.5454 16.1512 68.7902 16.3335C69.4167 16.4256 70.0801 16.3171 70.7086 16.356L70.7107 16.358Z" fill="white"/>
<path d="M79.9095 12.4741C78.3146 13.6002 76.3368 14.2799 74.5925 15.2278C73.0958 16.0406 71.7343 17.2506 70.1005 17.785C73.0835 15.5513 76.431 13.7988 79.9115 12.4741H79.9095Z" fill="white"/>
<path d="M74.3918 12.2674C74.3509 12.2981 74.5085 13.156 73.7838 12.3698C74.2342 11.6143 77.8724 11.776 78.0607 12.077C78.6319 12.9901 76.0523 13.1416 75.5056 13.0945C75.0572 13.0556 74.5515 13.1273 74.5986 12.4701C75.5916 13.375 75.5957 12.5029 75.7533 12.4681C76.2857 12.3473 77.3237 12.8693 77.6615 12.2654C77.1435 12.3698 74.5822 12.1261 74.3918 12.2654V12.2674Z" fill="white"/>
<path d="M52.6243 21.4665C52.4769 21.4767 52.2148 21.7941 51.9097 21.6692C51.3692 21.2413 56.5163 20.4387 56.5081 21.6692C56.9565 21.4972 56.6596 20.8994 56.4078 20.7478C55.9226 20.453 55.0361 20.926 54.772 20.4448C55.5459 20.6209 55.9922 20.0169 56.7088 20.0108C57.1141 20.0067 58.0477 20.2258 58.2443 20.6455L56.6105 20.4448C57.6628 21.5975 57.0609 21.188 56.6699 21.7265C56.4876 21.9783 56.504 22.353 56.2706 22.5045C56.0249 22.6642 55.0176 22.8546 54.6655 22.8935L52.9314 22.6928C53.6398 22.3427 56.0311 22.785 56.199 21.9722C56.2747 21.7981 55.9553 21.4644 55.8939 21.4644C54.8354 21.4644 53.6602 21.3887 52.6243 21.4644V21.4665Z" fill="white"/>
<path d="M53.7503 75.6312C53.5312 75.3897 55.1384 73.9074 55.38 73.6862C56.2501 72.896 60.091 70.3757 59.8965 69.2189C59.8739 69.0899 59.3826 68.9384 59.1738 68.6743C57.7815 66.9136 57.4785 61.7399 56.9176 59.2769C55.0545 51.11 52.5116 42.7813 50.2145 34.7085C49.7866 33.2037 48.9963 31.7992 48.8448 30.2576L51.8053 38.0253C53.6684 43.8152 54.3502 50.0105 56.418 55.692C59.7634 57.1435 60.4431 60.2228 61.0164 63.562C62.1015 69.8966 58.5514 72.5131 53.7503 75.6333V75.6312ZM58.5841 57.7127C58.2954 57.4199 57.0445 56.601 56.6105 56.7238C57.1837 58.0382 57.8819 59.6884 58.1828 61.0786C58.7479 63.6767 58.0682 66.7682 60.0807 68.8872C60.3407 65.7322 61.0696 60.2269 58.5841 57.7148V57.7127Z" fill="white"/>
<path d="M5.51031 49.2655L1.33165 52.1359L0.604832 52.3304C0.0499963 52.8811 4.69342 53.3418 4.94729 53.4012C6.23099 53.7021 7.32223 54.2467 8.73696 54.517C12.3014 55.1926 16.8077 55.7843 20.3128 54.7667C21.3835 54.4555 22.5198 52.5986 22.7901 51.5196C23.2753 49.5849 22.8146 48.5223 22.6816 46.7042C22.6652 46.477 22.5178 45.7543 22.8822 45.7891C23.1504 48.3339 23.9673 51.0528 22.3601 53.3377C22.1226 53.6735 20.9126 54.8998 20.5851 55.037C19.9954 55.2827 19.4692 55.0984 18.9472 55.2397C18.2081 55.4383 17.3543 55.8969 16.6336 55.9911C13.6527 56.3862 8.70216 54.7053 5.5574 54.2242C4.67499 54.0891 -0.238682 54.0809 0.00904904 52.6641C0.0929909 52.183 4.54191 49.116 5.51031 49.2655Z" fill="white"/>
<path d="M30.0378 22.2811L28.8073 22.1583L27.1776 23.3027L29.1164 23.3068L31.8783 23.9149C30.7032 24.1483 29.5894 23.6283 28.5063 23.5484C27.8368 23.4993 26.6903 24.308 26.8725 22.8953C24.5406 23.6672 22.2701 24.7973 19.8214 25.1392L25.5438 23.096C24.7678 21.5645 25.6687 17.8629 23.9858 16.9907C23.8363 16.9129 22.4543 16.4379 22.3704 16.4338C22.2701 16.4297 20.5503 16.829 20.409 16.8802C19.805 17.1033 19.326 18.0287 18.595 17.6827C19.8132 16.0244 24.3113 15.5289 25.1507 17.6664L25.5418 20.4405C25.5643 19.4987 25.683 16.7266 24.7228 16.2557C24.4096 16.1022 23.9919 16.182 23.7012 16.051C23.0808 15.7725 22.6816 15.1809 21.8667 15.3283C21.8524 14.9413 22.7594 15.1112 22.9477 15.1686C23.2139 15.2505 23.3879 15.5924 23.65 15.6927C24.5856 16.0571 25.4148 15.8483 25.8018 17.0235C26.0475 17.7749 25.6789 19.0831 25.7772 20.1068C25.8243 20.5941 26.2031 22.3732 26.5675 22.6005C27.759 22.8134 29.2168 20.8991 30.0439 22.275L30.0378 22.2811Z" fill="white"/>
<path d="M21.4532 14.927C21.4695 14.9413 21.531 15.359 21.3549 15.3324C20.7141 14.8164 20.8942 15.4655 20.6281 15.6251C19.8501 16.1001 19.6945 16.2946 19.0762 16.7389C18.5418 17.1218 17.4219 17.1893 17.2049 17.9325C16.8015 19.3227 17.557 20.6187 17.9829 21.8737C18.3432 21.9269 18.1835 21.413 18.1385 21.2083C17.9092 20.1662 16.4801 18.557 18.1856 17.9939C17.0452 19.3452 18.595 20.7702 18.7813 22.1992C18.9369 23.3826 18.7035 24.7564 18.7998 25.9623L19.414 25.6572C18.0238 28.3597 17.7679 31.2322 17.0616 34.1374C16.7442 33.6624 16.9182 32.565 16.9838 32.0163C17.3994 28.5624 18.7015 25.5835 17.6328 21.9146C17.2192 20.4938 16.5006 20.1723 16.8466 18.387C17.1475 16.829 17.8314 17.3224 18.6994 16.5628C18.9574 16.3376 19.0659 15.8974 19.2973 15.7296C19.5286 15.5617 21.2894 14.7816 21.4552 14.925L21.4532 14.927ZM18.1835 27.1887C18.9677 26.6011 18.0197 25.1781 18.593 24.2261L18.1835 22.6926V27.1887Z" fill="white"/>
<path d="M16.345 48.8536C16.6562 47.7665 16.863 46.7305 16.7524 45.582C14.1134 45.5001 11.7323 47.7931 9.23858 48.1883C9.02156 48.2231 8.52815 48.4053 8.57729 48.0368C9.87736 47.6273 11.0259 46.9005 12.3547 46.3948C13.8288 45.8338 15.307 45.4182 16.8691 45.1848C17.4076 44.417 16.4555 38.3814 16.5415 36.8848C16.5579 36.592 16.5559 35.8283 16.9571 35.771C16.2385 39.9497 19.2072 45.1254 16.347 48.8516L16.345 48.8536Z" fill="white"/>
<path d="M21.8606 43.5386C21.5269 43.3974 21.2832 42.6009 21.187 42.2733C20.9434 41.436 20.8 40.398 20.6649 39.5258C20.1224 36.0412 20.0794 32.3498 19.8194 28.8242L21.015 36.1087L21.8606 43.5386Z" fill="white"/>
<path d="M47.6143 44.5626L47.2069 41.3954C47.6205 37.9681 47.2519 34.463 47.8805 31.0316L48.4312 29.2361C47.9481 30.7573 48.4619 32.1945 48.4476 33.6318C48.4251 36.0804 47.8027 38.9242 47.6184 41.3974C47.5406 42.4395 47.6717 43.5185 47.6143 44.5626Z" fill="white"/>
<path d="M44.5495 29.439C44.5965 29.8054 44.0908 29.6376 43.8615 29.6171C38.7964 29.1585 33.8069 28.4358 28.7704 27.7417L24.1127 26.7815C28.9178 26.9801 33.592 28.1839 38.3418 28.7981C40.4035 29.0643 42.5103 28.9886 44.5495 29.439Z" fill="white"/>
<path d="M45.1616 46.606C44.8054 46.6551 44.9692 46.1412 44.9589 45.8935C44.8361 42.7364 45.61 38.7216 46.0051 35.4929C46.042 35.196 46.1116 34.2542 46.388 34.1416C46.7709 38.4533 45.7267 42.413 45.1616 46.608V46.606Z" fill="white"/>
<path d="M38.8271 61.1215C38.2988 61.9015 36.6302 64.1352 36.8227 65.0565C37.2055 66.8909 41.5071 68.8482 42.5062 70.5209C41.374 70.0152 40.164 69.4092 39.2345 68.5841C38.8148 68.2115 36.579 65.5765 36.4664 65.2203C36.2801 64.6286 36.317 64.0001 36.534 63.4268C36.6732 63.0624 38.5036 60.8062 38.8271 61.1235V61.1215Z" fill="white"/>
<path d="M50.4786 71.1331C50.2575 70.9079 50.7755 70.566 50.9065 70.439C51.6988 69.6631 53.0214 68.9915 53.7482 68.1706C55.2633 66.461 54.8641 63.6684 57.0179 62.5505C57.1551 62.702 56.1109 64.0922 55.9594 64.4546C55.3779 65.8407 55.5417 67.2267 54.4525 68.4674C54.1168 68.8237 50.6485 71.3051 50.4807 71.1351L50.4786 71.1331Z" fill="white"/>
<path d="M48.8244 73.3667L49.3526 72.1567C50.1429 72.6644 49.932 73.6656 50.4725 74.3064C50.8717 74.7794 52.5076 75.7969 53.132 76.0405C53.1689 76.448 52.5403 76.1634 52.354 76.102C50.9065 75.6331 49.4816 74.6647 49.6576 72.9715C49.0107 72.7996 49.2605 73.6431 48.8448 73.8949C47.9501 74.4375 44.3959 72.4433 43.7326 71.5425C44.3632 71.7124 44.8074 72.1383 45.4605 72.3676C46.5375 72.7484 47.7495 72.9449 48.8264 73.3646L48.8244 73.3667Z" fill="white"/>
<path d="M49.2522 61.7317C50.0384 57.9707 47.9276 54.4185 47.8211 50.6964C48.116 50.6493 48.1057 51.0567 48.1651 51.2676C48.8407 53.6712 50.2186 58.4743 49.8501 60.8001C49.7948 61.1543 49.6331 61.6129 49.2522 61.7317Z" fill="white"/>
<path d="M40.8703 66.2259C41.9452 65.3844 42.5246 64.1826 43.5258 63.2613C44.7726 62.1168 46.5272 61.0604 47.8191 59.8914C47.3339 61.6541 45.3049 62.4976 44.0437 63.5746C43.0405 64.4324 42.1417 65.9434 40.8703 66.2259Z" fill="white"/>
<path d="M39.4413 60.5052L39.644 59.0761C38.7124 59.0126 37.6785 59.2071 36.7674 58.9881C36.102 58.8284 35.8277 58.292 35.3629 58.1425C34.7569 57.948 34.1243 58.1241 33.4548 57.8026C33.0269 57.5959 32.7484 57.0472 32.2898 56.9079C31.6121 56.7032 30.9386 57.1966 30.0132 56.9407C29.6098 56.8301 29.6303 56.4473 29.3785 56.3531C28.7909 56.132 28.1808 56.2815 27.5747 56.1197C26.9032 55.9416 26.2603 55.1615 25.6871 54.9425C25.1138 54.7234 24.1945 54.9118 23.9038 54.3774C24.7228 54.3713 25.7035 54.4982 26.4712 54.7725C27.4355 55.1165 29.3457 56.3941 30.181 56.5824C31.0164 56.7708 31.8455 56.4964 32.6993 56.7216C33.076 56.8199 34.9125 57.6122 35.4673 57.8354C36.4603 58.2346 36.6159 58.9185 38.1084 58.8898C38.6162 58.8796 39.2693 58.5417 39.7136 58.6892C40.3339 58.8939 40.1476 60.3414 39.4392 60.5093L39.4413 60.5052Z" fill="white"/>
<path d="M19.6105 50.6923L18.7977 43.1314C19.0987 43.0802 19.0536 43.5142 19.1028 43.7394C19.6064 46.012 20.4868 48.4136 19.6105 50.6902V50.6923Z" fill="white"/>
<path d="M47.6144 62.3459C47.815 62.5895 46.0174 67.6465 45.7799 68.3774C45.6591 68.748 45.5281 69.5424 45.1637 69.7C45.7799 67.5073 45.9621 64.6819 47.1066 62.7472C47.1721 62.6345 47.297 61.961 47.6144 62.3438V62.3459Z" fill="white"/>
<path d="M31.4668 52.7415C31.1249 53.3086 30.1237 52.5286 29.6385 52.4221C28.2135 52.1089 26.8786 52.1396 25.5315 51.4107C25.4025 51.3411 24.7637 51.2081 25.1343 50.8989C25.3882 50.688 30.7134 52.414 31.4668 52.7395V52.7415Z" fill="white"/>
<path d="M41.417 57.5737C41.3371 57.6556 40.7475 58.0957 40.8744 57.545L42.7478 54.1034L43.5258 51.9209C43.3743 53.6223 42.6372 56.3289 41.417 57.5737Z" fill="white"/>
<path d="M17.3646 51.7183C17.5427 51.8861 17.1352 52.3202 16.8937 52.3693L12.6638 54.1669C12.846 53.3746 17.168 51.534 17.3646 51.7162V51.7183Z" fill="white"/>
<path d="M58.6537 48.4485C58.32 48.8416 58.4817 49.9431 58.9792 50.0495C59.0673 50.0679 60.1626 49.6585 59.6712 50.2829C59.6569 50.3014 59.3826 50.2072 59.2761 50.4365C59.1696 50.6658 59.2188 51.0445 59.0448 51.3905C58.7008 52.0723 58.1623 53.0039 57.6341 53.5567C57.8634 52.4204 58.8666 51.6526 58.6455 50.4037C58.5595 49.9144 57.4273 48.5734 58.6537 48.4485Z" fill="white"/>
<path d="M31.6736 14.3145C29.8166 16.3311 32.7137 18.4911 32.0831 20.8537H32.6952C32.4475 19.0295 32.0217 17.4183 31.2662 15.7435L32.3267 17.236C32.943 18.1246 32.6891 19.5025 32.8959 20.3132C32.9266 20.4361 33.7885 20.4647 32.8836 20.9397C32.5253 21.1281 31.7903 21.0052 31.8783 21.6706C33.0433 21.6133 34.3372 22.2746 35.4653 22.291C36.1491 22.3012 37.2424 22.0289 37.9897 21.9552C38.3071 21.9245 38.6572 21.687 38.217 22.1825C35.8502 23.2062 33.4139 22.2111 31.0614 21.6706C30.9038 22.2316 31.5794 22.1763 31.6716 22.2869C32.3636 23.1058 30.3039 22.2521 30.2445 22.076C30.4165 21.6092 31.258 21.5601 31.5815 21.2714C33.1006 19.9181 28.5145 15.0228 31.6736 14.3145Z" fill="white"/>
<path d="M36.7244 13.5551C37.4656 14.1714 37.2772 15.9956 37.4205 16.8432C37.5474 17.5946 37.8218 18.2723 37.9672 18.9643C38.0183 19.2018 37.7931 19.56 37.8341 19.6092C37.9057 19.6993 38.3009 19.4802 38.2128 19.8283C36.8411 20.2009 37.2792 19.0114 36.3764 18.8087C36.4828 20.2705 35.2073 19.7812 34.1284 20.033C34.3167 19.4454 35.3998 19.7771 35.7703 19.5314C36.1041 19.3103 36.0119 18.0245 36.9885 18.606C37.1093 18.4422 36.6241 14.9658 36.4296 14.5645C36.1511 13.9871 35.1827 14.0199 34.6197 13.6943L32.0851 14.6198C32.3656 14.4068 32.6113 13.9585 32.9102 13.811C33.0105 13.7619 34.3699 13.2931 34.4498 13.2849C34.9985 13.2316 35.885 14.2041 36.579 14.1059L36.016 13.5469L34.1284 12.4741C34.6689 12.6092 36.3927 13.2767 36.7265 13.5531L36.7244 13.5551Z" fill="white"/>
<path d="M39.7606 20.127C40.7352 20.8416 42.0127 20.5611 41.6893 22.1805C41.5173 23.0363 40.6042 22.5552 40.4629 22.6944C40.3749 22.7804 40.5571 24.7049 39.2345 24.5309C39.8937 24.1419 39.9265 22.977 40.1476 22.6883C40.4547 22.2891 41.6442 22.7497 41.2757 21.2633L39.6419 21.6687L40.6635 21.2592L39.2345 20.1352C39.1403 19.5681 39.5928 20.0062 39.7586 20.127H39.7606Z" fill="white"/>
<path d="M34.1161 24.3407C34.5706 24.8874 33.4609 25.1044 33.1825 25.348C32.8836 25.608 33.2644 26.1608 32.7996 25.9622C32.036 25.6346 33.4486 24.9406 33.3074 24.742C32.298 24.5004 31.7841 23.2556 31.8783 22.2852C32.4741 22.7847 32.6399 23.5177 33.2971 24.0357C33.6227 24.2936 34.0874 24.308 34.1161 24.3407Z" fill="white"/>
<path d="M38.2129 26.3713L36.4788 26.7951L34.286 26.5167L34.4314 26.3713H38.2129Z" fill="white"/>
<path d="M65.3978 5.32069L64.9944 6.03522L65.8052 5.93081C65.6905 7.24931 66.4051 5.91443 67.2363 5.93081L67.441 6.54501L67.5454 5.52133C67.8116 5.52133 67.3509 6.47131 68.0552 5.92876C67.9672 6.52249 68.0757 6.6351 68.6694 6.54501L68.3623 7.15308C67.9611 6.60644 67.5864 6.76818 67.0357 6.95449L67.4431 7.2575C66.2618 7.87375 66.4931 9.03051 67.8505 9.1984C68.0184 8.45111 66.7715 8.81964 67.0357 8.28118C67.179 7.98841 68.0102 8.00888 67.6499 6.95244L67.8546 7.76729C68.1269 7.88194 68.0593 6.92173 68.4627 7.35987C68.5057 7.40695 68.909 8.52891 68.8721 8.58009C68.8537 8.60466 68.5036 8.61899 68.3562 8.78074C67.8792 9.29872 68.0041 9.75733 66.878 9.26801C66.5463 9.12469 66.534 8.70294 66.3191 8.58828C65.9342 8.38355 66.0324 9.37857 65.6086 8.99571C65.5575 8.94862 65.3404 8.0355 65.4019 7.97612L66.4214 8.17881L66.2188 6.95449C65.1603 6.71699 65.9403 7.44585 65.4039 7.76934C65.3589 7.57484 65.5308 7.20836 65.2933 7.21041C64.8429 7.21655 64.9617 7.09576 64.5829 6.84802C64.5072 6.36075 64.9392 6.6351 64.9576 6.45084C64.9637 6.39351 64.9699 5.58685 64.9453 5.54795C64.9289 5.52543 64.1939 5.48653 64.585 5.11186C64.6157 5.0832 65.1521 5.41692 65.3998 5.31864L65.3978 5.32069Z" fill="white"/>
<path d="M63.3565 5.11341L63.7619 3.88908C63.94 5.09293 63.3095 6.10638 63.9687 7.15667C63.3791 7.27337 63.0003 7.25904 63.1539 7.97767C63.203 8.04523 64.372 6.88028 63.3565 8.38509C64.5563 8.00428 65.3916 8.19469 64.9883 9.61146C64.6443 9.65855 64.7283 9.02797 64.4805 9.0034C64.3393 8.98907 63.7271 9.68107 63.461 9.61351C63.1948 9.54595 63.2337 9.00135 63.0904 8.85599C63.0535 8.81709 62.3943 8.33596 62.2612 8.24178C62.0462 8.08822 61.3931 8.30115 61.8251 7.77088L62.7403 7.97767C62.8427 7.15667 62.1609 6.29064 63.1477 6.13913L63.3524 6.95603L63.1518 2.8695C63.508 2.82241 63.3443 3.33425 63.3545 3.58198C63.377 4.09177 63.3381 4.60771 63.3565 5.11545V5.11341Z" fill="white"/>
<path d="M65.6025 9.20236C65.3773 10.1953 65.021 10.9897 65.1971 12.0625L65.6025 10.4287C65.7458 11.1699 65.4182 12.5314 65.5922 13.164C65.6209 13.2725 67.3775 13.6226 66.8309 14.3105C66.5606 14.6504 66.2433 13.5878 65.6987 13.4936C65.0743 13.3872 64.5624 13.6759 63.9707 13.6963C64.0199 13.1415 65.1316 13.1476 65.1971 13.0821C65.3261 12.9593 64.3085 11.2579 65.1295 9.63845C65.2749 9.35387 65.0333 9.08976 65.6025 9.20236Z" fill="white"/>
<path d="M66.8289 1.23193L67.0316 5.72589L66.8268 4.90899L66.2188 5.52115C66.1758 4.19242 66.2331 2.85139 66.4255 1.53698C66.4788 1.18074 66.3191 1.19303 66.8289 1.22988V1.23193Z" fill="white"/>
<path d="M65.193 4.90895L64.7917 0.932973L65.3957 -0.199219C65.4837 0.31467 65.5902 0.793753 65.6127 1.32197C65.625 1.60451 65.7622 2.59543 65.4018 2.6589L65.1951 0.820368V4.90895H65.193Z" fill="white"/>
<path d="M62.1281 2.35417C62.1445 2.20062 62.7955 0.343663 62.7464 1.33459L62.1281 5.72618C62.2161 4.64722 62.0073 3.41061 62.1281 2.35417Z" fill="white"/>
<path d="M78.2757 11.4504H73.5749V11.6552H78.2757V11.4504Z" fill="white"/>
<path d="M48.8407 12.4722C48.5971 13.4344 49.1294 18.4218 48.595 18.7699C48.4312 18.8763 48.034 18.7699 47.8232 18.9091C46.7217 19.6482 48.8714 19.8263 49.0454 19.6257C49.0987 19.5642 48.9902 19.165 49.0516 18.9644C49.113 18.7637 49.4467 18.8129 49.4651 18.6798C49.502 18.4136 49.2481 17.9038 49.242 17.4903C49.2236 16.1431 49.1969 14.7366 49.2522 13.3914C49.2625 13.1437 49.0987 12.6319 49.4549 12.679C49.7886 13.5204 49.4549 18.3931 49.6822 18.5856C49.8357 18.7187 51.0211 18.4157 51.5064 18.907C52.0571 19.466 51.2525 20.5347 51.8196 20.6452C52.2352 20.7251 53.5332 20.201 54.1577 20.4466L51.9117 20.9564C51.4449 20.9298 51.0375 21.8307 51.3999 21.8757C51.8585 22.019 53.2896 21.4867 53.1361 22.2831C52.7184 22.1767 52.1861 22.4817 51.838 22.4285C51.5698 22.3875 51.1358 21.7365 50.7775 22.279C50.6342 22.4961 50.6158 24.2507 50.6895 24.3203C50.7898 24.4165 51.7091 24.1442 51.7091 24.8423C51.7091 25.735 49.4897 25.8005 49.0454 25.043C49.8685 25.0594 50.7345 25.561 51.4941 24.8403C51.0989 24.0787 50.3394 24.9979 50.2738 24.9406C50.0875 24.7768 50.6199 24.4124 49.2502 24.7359C49.2133 24.3551 49.9278 24.4759 50.0384 24.2998C50.1019 24.1995 50.1223 22.6373 50.0712 22.4285C50.0261 22.2422 49.4856 22.1296 49.2686 21.7549C48.7301 20.8172 49.4058 19.7485 47.6143 19.8324C47.5324 20.5122 47.3912 23.5197 47.0042 23.8228C46.4555 24.2527 43.9782 24.2936 43.4111 23.7265C42.6003 22.9137 43.495 19.6666 43.3026 19.4393C42.4836 18.9173 41.0505 19.8058 40.8683 18.9111C40.6553 17.8649 41.1119 18.344 41.7302 18.1475C43.4213 17.607 42.3587 15.6742 42.9136 14.3168C43.2678 14.2677 43.106 14.7816 43.1142 15.0273C43.1326 15.5719 42.7969 18.7821 43.968 17.1094C44.836 15.8687 44.3344 15.5739 44.5453 14.4172C44.6886 13.633 46.0051 13.9545 46.1566 14.1326C46.2692 14.2636 46.0808 16.4686 46.4064 16.745C46.5784 16.8904 48.034 16.6897 48.4292 16.7675C48.1323 16.1636 48.7916 12.812 48.636 12.679C48.5254 12.5848 47.9562 12.8775 48.0217 12.4763H48.8366L48.8407 12.4722ZM45.7758 14.5154C45.7226 14.4663 45.1575 14.5502 44.9609 14.5154C45.4318 16.1656 43.7469 17.4125 43.5421 18.7187C43.4172 19.5233 43.4295 22.881 43.9373 23.4092C44.3488 23.8391 46.8507 24.0377 47.0022 23.2024C47.1905 22.1726 47.4014 18.4095 46.953 17.6315C46.8527 17.4555 45.9826 17.1832 45.8188 16.6201C45.6939 16.1943 45.8536 14.5912 45.7758 14.5154ZM43.3108 18.2089C43.2616 18.1577 42.5983 18.1577 42.3997 18.084L41.0771 18.7023L43.323 19.0114C43.2882 18.8047 43.3886 18.2908 43.3108 18.2089ZM51.2873 20.4344C51.3774 20.3443 51.2484 19.4803 51.2934 19.2162C50.5461 19.7198 49.4467 18.9398 49.2788 19.9676C49.1949 20.6862 51.1665 20.5552 51.2873 20.4344Z" fill="white"/>
<path d="M48.636 11.8602L48.6401 11.2481C48.8305 11.1641 49.0434 11.7272 49.0414 11.7599C49.0291 12.0117 48.1037 12.0363 47.7229 12.4785C47.428 12.8205 47.2335 13.449 47.2049 13.9035C46.822 13.9711 47.1148 13.5166 46.9633 13.3364C46.9121 13.275 46.1689 12.7508 45.7881 12.3618C45.3725 11.936 44.789 12.0875 45.1637 11.2481C44.1236 10.9963 43.7448 11.805 42.9136 12.0629C43.2801 11.6698 43.9004 10.9287 44.2853 10.6236C44.4655 10.4803 44.9364 10.4557 44.9569 10.4271C44.9937 10.3759 44.6068 9.58766 44.9569 9.20481C45.2619 9.19048 45.2353 9.98076 45.2619 10.2305C45.3295 10.8263 44.92 10.7547 45.7697 11.0413C45.7103 10.3022 45.4953 9.65113 45.9765 9.00007L44.8484 9.19867L44.748 8.79329C45.3602 9.14134 45.6264 8.26507 45.87 8.38586C46.4924 8.69501 45.7922 9.79035 46.5866 9.61018C46.4863 7.56282 47.0841 5.18788 46.8036 3.16304C46.7258 2.60001 46.2549 2.2581 46.3859 1.64185C46.6828 1.7954 46.9715 2.66553 47.0063 2.96035C47.1476 4.12939 47.0943 8.65816 46.7586 9.68184C46.6296 10.0729 45.9601 10.034 45.9949 10.4967C46.1136 12.0261 48.0341 10.8079 48.6298 11.8602H48.636Z" fill="white"/>
<path d="M52.1124 11.4506C51.92 12.245 53.1013 11.6861 53.3388 11.8621C52.5239 14.1409 51.271 13.4038 50.3742 11.6594L50.2718 12.677C49.1929 13.2011 49.9156 11.3646 50.0794 11.2479C50.1715 11.1804 50.9598 11.6902 51.0887 11.1415C51.2034 10.6521 50.3722 10.5805 50.0671 10.6317C49.8173 10.1137 50.6772 10.1424 50.6772 9.91714C50.6772 9.50562 48.7077 8.87299 49.457 9.61004C49.5307 9.68374 49.9443 9.44625 49.8624 9.81273L49.2482 10.2222L49.0434 9.60799C48.7384 9.74926 47.7167 9.96218 47.6164 9.50562C47.4813 8.88732 48.591 9.04087 48.6401 8.99583C48.7158 8.92827 48.4395 7.25352 48.4333 6.95461L49.4529 7.15525C48.8571 5.70776 49.6863 1.90376 49.1499 0.816612C49.1028 0.722433 48.8837 0.558644 48.8428 0.61597L49.0537 3.58874L48.638 6.33835C48.4313 5.34947 48.8489 4.27461 48.8571 3.37582C48.8674 2.27024 48.3739 1.04592 48.8428 -0.200928C49.1253 -0.180454 49.4119 0.532028 49.4427 0.728575C49.6658 2.22929 49.5757 4.74141 49.6658 6.43458C49.7518 8.03971 49.1519 7.07745 48.8489 7.36817C48.6012 7.60772 48.8448 8.8607 49.0475 9.19852L49.4549 7.97419C50.3189 8.52289 48.9881 8.99378 50.4725 9.20057C49.9565 8.16665 50.6486 8.26287 50.6956 7.88821C50.925 6.10905 50.7284 4.12106 50.9065 2.37875C50.927 2.17197 50.9884 1.41854 51.2873 1.43696L51.4921 2.4586L51.0846 2.25181V5.31876L51.4921 3.07076C51.4102 3.87742 51.6108 4.85606 51.5044 5.63406C51.3488 6.77035 50.6997 7.87797 50.7284 9.35207C50.7345 9.69808 51.0785 9.78202 51.0908 10.1198C51.099 10.3573 50.5892 10.0523 50.6793 10.4269C51.7009 10.6767 51.0437 9.85367 51.4122 9.58752C52.0428 9.13095 53.0296 9.37459 53.7442 9.4094L53.5374 10.429C53.1095 10.4761 53.4432 9.71855 53.3367 9.61004C53.2815 9.55476 52.5383 9.64894 52.3151 9.61413C52.223 9.95809 52.7164 9.70831 52.743 9.93762C52.7717 10.1833 52.4953 10.5518 52.5239 10.7279C52.6284 11.3462 53.4739 10.517 53.3347 11.1435L52.1104 11.4527C52.2537 11.1722 52.5895 10.1464 52.1124 10.0236C52.223 10.6153 51.7111 10.1997 51.5985 10.4126C51.4777 10.6419 51.5023 10.9674 51.3795 11.2336C51.2689 11.4711 50.8431 11.6308 50.8942 11.9358C51.0028 12.5726 52.9825 13.672 52.5178 12.0669H51.6989C51.5453 11.6308 52.0449 11.5735 52.1063 11.4527L52.1124 11.4506Z" fill="white"/>
<path d="M52.7246 8.58847L52.3089 5.02196L52.3192 3.88977L52.7246 4.70462C52.6652 4.24397 52.829 3.6318 52.7246 3.208C52.6959 3.09539 51.9404 2.96027 52.6242 2.04714C53.3162 2.03281 52.4666 8.00907 52.7246 8.58847Z" fill="white"/>
<path d="M47.209 14.925L47.6144 14.3128C47.4076 14.8594 48.1876 16.2332 47.512 16.5588C47.1496 16.7328 47.0534 16.0408 47.0247 15.8278C46.949 15.2607 47.0268 14.6772 47.0063 14.1101L47.211 14.925H47.209Z" fill="white"/>
<path d="M45.1636 2.66064H44.9589V8.38303H45.1636V2.66064Z" fill="white"/>
<path d="M53.5435 14.1101C52.8412 14.8697 51.4777 15.2812 50.4786 15.5371C51.2873 14.8205 52.5423 14.4745 53.5435 14.1101Z" fill="white"/>
<path d="M74.7992 14.3108C74.445 14.6261 74.3877 13.9689 74.2403 13.9136L72.5533 13.496C73.188 13.5758 74.0868 13.3568 74.6703 13.5205C75.092 13.6393 74.8873 14.231 74.7992 14.3088V14.3108Z" fill="white"/>
<path d="M44.142 19.0134L46.8118 19.3431L46.5927 22.6905C45.6939 22.6946 44.7951 22.7806 43.9353 22.4858C43.9291 22.3465 44.142 22.2319 44.142 22.1827V19.0155V19.0134Z" fill="white"/>
<path d="M83.1791 16.5586L82.7696 15.9464C82.2455 16.0651 82.5751 16.5524 82.481 16.9639L81.7521 20.4424L82.1575 16.9701L81.7501 17.6826C81.4655 18.0081 81.531 17.4819 81.5863 17.3181C81.705 16.9701 81.9855 16.3804 82.1861 16.0754C82.6898 15.3076 83.4698 15.7089 82.612 14.159C82.2169 13.4445 82.1083 15.0067 82.0551 15.1295C80.3742 19.1198 80.2739 21.6504 79.1949 25.5547C78.8612 26.7647 78.1938 27.9317 77.8744 29.1396L76.8446 29.2317C76.8159 28.8325 77.3892 29.1335 77.6717 28.939C78.0853 28.6564 78.1078 26.1546 78.677 25.655L77.6615 25.1473C77.9461 25.0858 78.7241 25.2496 78.8674 25.1247C79.0516 24.965 79.6658 21.0464 79.7047 20.4445L77.8662 20.6492V19.8323C78.1917 20.2459 79.6802 20.4752 79.932 20.1189C80.8697 18.7922 80.6342 15.6987 80.9332 14.1099L81.3365 15.7417C81.228 15.2257 82.0715 14.2287 82.0858 14.0055C82.1104 13.6513 81.4491 13.1333 81.5453 12.6768C83.0174 13.7189 83.5456 14.7651 83.1771 16.5586H83.1791Z" fill="white"/>
<path d="M78.4804 22.6906C77.6901 22.1767 77.4014 23.6017 77.4813 23.6979C77.557 23.788 77.9481 23.5608 77.8642 23.917C77.7188 23.8986 77.5059 23.8801 77.4567 24.0562C77.0513 25.5037 76.8773 27.7333 76.5886 29.2831C76.5067 29.7213 75.8332 30.9558 76.2713 31.2404C76.4453 31.353 76.8241 31.2588 77.2684 31.568C78.7118 32.5773 77.8457 35.0055 77.856 36.4939C77.8641 37.8391 78.2961 39.4974 78.2757 40.8814C78.7568 40.9101 78.634 40.947 78.6831 40.5784C78.81 39.61 78.5459 38.6642 78.462 37.7142L79.2953 31.6847C79.2338 32.7821 79.3894 33.9655 79.2953 35.0526C79.2093 36.0169 78.7302 37.2801 78.7056 38.1441C78.6933 38.6027 79.2707 41.2213 78.7609 41.3012C78.5132 41.252 77.9317 41.2131 77.8642 40.9429C77.7106 40.3164 77.4444 38.1564 77.4424 37.5094C77.4363 36.2421 77.8212 34.8458 77.6656 33.4209C77.6185 32.9889 77.3011 31.4349 76.6378 31.7789C75.0142 32.6224 76.431 35.8797 76.0277 37.405L75.6223 35.0547C76.0318 33.3615 74.9896 33.7669 74.8013 33.5212C74.7706 33.4802 75.1391 32.7841 75.006 32.5016L73.5749 33.6235L75.3152 31.6847C75.7062 32.0286 75.0777 33.3472 75.2149 33.5232L75.522 33.3226L77.4629 22.0764L78.4825 22.6886L78.4804 22.6906Z" fill="white"/>
<path d="M80.1142 31.5842C80.1244 31.4838 80.3271 30.452 80.5216 30.4602C80.3763 32.6938 80.6199 34.7105 80.9372 36.8971C80.9884 37.2554 80.8328 37.241 81.3406 37.2021C81.5105 35.8918 80.8779 34.7084 80.7714 33.4207L81.3406 28.0054C81.1338 28.898 81.5555 29.9852 81.5474 30.7632C81.5392 31.5412 81.1195 32.6263 81.1235 33.4186C81.1276 34.2109 82.0612 37.1858 81.5596 37.5195C81.402 37.6239 80.8287 37.6751 80.7407 37.6034C80.6465 37.5256 80.1183 35.382 80.1183 35.2612C80.1183 34.1024 80.0077 32.6979 80.1183 31.5821L80.1142 31.5842Z" fill="white"/>
<path d="M80.3169 23.712L80.1654 23.0507L81.3385 19.218C81.5535 20.8313 80.5708 22.1846 80.3169 23.712Z" fill="white"/>
<path d="M71.3228 36.1806C70.9748 36.2359 71.1017 35.6893 71.1365 35.4845C71.3638 34.1578 71.8469 32.6162 72.1418 31.2792C68.8578 30.7981 65.1152 29.064 62.2018 31.4553L60.2875 32.1985C61.4873 31.271 63.9933 29.6188 65.4981 29.625C66.7818 29.6311 67.8833 30.5975 67.0336 28.417C67.3448 28.3576 67.2363 28.7651 67.4492 28.9166C68.1719 29.4243 69.4536 29.1766 70.3012 29.236C70.336 29.5369 69.558 29.6045 69.384 29.6004C68.606 29.5861 67.6785 28.9268 67.441 30.0488C68.2948 30.0344 71.6443 31.1543 72.1561 30.7817C72.3813 30.6179 72.4161 30.0283 72.3526 29.7724C72.2953 29.5369 71.849 29.7785 71.9391 29.4407C72.1254 29.4243 72.4161 29.4427 72.5553 29.3424C72.715 29.2278 73.4173 26.0523 73.493 25.5589C73.5258 25.3378 73.6302 25.2068 73.3784 25.0348C71.548 24.398 71.0239 25.5241 69.8856 26.2611C68.9765 26.8487 67.613 26.9347 67.6437 28.415C67.0275 28.0137 67.8136 27.1006 68.1597 26.7832C68.4668 26.5027 70.8888 24.9017 71.243 24.7584C72.1663 24.3817 72.6475 24.5721 73.5729 24.7359C73.3988 24.0561 73.2351 23.3764 73.4582 22.6783L74.5945 20.6514C74.6846 21.4457 73.8452 22.1173 73.7817 22.8154C73.7223 23.4665 74.0356 24.5577 73.9905 25.4627C73.8124 29.0456 71.7937 32.6141 71.3249 36.1847L71.3228 36.1806Z" fill="white"/>
<path d="M70.8458 39.3211C72.7335 41.0983 71.718 44.7733 71.4293 47.0172C71.0423 47.0172 71.5358 44.7303 71.5317 44.46C71.5153 43.5203 71.2921 41.1433 70.9625 40.3284C70.6329 39.5136 69.6256 38.5759 68.8721 39.358C68.6838 39.5545 68.7227 39.8842 68.6162 40.0111C68.3193 40.3592 67.4533 41.1208 66.9353 41.7022C66.5811 42.0994 65.9342 42.4536 65.7233 42.7382C65.4059 43.1661 65.3425 44.4866 64.4744 44.3249C63.549 44.1529 65.0681 40.1135 64.5829 39.6569C64.5461 39.6221 63.8684 39.6631 63.5551 39.5607C62.4987 39.2188 61.9684 38.1726 60.5946 39.2433C58.6087 40.7932 60.4902 44.0444 60.5107 46.0897C60.5189 46.9066 60.3981 48.5998 59.6795 49.0564C61.129 46.3518 58.9711 43.2275 59.2659 40.7727C59.6283 37.7385 62.8017 38.5268 64.761 39.4767C65.1459 40.222 64.2492 43.6656 64.587 43.9461C65.9567 42.8385 64.9064 40.9877 65.4039 39.4501L65.8134 42.3103C66.2126 42.0912 67.5864 40.6929 67.5823 40.3714C67.5802 40.1974 66.9517 39.3805 67.2424 38.8359C67.009 38.5759 65.6291 39.6221 65.4059 39.0427C67.0991 38.3835 69.3778 37.9289 70.8519 39.317L70.8458 39.3211ZM68.4647 38.838H67.6437V39.8616H68.4647V38.838Z" fill="white"/>
<path d="M73.5749 31.6846L75.3111 21.8736L75.8209 21.5644C75.1412 22.2585 75.5527 23.2023 75.3991 24.0049C74.9917 26.1219 73.9721 28.2225 74.0868 30.4582C74.355 29.973 75.2804 29.5717 75.479 29.1786C76.2652 27.6246 76.0359 24.2219 76.7053 22.4489L77.254 20.854L75.7717 29.4857C75.5158 29.7334 73.8247 31.9732 73.579 31.6846H73.5749Z" fill="white"/>
<path d="M74.8013 44.0505C74.873 44.5808 75.3664 45.3916 75.4176 45.9914C76.3061 45.3588 75.4892 44.2512 75.4135 43.4404C75.3521 42.773 75.4585 42.0625 75.4073 41.3869L76.0256 38.6353C76.1669 40.3796 75.6469 42.1076 75.8168 43.8519C75.913 44.8408 76.9715 46.3354 75.0142 46.3968C74.6089 44.9903 74.3161 43.7189 74.4185 42.2366C74.4369 41.9847 74.5331 40.9693 74.8013 40.8833C74.8975 41.8824 74.6703 43.0821 74.8013 44.0505Z" fill="white"/>
<path d="M69.0769 35.3677C69.124 35.7239 68.6142 35.5602 68.3644 35.5704C66.3539 35.6564 63.6821 35.3636 61.6429 35.1364C61.3563 35.1036 60.3981 35.0278 60.2896 34.7535C63.2521 34.5672 66.1512 35.0217 69.0769 35.3657V35.3677Z" fill="white"/>
<path d="M72.7273 51.4824C71.4415 52.2829 71.288 49.6971 71.1242 48.9539L71.3228 47.2198L71.939 51.3063C72.2195 51.3616 72.4304 51.2347 72.5144 50.9665C72.9402 49.6193 71.7916 47.6661 72.1438 46.2002L72.4366 47.8463C72.9074 48.5219 73.4807 51.0135 72.7273 51.4824Z" fill="white"/>
<path d="M60.697 36.1844C60.7502 36.5386 60.22 36.3953 60.005 36.3646C59.4706 36.2868 58.9854 36.037 58.451 35.9776C58.4428 36.7065 59.8821 36.8969 60.4124 36.9768C60.8014 37.0341 62.2735 36.8949 62.3328 37.1037C62.4741 37.593 61.8558 37.4026 61.6429 37.3842C61.1925 37.3453 58.7725 36.9072 58.6599 37.0054C58.0334 38.7395 58.4756 40.1133 58.6292 41.829C58.6496 42.0583 58.8175 42.564 58.451 42.5169C57.9228 40.7971 57.7386 39.6076 58.1808 37.8592C58.2545 37.5664 58.6087 37.0341 58.5964 36.8949C58.578 36.6778 58.0313 36.4895 58.0354 36.0862C58.0354 36.0043 58.4736 34.7677 58.5534 34.5527C58.6394 34.3213 58.7745 33.7337 59.0591 33.7317C58.7213 35.5825 58.5452 36.1353 60.6949 36.1865L60.697 36.1844Z" fill="white"/>
<path d="M70.9154 36.3872C70.9993 36.9564 70.8171 36.768 70.4097 36.7946C67.4062 36.9932 64.2819 36.7946 61.3092 36.4875C64.499 36.1927 67.7277 36.9932 70.9175 36.3872H70.9154Z" fill="white"/>
<path d="M73.9823 37.614C74.1297 38.2405 73.5708 37.9191 73.2678 38.22C72.6863 38.7994 73.2514 41.938 73.1736 43.0375C73.1511 43.3507 73.1286 44.2516 72.758 44.358C72.6147 43.6947 72.9894 43.0313 72.9771 42.4171C72.9484 40.9819 71.9043 37.9334 73.9803 37.614H73.9823Z" fill="white"/>
<path d="M71.2245 37.2045C71.3085 37.2168 71.8101 37.4051 71.7343 37.6119L69.7832 37.6242L65.8072 37.2065C67.4963 37.3744 69.5908 36.9793 71.2245 37.2065V37.2045Z" fill="white"/>
<path d="M64.1714 44.36C64.3618 44.5381 61.5876 47.5334 60.9017 47.4229C61.7985 46.5957 62.5192 45.5536 63.4568 44.7674C63.6862 44.575 63.7885 44.272 64.1734 44.362L64.1714 44.36Z" fill="white"/>
<path d="M75.002 39.6569L74.787 37.7037C74.6764 37.456 75.0429 36.8254 75.0061 36.7967C74.8791 36.7046 74.3263 36.9933 74.3918 36.592C75.1739 36.6125 74.9098 35.4537 75.4094 35.1609C75.2722 36.6596 74.9098 38.1418 74.9999 39.6549L75.002 39.6569Z" fill="white"/>
<path d="M72.3465 28.8267C72.3936 29.185 71.8838 29.0171 71.634 29.0273C70.6984 29.0683 69.9306 29.0478 69.0339 28.7612C68.8189 28.6936 68.4156 28.7121 68.4647 28.4172L72.3465 28.8267Z" fill="white"/>
<path d="M72.9628 35.9778L73.9823 35.3677C73.6548 35.9573 73.2146 36.3136 72.5533 36.3873L72.758 34.344L72.9628 35.9778Z" fill="white"/>
<path d="M72.3465 27.8048L71.4538 27.9809L69.0789 27.3953C70.2664 27.2807 71.2327 27.4486 72.3465 27.8048Z" fill="white"/>
<path d="M59.0591 47.832L58.9792 47.2404L59.4686 44.5645C59.6794 45.8133 59.704 46.6958 59.0591 47.832Z" fill="white"/>
<path d="M83.1812 20.8523C82.9642 20.8871 82.5096 20.7684 82.3868 20.8748C82.2312 21.01 81.6108 24.7873 81.748 24.9388C81.8217 25.0207 83.4064 25.0474 83.5845 25.6554C83.173 26.2041 83.2405 25.7721 82.9826 25.6493C82.1391 25.2459 81.4941 24.6133 81.5453 26.1673L82.2599 25.5551C82.6693 25.8172 81.5146 26.7815 81.3406 26.5747L81.5412 23.5098C81.1973 23.5487 81.3549 23.9868 81.0417 24.3369C80.9475 24.4413 80.1142 25.0965 79.9095 24.8385C80.7755 24.1138 81.3713 23.2682 81.3406 22.0787L81.746 23.0983L82.7717 16.7637L82.9744 17.7833C83.736 17.9512 83.261 16.7883 83.3839 16.3542C83.8363 16.5221 83.5292 17.509 83.9223 17.7997C84.0697 17.9082 84.7413 18.0597 84.8109 17.988C84.9173 17.8795 84.5857 17.122 85.0136 17.1711C85.1036 18.8623 84.5775 20.5124 83.9919 22.0746C83.5374 22.0828 83.9428 21.2372 83.7667 21.0673C83.6807 20.9833 83.1607 21.1819 83.175 20.8503C83.6091 20.7806 84.2356 20.9936 84.1967 20.2381H82.3602L83.1771 20.8503L83.1812 20.8523ZM84.6102 18.1969H82.7697V19.2185L83.996 19.4192H82.5649V20.0334C84.4034 20.2852 84.3871 19.8675 84.6102 18.1948V18.1969Z" fill="white"/>
<path d="M85.6339 30.3579C85.6462 30.4419 85.8346 30.9435 86.0413 30.8677C85.4005 29.1254 86.1621 27.4507 86.244 25.8578C86.3259 24.265 86.1212 22.5595 86.2727 20.981C86.5061 18.5323 88.0457 15.4265 88.0948 13.1785C88.1071 12.5704 87.6321 11.9132 87.6792 11.8641C87.9761 11.559 88.1296 12.0545 88.189 12.2613C88.8135 14.4704 86.6555 18.7514 86.6658 21.1939C86.6658 21.6566 87.0179 21.8859 87.0773 22.3773C87.325 24.4513 86.4815 25.7083 87.2493 27.9379C87.3578 28.2512 87.065 28.5255 87.6792 28.417C87.4827 27.8642 87.3332 27.2643 87.2738 26.6788C87.2431 26.3696 87.1019 25.2784 87.4724 25.1494C87.196 26.0114 88.6865 29.8563 86.9729 28.4088L86.4549 26.1711C86.4754 27.0207 86.0372 27.899 86.027 28.7262C86.025 28.9186 86.5614 32.7451 85.5356 31.2751C85.1651 30.7449 85.1999 29.0005 85.2183 28.3065L85.636 25.5568C85.7854 27.0555 85.4333 28.9104 85.636 30.36L85.6339 30.3579ZM86.8582 24.5311C86.719 23.7347 87.2411 22.3773 86.4529 21.8736C86.5921 22.6701 86.07 24.0275 86.8582 24.5311Z" fill="white"/>
<path d="M89.1062 20.4425L88.9015 18.8067C88.3692 19.2571 88.5473 18.5569 88.3937 18.604C88.0436 18.8456 88.0621 19.2305 88.0887 19.6277L88.4961 19.7259C87.4233 20.6861 87.411 19.1383 87.972 18.5917C88.7254 17.8608 89.4993 18.3808 88.9506 16.5075L89.9231 12.8816C90.3408 15.3466 88.9117 17.8649 89.1062 20.4425Z" fill="white"/>
<path d="M84.8149 24.7377C85.0361 26.05 84.4833 27.2641 84.3993 28.511C84.3461 29.3156 84.6164 32.9415 84.4259 33.2015C83.5353 34.4217 82.9989 31.1992 83.1812 30.6668C84.0267 31.0784 83.0358 32.8718 84.2007 32.9128C83.5374 30.4969 84.3543 28.3144 84.5549 26.0091C84.5979 25.5218 84.0288 24.5862 84.8129 24.7397L84.8149 24.7377Z" fill="white"/>
<path d="M87.6771 20.8519C87.714 20.8109 88.492 20.7536 88.6967 20.4424C88.8134 21.073 87.8614 21.0115 87.8716 21.5602C87.8757 21.8121 88.232 22.0741 88.2811 22.3935C88.3753 23.0036 88.234 23.7018 88.2913 24.3242L88.8503 22.5368L88.9035 21.4661C89.2454 21.4128 89.1205 21.9554 89.1144 22.1867C89.0734 23.8042 88.3548 25.6284 88.6967 27.3932C88.4981 27.3584 87.9392 27.4444 87.8798 27.3932C87.6935 27.2192 88.1787 22.9238 88.0805 22.285L87.673 23.9188C87.7508 23.4622 87.5666 20.9727 87.673 20.8519H87.6771Z" fill="white"/>
<path d="M84.817 23.0998C84.8785 23.2369 85.5377 22.0331 86.0393 22.0781C86.2502 22.3054 85.0504 23.5113 84.7147 23.5113L84.6123 22.0802L84.817 23.0998Z" fill="white"/>
<path d="M59.4706 16.9703C59.3396 16.3745 58.8769 16.0367 59.0612 15.3345C59.139 15.2546 60.2384 15.4082 60.5639 15.3365C60.6827 15.3099 60.7584 14.5585 61.1044 14.927C61.172 14.9987 60.5619 16.5567 60.4759 16.8106C60.4227 16.9662 60.1155 16.8966 60.0685 17.2631C59.8064 19.3043 60.654 18.3093 61.0164 18.7966C61.7473 19.7793 58.9424 19.9062 58.6558 19.3166C58.4285 18.8539 59.573 18.9317 59.7859 18.6164C59.8269 18.557 59.7122 17.4433 59.8801 17.175C58.6169 17.5026 57.4663 17.3859 56.203 17.175C56.463 18.5017 55.9184 18.6062 54.6675 18.6225C53.6991 18.6348 53.4411 18.4014 53.3408 17.4862C53.1013 15.2935 54.3317 14.19 53.9489 12.1733C53.8731 11.7721 53.4903 11.6554 53.5476 11.2479C54.2621 11.7577 53.7585 10.8835 54.0656 10.8262C54.3297 10.777 54.688 10.8835 54.9767 10.8405C55.0872 10.734 54.1966 7.9701 55.7956 8.49013C54.3706 9.10639 55.6298 10.9982 55.6011 11.9768C55.5847 12.5214 55.1712 12.6135 55.1814 13.0906C55.7137 12.7384 56.8336 12.593 57.2902 12.29C57.6157 12.073 57.4867 11.5141 57.7672 11.4465C59.1738 11.1046 58.1972 12.3023 59.2679 12.0689V8.79928C60.5086 9.0204 59.3171 10.8282 59.6795 11.8642C59.7184 11.9174 60.7994 11.0616 60.9017 11.6574L59.2679 12.2757L60.0848 12.8838C59.6406 12.851 58.8011 12.8019 58.4428 12.5787C58.0477 12.333 58.8482 11.5857 58.148 11.6615C57.8286 12.7568 56.5941 12.7855 55.5909 13.0926L57.0199 13.5021L55.5888 13.7048C55.4824 13.8112 55.8161 15.2464 55.9492 15.4901C56.1887 15.9303 56.6964 16.0388 56.8152 16.2599C56.8807 16.3827 56.0065 16.4687 56.203 16.9744H59.4727L59.4706 16.9703ZM54.7678 11.6554C54.514 11.3237 54.3973 11.6595 54.3604 11.9563C54.2785 12.593 54.4321 13.324 54.344 13.9873C54.2253 14.8759 53.0808 17.3409 54.0881 17.9571C54.8579 18.428 56.0802 18.3625 55.7915 17.173C55.4455 17.1341 55.6175 17.6357 55.2592 17.7606C54.95 17.8671 54.4996 17.7565 54.1577 17.7872L54.1782 15.7624L55.5888 15.7419C55.2182 14.3128 54.4832 13.2441 54.7719 11.6554H54.7678Z" fill="white"/>
<path d="M59.0612 8.58609C57.9433 8.13567 57.3271 8.36907 56.201 8.48781C56.8807 7.73439 58.447 7.76919 59.0612 8.58609Z" fill="white"/>
<path d="M55.7936 12.4719C55.9451 11.4012 55.5254 10.441 55.3841 9.40704C55.6708 9.3579 55.6605 9.751 55.7404 9.96597C55.9717 10.5904 56.5921 12.0748 55.7936 12.4719Z" fill="white"/>
</g>
<defs>
<clipPath id="clip0_24_724">
<rect width="90" height="77" fill="white"/>
</clipPath>
</defs>
</svg>
