<svg width="33" height="30" viewBox="0 0 33 30" fill="none" xmlns="http://www.w3.org/2000/svg">
<path d="M22.4151 0C28.261 0 33 4.59689 33 10.2674C33 12.8003 32.0536 15.1183 30.4863 16.9087C30.4473 16.9615 30.4045 17.0129 30.3556 17.0603L30.3203 17.0939C30.048 17.3904 29.7583 17.6714 29.4526 17.9356L17.3805 29.6463C16.8942 30.1179 16.1058 30.1179 15.6195 29.6463L3.54675 17.9356C3.2411 17.6714 2.95136 17.3904 2.67906 17.0939L2.6444 17.0603C2.59541 17.0128 2.55219 16.9616 2.51306 16.9087C0.9459 15.1183 0 12.8002 0 10.2674C0 4.59689 4.73902 0 10.5849 0C12.7757 0 14.8113 0.645355 16.5 1.75115C18.1887 0.645355 20.2243 0 22.4151 0Z" fill="#AC1F1F"/>
</svg>
