<svg width="90" height="70" viewBox="0 0 90 70" fill="none" xmlns="http://www.w3.org/2000/svg">
<g clip-path="url(#clip0_24_725)">
<path d="M70.2765 61.4759C70.2686 61.5845 70.1124 61.7936 70.2077 61.9233C71.2983 62.9027 72.6853 62.6856 74.0274 62.8445C74.1068 62.9504 73.5747 63.0298 73.49 63.0377C72.823 63.0933 71.5391 63.0959 70.9356 62.8551C70.5491 62.7015 70.3268 62.3945 69.9641 62.2727C68.4368 65.645 64.236 67.13 60.8901 68.038C53.7113 69.9862 45.1111 70.4018 37.7179 69.6447C36.6776 69.5388 35.6399 69.3668 34.6102 69.1947C34.2079 70.2959 33.3317 70.0841 32.4979 69.5918C31.987 69.29 31.6826 68.8374 31.1214 68.6177C30.1712 68.2444 29.0197 68.1386 28.0562 67.7415C26.9206 68.615 26.2112 69.5283 24.66 68.9141C24.0777 68.6838 23.6356 68.3794 23.7044 67.6753C23.5774 67.6594 23.5403 67.7759 23.4185 67.7997C22.9103 67.8977 22.0183 67.4292 21.7456 66.9977C21.5338 66.6642 21.6344 66.3121 21.3115 66.0977C20.7715 65.7377 19.4956 65.4968 18.8603 65.5947C18.3018 65.6821 17.6612 66.1903 17.9392 66.8045C17.9842 66.905 18.3627 67.2518 18.1456 67.2968C17.9021 67.3444 16.5071 66.5636 16.0704 66.4524C15.4748 66.2989 14.4901 66.3756 14.2201 65.6953C14.1645 65.555 14.0057 64.5545 14.048 64.5015C14.1804 64.4751 14.1962 64.5677 14.2492 64.6471C14.4054 64.8774 14.5695 65.6027 14.7257 65.7112C15.0751 65.96 16.1974 66.0103 16.6315 66.2618C17.1901 66.0395 17.6612 65.6265 18.2171 65.3962C18.863 65.1315 19.4083 65.1739 20.0992 65.2109L21.2903 65.6715C20.8033 65.2453 20.2527 64.7027 20.4009 63.988C20.3003 63.9589 20.295 64.0198 20.2421 64.0515C19.7392 64.3718 19.3103 64.9753 18.6856 65.1315C19.0668 64.6286 20.1653 64.1495 20.4141 63.5856C20.4486 63.5062 20.4697 63.4374 20.3691 63.4162C20.1733 63.3765 18.2992 64.2553 18.008 64.4221L16.5892 65.4492C16.5601 65.33 16.6289 65.2745 16.6765 65.1871C17.0815 64.4168 18.2092 63.7789 18.9821 63.4268C19.3553 63.2574 19.943 63.1251 20.258 62.9239C20.3427 62.8683 20.43 62.8471 20.4036 62.7201C20.25 62.5904 18.1456 63.2283 17.828 63.3527C17.2748 63.5698 16.2371 64.2924 15.7659 64.3453C15.4192 64.3851 14.7865 64.0145 14.7495 64.0542C14.5695 64.2448 15.5092 64.7318 15.4483 65.0071C15.3848 65.0706 14.2677 64.5148 14.543 63.943C14.7309 63.5486 15.3424 64.0753 15.6256 64.1071C15.8718 64.1362 16.1048 63.9695 16.3324 63.8874L18.3733 62.6883C18.2621 62.5401 18.0795 62.6168 17.9286 62.5639C17.2589 62.3256 15.9592 61.116 15.6071 61.071C15.3874 61.0418 15.2259 61.1451 15.0407 61.1371C14.8554 61.1292 14.7442 60.9836 14.5642 61.0048C14.6012 61.4336 14.8924 61.8677 14.2624 62.008C14.0586 62.053 13.2115 61.7962 13.066 61.6427C12.6239 61.1662 13.103 60.4965 13.4815 60.1471C14.1777 59.5013 15.1412 59.2154 16.0227 58.9401C15.3556 58.5721 14.7362 58.2016 14.2465 57.6033C14.011 57.3174 13.8601 56.9707 13.6351 56.6901C13.2248 56.1713 12.7218 55.7927 12.5921 56.7483C12.1474 56.3513 12.3221 55.9436 12.8277 55.7451C13.6801 55.4116 14.6224 55.6895 15.4112 56.0575L16.7215 56.8727C16.2106 55.6233 16.2927 54.2733 17.5924 53.5798C18.2595 53.2251 19.0245 53.2966 19.4877 52.6137C19.6306 52.7301 19.718 53.376 19.7868 53.4263C19.9006 53.511 20.6762 53.5163 20.9171 53.5957C21.2877 53.7175 21.383 54.1039 21.743 54.1357C21.7271 53.7042 21.7668 53.2648 21.743 52.8334C21.6397 50.9275 21.2665 48.9687 21.428 47.0496C21.6397 44.5084 24.7553 43.5555 26.8173 43.0049C26.8253 42.7031 26.8412 42.3934 26.8279 42.089C26.7273 39.389 26.2006 36.1623 26.4441 33.5126C26.6294 31.4876 28.6676 30.5876 30.3935 30.1535C30.5735 30.1085 31.1611 30.0635 31.2035 29.9417L30.952 26.077C31.1188 22.7974 29.5438 19.9571 33.6732 18.8797C34.1444 18.758 34.8405 18.7288 35.2323 18.5965C35.2826 18.5806 35.317 18.5594 35.3302 18.5039C35.1502 16.41 34.9649 14.3242 34.8935 12.2224C34.8776 11.7989 34.7955 11.4177 34.8379 10.9598C34.9597 9.66802 35.8914 9.1942 36.9291 8.66214C36.7411 8.36832 36.5849 8.10362 36.577 7.74097C35.7538 7.95538 35.047 8.75214 34.1311 8.60126C34.7347 7.7198 34.9438 6.68216 36.1376 6.40951C36.2355 6.26922 35.6929 5.53599 36.1376 5.01717C36.2223 4.91923 36.9502 4.35805 37.072 4.29982C37.3473 4.16482 37.6517 4.18864 37.9429 4.11982C37.7946 3.93717 37.5538 3.86835 37.3711 3.70688C36.7173 3.13247 36.6855 2.07101 36.1641 1.38807C37.4796 1.70307 38.8137 1.39336 39.7852 2.56336C39.9308 2.73806 40.3146 3.466 40.4205 3.51894C40.5105 3.56129 40.5317 3.41835 40.6111 3.421C40.6164 3.58247 40.484 3.61953 40.5105 3.80217C40.537 3.98482 40.6164 4.25217 40.8255 4.24423C41.5984 4.21247 40.8784 3.42365 40.9287 3.35747C41.0981 3.36541 41.6646 2.926 41.6726 2.81747C41.6752 2.78042 41.4317 2.33571 41.3999 2.15307C41.2861 1.50189 41.4952 0.509252 42.3237 0.562193C42.2125 0.705133 42.0167 0.776603 41.9161 0.948661C41.7387 1.25837 41.9823 1.40925 42.1967 1.61042C42.5487 1.9413 43.0225 2.13983 43.2581 2.58189C43.3137 2.68512 43.3931 3.016 43.4117 3.03188C43.4964 3.106 43.9675 2.96571 44.1317 2.97365C44.3487 2.98424 44.5817 3.16688 44.7087 3.16688C44.8622 3.16688 44.9708 2.87306 45.1243 2.75924C45.3096 2.61895 45.6166 2.52365 45.8469 2.53159C46.4531 2.55012 46.8978 3.09277 46.7708 1.9916C46.7099 1.47807 46.5061 1.45425 46.1328 1.22925C46.0905 1.20278 45.9025 1.18425 46.0084 1.07307C46.2943 0.766015 47.3002 1.56278 46.9613 2.02601L47.406 1.51778C47.4087 1.63425 47.4034 1.75072 47.406 1.86718C47.406 1.92807 47.3716 2.0816 47.4696 1.99424C48.2081 1.49395 47.9593 0.842779 47.8534 0.0830779C47.819 -0.165744 48.2902 0.218077 48.359 0.276312C48.7455 0.59131 49.0975 1.0519 49.2775 1.51778C49.386 1.79836 49.431 2.26954 49.5369 2.46542C49.619 2.61895 49.8784 2.71689 50.0081 2.88365C50.1299 3.03983 50.1563 3.25688 50.2331 3.35747C50.3734 3.53482 50.9054 3.55335 51.149 3.71217C51.6625 4.051 51.9537 5.21305 51.7551 5.77422C51.6069 6.19245 51.0325 6.4651 51.0219 6.51804C50.9901 6.67422 51.2787 7.2248 51.1543 7.49215C52.2448 7.14274 53.354 6.96539 54.3254 7.7198C54.8363 8.11685 55.2254 9.15979 54.6219 9.5939C54.4922 9.68655 53.7801 9.68126 53.6954 9.58861C53.5578 9.44038 54.1745 9.35038 54.2619 9.30008C54.9316 8.90832 54.1904 8.10891 53.7537 7.84686C53.0443 7.42333 51.5698 7.36774 50.9637 8.00038C51.9457 7.78862 53.8834 7.70921 53.6319 9.20744C53.4016 9.21802 53.4307 8.91891 53.3407 8.76803C52.7848 7.82833 51.2099 8.26774 50.3919 8.57479L51.8901 9.21008L52.8695 8.82891C52.9119 9.11214 52.1151 9.43243 52.1098 9.49596C52.8457 10.531 52.634 12.0504 53.8225 12.8021C53.8304 13.0404 53.579 12.7571 53.5101 12.7307L52.679 11.9418C52.6816 12.3045 52.949 12.9848 53.219 13.2124C53.4334 13.3924 53.8834 13.0668 54.2248 13.0906C54.5954 13.1171 55.9692 13.6386 56.2075 13.9086C56.5278 14.2739 56.4086 14.8112 56.3636 15.2453C57.0228 14.7133 57.7639 14.933 58.4919 15.1818C58.7936 15.285 59.6883 15.6212 59.781 15.9256C59.8604 16.193 59.7519 16.6589 59.8101 16.9792C59.8683 17.2994 60.1304 17.3894 60.2521 17.6806C60.6651 18.6706 59.773 19.3297 59.0345 19.7903C59.4474 20.2218 59.7069 20.7671 60.051 21.2515L60.5566 21.728C59.9769 21.7888 59.3919 21.8153 58.8069 21.7941C58.5342 21.7835 58.1822 21.6909 57.9042 21.6777C57.8275 21.675 57.793 21.6988 57.7692 21.7703L57.5786 29.9497C57.6263 30.0953 57.8751 30.045 58.018 30.082C59.728 30.5373 61.9674 31.3817 62.1474 33.4517C62.2851 35.0426 62.1077 36.7526 62.0786 38.3434C62.0521 39.839 62.031 41.332 62.0177 42.8275C64.1539 43.0234 67.1662 44.2622 67.4733 46.679C67.5395 47.1952 67.4759 47.706 67.4786 48.1931C67.4865 50.0301 67.4362 51.8592 67.4177 53.6936C67.73 53.6539 68.0106 53.7492 68.3071 53.8207C67.6295 52.8572 67.3595 51.2398 68.1827 50.2975C68.773 49.6225 70.0065 49.154 70.7794 48.6378C71.3909 48.2301 71.9256 47.7272 72.5 47.2772C71.96 49.199 72.3015 51.531 70.6603 52.9657C71.0627 53.151 71.3512 53.4395 71.6768 53.7201C71.7218 53.7598 71.7112 53.7836 71.8038 53.7598C71.5868 53.016 72.3677 51.0254 73.3074 51.9387C73.985 52.5978 73.3868 53.9239 72.6959 54.3633C73.1565 54.6916 73.9135 56.2904 73.5482 56.743C73.4741 56.8357 73.2783 56.9124 73.1962 57.0263C73.0983 57.2089 72.2803 57.3889 72.3121 57.5398C72.3438 57.6907 72.7727 57.5583 72.8733 57.5292C74.5621 57.0739 74.5303 54.2972 76.5685 54.5222C76.1238 54.9589 75.5018 55.1125 75.0412 55.5678C74.5277 56.0733 74.3238 56.833 73.9003 57.2857C73.7494 57.4472 73.5747 57.471 73.4556 57.6351C74.4165 57.4869 75.2212 56.8886 75.8326 56.1686L76.5685 54.9669C76.7671 56.5816 75.1629 57.8389 73.7097 58.048C74.0909 58.2254 74.5329 58.2545 74.9168 58.4292C75.3774 58.6383 76.4944 59.5674 76.6029 60.0465C76.6268 60.1524 76.6426 60.2583 76.632 60.3668C76.5129 60.3933 76.4812 60.298 76.4097 60.2398C75.9041 59.8242 75.5044 59.2021 74.9353 58.8554C74.3053 58.4689 73.363 58.2333 72.6297 58.2069C72.7224 58.6807 73.4397 58.731 73.8394 58.9348C74.4562 59.2471 75.2053 59.8824 75.425 60.5574C75.3429 60.6368 73.8077 59.398 73.5615 59.2763C73.4212 59.2074 72.8997 58.9957 72.7753 58.9851C72.6456 58.9719 71.9918 59.496 71.9918 59.6363C71.9918 59.8427 74.2894 60.3165 74.5832 60.4145C74.9194 60.5257 75.2477 60.7374 75.5626 60.8327C75.7929 60.9015 76.5844 60.9254 76.6241 61.1054C76.6188 61.1821 76.5632 61.3171 76.5023 61.3542C76.1741 61.5554 74.6812 60.6289 74.218 60.523C73.6912 60.4039 72.68 60.2398 72.1427 60.1842C72.0659 60.1763 71.9097 60.1418 71.8647 60.208C72.095 60.4118 72.4047 60.5733 72.6271 60.7798C72.7091 60.8565 72.733 60.891 72.5953 60.8751C72.148 60.7824 71.0865 59.8189 70.753 59.803C70.6789 59.8004 70.6047 59.8613 70.5306 59.8586C70.7953 60.7454 72.7038 61.971 73.58 61.603C73.9135 61.4627 73.9109 60.8539 73.9665 60.8142C74.2841 60.5998 74.5171 61.251 74.1518 61.6507C73.8368 61.9948 72.9156 61.8942 72.4841 61.8095C71.51 61.6162 70.9436 60.8989 70.4168 60.1313C70.3771 60.073 70.4274 60.0148 70.2739 60.0492C70.2527 60.523 70.3056 61.0074 70.2739 61.4786L70.2765 61.4759ZM49.1187 2.28277C49.2034 2.19542 48.6105 0.96719 48.3563 0.885132C48.5152 1.81424 47.3663 2.18748 47.0858 2.98159C47.361 2.9313 47.4325 2.611 47.6628 2.44689C48.0863 2.14248 48.6343 2.18748 49.1187 2.28277ZM43.0755 3.16424C43.282 2.87041 42.1623 1.93336 41.969 1.71101C41.8631 1.5866 41.8076 1.41189 41.6831 1.32984C41.5587 1.97307 42.1173 3.05306 42.7631 3.20924C42.8425 3.22777 43.0384 3.21453 43.0755 3.16424ZM39.6502 3.29924C39.7429 3.20924 39.3167 2.7963 39.2399 2.72483C38.5199 2.05777 37.6146 1.87777 36.6643 1.77454C36.9317 2.38336 37.3367 3.47129 38.017 3.69629C38.1652 3.74394 38.3479 3.66188 38.3135 3.52159C38.3002 3.466 37.4585 3.016 37.424 2.791C37.919 2.91012 38.3479 3.36012 38.8852 3.331C38.6152 3.106 38.3029 2.94718 38.0302 2.72483C37.9111 2.62689 37.6914 2.50512 37.6782 2.3463C37.9693 2.41512 39.4808 3.45806 39.6476 3.29924H39.6502ZM48.8646 4.44276C48.9863 4.55658 50.3416 3.54541 49.6216 2.95512C48.9016 2.36483 47.909 2.37806 47.3399 3.14041C47.6046 3.24629 47.9513 4.13041 48.0705 4.18864C48.224 4.26541 48.2134 3.59306 48.3881 3.55335C48.539 3.52423 48.4649 3.62217 48.4834 3.70953C48.5178 3.8657 48.5549 4.02717 48.5469 4.18864C48.719 4.07217 48.7693 3.84453 48.891 3.67247C48.944 3.59835 48.891 3.51629 49.0552 3.55335C49.1055 3.87364 48.9228 4.141 48.8646 4.44276ZM46.7681 5.8404C46.8819 5.86422 46.8925 5.80598 46.9481 5.73451C47.0302 5.62863 47.5305 4.81864 47.5755 4.71011C47.6734 4.47717 47.6734 4.4057 47.5755 4.17276C47.4775 3.93982 46.4902 3.10335 46.2387 2.96835C45.2593 2.43895 44.8067 3.52688 44.7325 4.3157C45.074 4.38452 45.479 4.1357 45.7834 4.31305C45.8787 4.36864 46.6622 5.19187 46.7072 5.29775C46.7919 5.49363 46.7708 5.63922 46.7655 5.84304L46.7681 5.8404ZM41.7149 2.92336C41.474 3.1563 41.4581 3.45806 41.3867 3.74394C41.3708 3.81276 41.2623 3.88159 41.2596 3.96629C41.2543 4.13835 41.5614 4.32099 41.7202 4.3157C41.8552 4.31041 42.3211 3.53482 42.3184 3.39453C42.3131 3.17482 41.8711 3.02924 41.7149 2.926V2.92336ZM44.5419 4.44276C44.7272 4.30511 44.354 3.34159 43.9358 3.29924C43.8696 3.29394 42.6996 3.556 42.6414 3.59041C42.4031 3.7307 42.3264 4.14629 42.1278 4.34746C42.3687 4.41364 42.6228 4.16482 42.8611 4.12776C43.4037 4.04305 43.7187 4.24952 44.1581 4.50364C44.2217 4.42423 43.8934 3.961 44.1264 4.05894C44.2455 4.10923 44.4255 4.52482 44.5393 4.44011L44.5419 4.44276ZM40.0976 5.01452C40.2008 4.6254 40.4999 4.40305 40.2802 3.97423C39.8752 3.18806 37.9746 3.5507 38.4961 4.55129C38.5729 4.69687 39.0837 5.30569 39.2082 5.36393C39.5126 5.50687 39.5099 5.19981 39.5576 5.20246C39.6396 5.20775 39.6926 5.29775 39.7587 5.30834C39.8382 5.32158 39.9176 5.27658 40.0182 5.30834C40.4337 5.4354 41.4581 6.51804 41.4952 5.42216C41.5111 4.92717 41.122 5.23422 40.8281 5.20511C40.7381 5.19717 40.6455 5.16275 40.7329 5.0754C40.7779 5.03305 41.3761 4.87687 41.4952 4.88481C41.2623 3.94511 40.5581 4.65717 40.0976 5.01187V5.01452ZM49.8175 6.34863C50.7096 6.55774 51.644 5.96745 51.3766 4.94834C51.3634 4.90334 50.9822 4.141 50.9557 4.09864C50.8022 3.87629 50.1802 3.79688 49.9472 3.90276C49.7619 3.98747 49.0922 4.82128 49.2537 5.00658C49.3834 5.12569 50.0796 4.91658 50.0716 5.10717C50.0663 5.24746 49.6878 5.11246 49.7566 5.32952L50.2649 5.26599C50.1563 5.45128 49.8122 5.36393 49.6296 5.45658L50.2649 5.70804C50.0319 5.84304 49.6481 5.65775 49.5025 5.89863L50.3893 6.12098L49.8202 6.34334L49.8175 6.34863ZM47.7846 6.15804C47.7608 6.17657 47.8163 6.61069 47.909 6.70069C48.3378 7.11362 48.9837 6.70333 49.1399 6.20834C49.4099 5.34805 48.9599 4.87952 48.3246 4.37923C48.2108 4.37923 47.2949 5.6154 47.2843 5.81922C47.2737 6.03892 47.8349 6.04157 47.9752 6.02834C48.0334 6.23745 47.8322 6.11834 47.7846 6.15539V6.15804ZM37.7443 5.77687C37.7258 5.76099 37.6385 5.77951 37.5617 5.67628C37.3367 5.36922 37.9217 5.5254 38.0964 5.58363C38.2579 5.63657 38.3479 5.76099 38.504 5.77687C38.5543 5.72393 38.3532 5.37187 38.3055 5.30834C38.2367 5.21569 38.1202 5.23952 38.1229 5.14158C38.4617 5.14687 38.6311 5.48834 38.8852 5.64981C38.827 4.96158 37.8767 4.20982 37.1858 4.4904C37.0191 4.55658 36.847 4.83452 36.6935 4.95099C36.5823 5.0357 36.4235 5.03834 36.3096 5.13893C36.0529 5.36658 36.1429 5.80863 36.2488 6.09451C36.6538 7.17451 37.0958 6.5551 37.8502 6.36451C38.0302 6.31951 38.2499 6.3751 38.4379 6.2851L37.9349 5.99393C37.837 5.95422 37.7973 5.82981 37.739 5.77687C37.7655 5.80334 38.3373 6.03628 38.4379 6.03098C38.3293 5.84834 38.0382 5.67628 37.8317 5.65246C37.7073 5.63922 37.6967 5.73451 37.739 5.77687H37.7443ZM43.5917 5.39569C43.769 5.49099 44.1793 6.63716 44.2322 5.99922C44.2719 5.53334 43.7267 4.52482 43.2396 4.44541C42.1278 4.26805 41.7281 5.22628 42.067 6.15804C41.7096 6.16334 41.4846 5.9701 41.1749 6.25069C40.8281 6.56569 40.9923 7.07392 41.2411 7.39686C41.7652 8.07979 42.2258 7.54245 42.8928 7.49215C42.9167 7.32804 42.877 7.39421 42.8028 7.3598C42.5725 7.25657 42.2787 7.23804 42.067 7.07921C42.2523 6.88333 43.0305 7.27774 43.147 7.17451C43.1364 6.92304 42.8161 6.85157 42.7023 6.66627L43.4646 6.98392L43.0199 5.90393C43.4011 5.93569 43.4778 6.38039 43.7822 6.53922L43.5917 5.39569ZM45.6881 6.34863C46.6252 6.05216 46.5458 5.42216 45.8814 4.85305C45.3572 4.40305 44.4122 4.69952 44.3593 5.4354C44.3461 5.60216 44.3725 6.06804 44.6108 6.00187C44.7961 5.95157 44.8225 5.81128 45.0528 6.02834L45.1164 5.83775C45.0819 6.64245 45.5769 5.84569 45.8787 5.71069C45.9263 5.96216 45.7146 6.11834 45.6881 6.34598V6.34863ZM40.0129 6.71127C40.5608 6.12098 39.674 5.26334 39.142 5.87216C38.6708 6.40951 39.457 7.31215 40.0129 6.71127ZM40.6481 6.39363C40.8334 6.22951 40.8281 5.99657 40.5396 5.9701C40.6349 6.13422 40.4152 6.35922 40.4126 6.38304C40.4099 6.49422 40.5767 6.45716 40.6455 6.39363H40.6481ZM45.6881 7.11362C45.5134 7.29098 46.289 7.36509 46.3525 7.37039C46.7019 7.39421 47.1758 7.44715 47.3928 7.1348C47.8163 6.52863 47.0937 5.98863 46.4955 6.11039C46.3181 6.14745 45.8178 6.47833 45.7516 6.63716C45.6961 6.77216 45.8469 6.72186 45.9105 6.7298C46.0799 6.75098 46.3049 6.71921 46.3843 6.92304C46.2811 6.98392 45.7119 7.0898 45.6855 7.11362H45.6881ZM44.6505 6.30098C44.4308 6.30363 43.9517 6.74304 43.9093 6.9548C43.6446 8.32597 45.3811 8.2095 45.1746 6.89392C45.1402 6.68216 44.8755 6.29834 44.6505 6.30098ZM38.6973 6.54186C37.8952 6.45451 36.9952 6.86745 36.8708 7.73303C36.7385 8.64891 37.6438 8.64097 38.1599 9.14655C38.512 8.53773 39.367 8.01891 39.4623 7.27245C39.4729 7.19039 39.4596 7.14274 39.367 7.1798C39.2055 7.24333 38.5914 7.95538 38.5093 7.87862L38.827 7.24333C38.7714 7.18774 38.3187 7.52656 38.1917 7.40215C38.3664 7.23009 38.5835 7.11892 38.7714 6.96274C38.8376 6.9098 38.9302 6.96274 38.8905 6.79863L38.0646 6.95745C38.2446 6.76157 38.5835 6.80921 38.6999 6.54451L38.6973 6.54186ZM48.6105 7.23804C48.8116 7.79656 48.6396 8.5642 49.4681 8.41068C49.791 8.34979 50.0002 7.95274 50.2622 7.7145C50.4819 7.51333 51.1146 7.28568 50.8287 6.89392C50.6725 6.67951 49.8466 6.74039 49.5634 6.60539C49.6057 6.66098 50.2913 7.15333 49.8731 7.02627C49.7063 6.97598 49.5502 6.87804 49.3728 6.85951L49.7222 7.17715C49.7275 7.47892 49.116 7.06333 49.0552 7.11362C49.0313 7.17451 49.4416 7.55303 49.214 7.55568C49.1293 7.55568 48.6819 7.16657 48.6105 7.24068V7.23804ZM36.6008 6.92304C35.6823 6.61598 34.7717 7.43921 34.6314 8.32068C34.6738 8.36832 34.9861 8.11156 35.0417 8.06391C35.3144 7.83627 35.6082 7.46833 35.9046 7.27509C36.1402 7.12421 36.4208 7.11892 36.5982 6.92304H36.6008ZM48.2769 7.06333C48.1684 6.96804 47.7872 6.99451 47.729 7.15068C47.6152 7.45245 47.9434 7.33862 48.0387 7.55568H47.4034C47.3796 7.7648 47.6284 7.74097 47.7449 7.81774C48.0308 8.01097 47.6734 8.06656 47.4669 8.06391L47.6575 8.2545C47.2208 8.2995 46.9084 8.76273 47.5146 8.8792C47.7978 8.93214 48.3987 8.63832 48.5152 8.38156C48.576 8.24921 48.3828 7.15862 48.2769 7.06598V7.06333ZM36.6643 7.23804C36.5426 7.1348 35.7405 7.55833 35.6029 7.66686C35.5261 7.72774 35.4308 7.74097 35.4599 7.87333C35.7855 7.69862 36.2143 7.64833 36.5188 7.44186C36.6008 7.38627 36.6935 7.37039 36.6643 7.24068V7.23804ZM40.0949 7.23804C39.9679 7.12421 39.7879 7.4498 39.727 7.53715C39.539 7.8045 38.9408 8.88979 39.0149 9.16244C39.0546 9.31332 39.5787 9.37685 39.7243 9.36361C40.1743 9.32391 40.259 9.00626 40.537 8.72303C40.5581 8.60126 39.9149 8.21215 39.9732 7.65892C39.9837 7.56097 40.1293 7.26715 40.0976 7.23804H40.0949ZM41.2411 7.87333C41.1087 7.65627 40.7911 7.67215 40.5608 7.56892C40.4496 7.51862 40.2881 7.25921 40.2326 7.46833C40.1426 7.79921 40.484 8.3392 40.7964 8.47685C41.0161 8.57479 41.6223 8.64362 41.6858 8.34715C41.7387 8.09568 40.9737 8.26774 41.0505 7.90244C41.0637 7.83627 41.1828 7.88127 41.2411 7.87068V7.87333ZM47.0196 7.56097C46.9666 7.51068 45.7728 7.57421 45.5611 7.62186C45.5214 7.8045 45.6802 7.70391 45.7252 7.86803C45.7702 8.03215 45.7543 8.21215 45.7516 8.3842L45.2434 8.00303L45.3705 8.95597C45.1058 9.00626 44.8146 8.25979 44.7669 8.25979C44.5234 8.24921 44.8014 9.09891 44.9258 9.24449C45.0422 9.38214 45.4128 9.59655 45.5928 9.59655C46.0772 9.59655 46.9455 8.57479 47.0566 8.13274C47.0831 8.02685 47.054 7.59803 47.0169 7.56362L47.0196 7.56097ZM43.4011 7.74891C43.1046 7.66156 42.5434 7.7648 42.2893 7.93685C41.7308 8.31538 41.8605 9.33449 42.427 9.6442C42.6017 9.73949 43.5017 9.99361 43.6843 9.96714C43.867 9.94067 44.4837 9.58596 44.534 9.41655C44.5843 9.24714 44.3699 8.31273 44.2905 8.25715C44.0999 8.1195 43.6764 8.69656 43.6261 8.6992C43.3984 8.71244 43.7372 8.33391 43.7214 8.32068L43.2131 8.51126L43.7849 8.0348C43.507 7.93156 43.2158 8.10362 42.959 8.19362C42.8823 7.88921 43.3137 7.9845 43.4037 7.74891H43.4011ZM35.7749 16.4842C35.7802 16.7912 35.7696 17.0983 35.7749 17.4053C36.0502 17.4927 36.2461 17.715 36.4949 17.8606C37.2838 18.3212 38.189 18.5541 39.0785 18.7394L38.5385 18.8003C37.7232 18.7103 37.0217 18.5541 36.352 18.0644C36.1588 17.9215 36.037 17.6356 35.7749 17.6568C35.8702 18.0591 35.7538 18.7765 35.9391 19.1127C36.2011 19.5891 38.144 19.8618 38.6973 19.8803L38.1599 20.01C37.3473 20.0471 36.622 19.7612 35.902 19.4356C35.9126 20.4733 36.6458 20.685 37.4902 20.9285C39.9308 21.6327 43.3031 21.6062 45.8469 21.4712C46.7469 21.4235 47.6443 21.2462 48.5443 21.2144C48.5575 20.6453 48.4622 20.1106 48.7243 19.5812C48.8196 19.3906 49.0075 19.2556 49.0525 19.0518C48.944 18.9591 47.6866 19.3986 47.4272 19.425C46.2493 19.5521 45.2275 18.7368 44.1634 18.3847C45.3308 17.805 46.6728 17.2571 47.9752 17.7177C47.9302 17.2253 48.0546 16.5292 48.486 16.2274C48.5893 16.1533 48.7772 16.14 48.8328 16.0659C49.0128 15.8224 48.9122 15.1527 49.5025 14.9542C49.5581 14.9356 50.511 14.978 50.6751 14.9859C51.0775 15.0045 51.5407 15.0706 51.9457 15.1156C52.086 15.1395 52.041 15.0521 52.0437 14.9542C52.0516 14.7742 51.9801 14.6206 51.9748 14.4486C51.9298 13.223 52.1496 10.6898 51.3422 9.76067C51.2787 9.6892 50.8393 9.31332 50.7704 9.29214C50.5216 9.21273 50.4184 9.4642 50.2146 9.5092C49.4893 9.67332 49.296 8.60656 48.7084 8.69391C48.4913 8.72567 48.1922 9.17302 47.7105 9.22596C47.4166 9.25773 47.0937 9.04861 46.8952 9.1042C46.5299 9.20479 46.2916 9.74214 45.7543 9.81626C45.4393 9.85861 45.0555 9.62302 44.9072 9.66008C44.7828 9.69184 44.5102 10.0836 44.3487 10.1842C44.2058 10.2715 43.7928 10.4118 43.6287 10.4065C43.184 10.3933 42.0881 9.76596 41.8473 9.39273C41.5878 8.99038 41.7784 8.77597 41.0823 8.82361C40.5317 8.86067 40.6773 9.03802 40.3834 9.33449C40.1082 9.61243 39.7587 9.65214 39.3776 9.57273C38.8614 9.4642 39.1949 9.40596 38.5279 9.45361C37.8608 9.50126 37.6596 8.9745 37.4558 8.97185C37.0852 8.97185 35.9999 9.95125 35.8226 10.3033C35.5129 10.9095 35.5155 12.9583 35.5817 13.6836C35.6161 14.0727 35.6929 14.4327 36.0899 14.5756L35.6452 14.4803C35.5923 14.5359 35.6744 15.8462 35.7088 16.0368C35.7644 16.3306 36.3732 16.5715 36.5955 16.7383L38.3743 17.4662C37.5935 17.4847 36.9026 17.265 36.2832 16.7939C36.1852 16.7197 35.8358 16.3253 35.8014 16.3227C35.6452 16.3121 35.7696 16.4736 35.7696 16.4815L35.7749 16.4842ZM50.3257 9.08038C50.2516 8.8395 50.1299 8.7945 49.881 8.82626C49.9843 9.06185 50.0557 9.19949 50.3257 9.08038ZM52.994 13.7842L53.1104 13.3871L52.7398 12.7677C52.7054 13.3739 52.6207 13.9403 52.7398 14.5465C52.7743 14.5836 53.4916 14.4062 53.6584 14.4168C53.849 14.4274 54.9739 14.6842 55.1698 14.753C55.5589 14.8933 55.7257 15.1448 55.7257 15.563C56.1281 15.2612 56.1042 14.1415 55.6569 13.8848C55.3154 13.6915 55.1831 13.8848 54.9475 13.8371C54.5954 13.7709 54.2407 13.2177 53.6451 13.5115C53.4784 13.5936 53.5313 13.7683 53.4651 13.7868C53.3513 13.8186 53.1316 13.7577 52.9966 13.7815L52.994 13.7842ZM55.2651 15.0071C55.0057 14.7477 54.5769 15.0495 54.3175 15.023C54.1216 15.0018 53.8992 14.8059 53.6928 14.7662C53.2587 14.6842 52.7266 14.9859 52.4937 15.3539C52.4434 15.4333 52.2819 15.7853 52.2978 15.8462C52.3348 15.9997 53.2719 15.9865 53.3434 15.8833C53.3937 15.8118 53.3857 15.4703 53.5895 15.5048C53.7616 15.5339 53.8304 16.0077 53.9151 16.0077L54.1375 15.8171C54.0687 16.0447 54.0342 16.4312 54.2963 16.0712C54.5266 16.3862 54.5187 15.8436 54.7728 15.7536C54.786 15.9706 54.5266 16.1797 54.6139 16.3889C54.9925 16.2221 55.6357 15.3724 55.2678 15.0071H55.2651ZM51.2257 16.5662C51.374 16.7965 52.1945 16.4921 52.1548 16.058C52.1416 15.915 51.8425 15.338 51.7234 15.2798C51.5196 15.1818 49.8149 15.2374 49.5634 15.3433C48.9678 15.5974 49.3013 16.1242 49.1531 16.3306C49.0419 16.4868 48.2743 16.3677 48.224 17.1194C48.1684 17.9559 48.764 17.903 49.2881 18.353C49.6613 18.0697 49.7328 17.7177 50.2913 17.6621C50.9319 17.5959 51.1146 17.8474 51.5937 18.1703L51.5301 17.2809C51.6943 17.3603 51.7207 17.9427 51.8796 17.9797C52.0834 18.0274 52.0463 17.6224 52.0675 17.5986C52.1443 17.5112 52.229 17.6197 52.2766 17.588C52.3057 17.5668 52.2687 17.4874 52.3243 17.4715C52.4804 17.4318 52.3984 17.6674 52.5784 17.6647C52.7928 17.6647 52.8113 17.0347 53.1475 17.723L53.5604 17.4715L53.4969 17.9797C53.849 17.9718 54.0713 17.6171 54.4472 17.6621C54.5213 17.5853 54.1454 16.553 54.0501 16.4736C53.9442 16.3862 52.8245 16.3042 52.6419 16.3333C52.3534 16.3809 52.0569 16.7277 52.0993 17.0294C51.9272 17.0639 51.9854 16.9156 51.8293 16.823C51.1569 16.4339 50.2463 17.4821 49.5581 17.535C50.016 17.1089 49.8175 17.1353 49.6216 16.6456L49.9393 16.8362C49.934 16.7145 49.9604 16.4895 50.0663 16.4206C50.1352 16.3756 50.1616 16.4947 50.2252 16.4947C50.2966 16.4947 50.3337 16.3253 50.511 16.5186V16.2645C50.744 16.4259 50.7863 16.778 50.8604 16.2645L50.9557 16.5186C51.0775 16.553 51.1066 16.4233 51.2099 16.3915C51.2151 16.4445 51.194 16.5239 51.2231 16.5662H51.2257ZM59.3919 15.8356C59.2701 15.6874 57.8989 15.2771 57.6554 15.2533C56.8401 15.1686 56.2419 15.735 56.2339 16.5503C56.2339 16.7144 56.2736 17.1327 56.2948 17.3153C56.3028 17.3974 56.3054 17.4953 56.3954 17.535C56.5595 17.6065 56.5225 17.5244 56.5595 17.445C56.6998 17.1486 56.8401 16.868 56.9989 16.5821C57.1339 16.5821 57.0942 16.8309 57.1604 16.8415C57.2928 16.86 57.4331 16.7568 57.5707 16.7727L56.9354 17.3762C57.1154 17.4636 57.2266 17.1274 57.3801 17.0903L57.1895 17.6621C57.6607 17.3894 58.0736 16.958 58.6507 16.8997L57.6342 17.7256L58.2986 17.5959L58.8413 17.6621L57.4436 18.1094L58.206 18.5224L57.4436 18.4271C57.5204 20.0603 58.963 19.8512 59.7651 18.8083C60.5169 17.8342 59.6566 17.805 59.5057 17.1592C59.413 16.7595 59.646 16.14 59.3972 15.8383L59.3919 15.8356ZM55.9798 16.2618C55.776 16.3015 55.6172 16.4286 55.4107 16.4868C55.2042 16.545 54.7992 16.4974 54.6907 16.7197C54.5716 16.9686 54.6563 17.6065 54.8337 17.8183C55.2122 18.2683 55.3472 17.9003 55.6278 17.6568C55.7178 17.5774 55.8978 17.5403 55.9454 17.4662C56.0434 17.31 56.0831 16.3545 55.9772 16.2592L55.9798 16.2618ZM55.8528 22.0456C55.866 22.0324 55.8422 21.7518 55.8686 21.6459C56.0169 21.0397 56.8428 21.0027 57.1789 20.4785C57.5416 19.9094 57.2795 19.8194 57.1657 19.3033C57.0519 18.7871 57.1578 18.3953 56.6495 18.0406C56.2578 17.768 55.3869 18.0115 55.4107 18.5489C55.2836 18.6786 54.7357 18.0327 54.5398 17.9903C54.3281 17.9427 53.5366 18.0591 53.7034 18.3503C53.7219 18.3821 54.2169 18.6097 54.3254 18.7103C54.7251 19.0783 54.5398 19.5441 54.8072 19.9465C54.9395 19.8247 54.8231 19.6421 54.8654 19.5018C54.9687 19.1391 55.1169 19.4621 55.2625 19.4859C55.3366 19.4965 55.4398 19.4224 55.4742 19.4409C55.4954 19.4515 55.3181 19.703 55.7919 19.6315C55.9136 19.7241 55.4372 19.9333 55.4107 19.9809L55.7919 20.0762L55.4134 20.3621C55.4134 20.4865 55.9242 20.5844 55.7945 20.7115C55.7072 20.7935 55.3366 20.828 55.2069 20.7724C55.1248 20.738 55.1989 20.6241 55.0984 20.648V21.0927C54.9289 21.1403 54.8284 20.7724 54.7489 20.7777C54.7013 20.7803 54.6828 20.9259 54.6378 20.9524C54.5795 20.9868 54.4737 20.9471 54.4181 20.9868C54.2725 21.0874 53.6795 22.0218 53.706 22.1382C53.8198 22.6518 54.9607 21.8497 55.2598 21.855C55.4107 21.855 55.7257 22.1832 55.8607 22.0509L55.8528 22.0456ZM46.7363 19.0597C47.0143 19.0941 47.3955 19.0597 47.6893 19.0597C47.6999 19.0597 47.8746 18.9962 47.8481 18.9327L47.1519 18.7077L46.6437 18.4244C47.4537 18.4456 48.2452 18.7289 49.0578 18.7421C48.9069 18.4615 48.6687 18.3927 48.3907 18.2974C47.3663 17.948 45.9819 17.8474 44.9522 18.2286C44.8649 18.2603 44.8437 18.2047 44.8622 18.3609C45.4711 18.4933 46.1196 18.9883 46.7363 19.0597ZM51.3422 19.8221C51.2443 19.0174 51.5169 17.8315 50.2993 17.985C49.6057 18.0724 49.7513 18.5039 49.5793 18.9168C49.5343 19.028 49.4019 19.0968 49.3463 19.1921C48.9016 19.9333 48.4596 20.8941 49.4866 21.3944C50.3204 21.7994 50.6354 21.4632 51.2151 20.873L50.5163 21.0318L50.961 20.6506C50.8128 20.6321 50.5799 20.6188 50.5163 20.46C50.691 20.4574 50.8949 20.4335 51.0246 20.3012L50.4528 20.0471L50.8975 20.0788L50.5799 19.5706L50.961 19.7612L50.8657 19.253L51.3422 19.8247V19.8221ZM52.3587 20.3938C53.5048 20.7221 54.7781 20.5712 54.2963 19.0624C53.9389 18.9115 53.1766 18.0671 52.8748 18.0141C52.5731 17.9612 51.5963 18.5277 51.5354 18.84C51.501 19.0094 51.591 19.9491 51.7551 19.9491C51.9987 19.56 52.311 18.4271 52.1681 19.695L52.6446 19.2503L52.3587 19.7586C52.5943 19.7083 52.8034 19.5865 53.0575 19.6315C53.2163 19.7506 52.6313 19.9306 52.6128 19.9491C52.3904 20.1821 53.0072 19.92 52.994 20.0735C52.7901 20.1609 52.4778 20.1953 52.3587 20.3912V20.3938ZM36.0926 21.4103C36.9238 21.6909 37.7576 21.9291 38.6232 22.0879C40.484 22.4294 42.6202 22.5512 44.5155 22.4929C45.2646 22.4691 48.126 22.3315 48.6555 22.0588C48.711 22.0297 49.1796 21.6671 49.1822 21.6327C49.1875 21.548 48.9784 21.5321 48.899 21.5347C48.3405 21.5585 47.6893 21.7385 47.1175 21.7915C44.3169 22.0429 38.8429 22.1885 36.3467 20.9365C35.9364 20.73 35.6823 20.558 35.5394 20.0894C35.3091 19.3244 35.6744 18.5621 34.5255 19.1736C33.9988 19.4541 33.3 20.3885 33.0114 20.5183C32.9823 20.5315 32.9082 20.5341 32.9161 20.4865C33.2497 19.9862 33.7552 19.6527 34.1867 19.2477C33.0458 19.4833 32.0029 20.28 31.7064 21.4368C31.7144 24.2559 31.672 27.0803 31.7753 29.8888C31.7911 30.2991 31.6667 31.3394 31.905 31.6014C32.6567 32.4326 34.1655 32.9832 35.1396 33.5126C33.7764 33.4623 32.67 32.7291 31.7726 31.7655C31.8573 32.647 31.8467 33.097 32.535 33.7032C34.7902 35.6911 42.059 35.8685 45.0237 35.7705C48.0281 35.6726 51.7922 35.2279 54.6166 34.1796C55.3631 33.9017 56.9142 33.2744 57.0016 32.3717C57.1869 30.4553 56.9672 27.9723 56.9328 26.0162C56.9089 24.6635 56.9831 23.2924 56.8719 21.9477C56.8401 21.5744 56.7766 21.3891 56.3345 21.4685C56.0063 21.5294 55.9084 22.1038 56.3001 22.1991C56.0725 22.44 56.0036 22.935 55.5801 22.9112C54.9528 22.8768 55.1592 22.1991 54.9978 22.1674C54.8839 22.2097 54.4234 22.4479 54.3995 22.5247C54.3413 22.7153 54.9872 23.1759 55.1513 23.2871C55.4769 23.5147 56.8057 24.1156 56.3716 24.6821C56.0725 25.0712 54.6034 24.6662 54.2063 24.4544C54.156 24.5047 54.6537 25.5953 54.7489 25.7223C54.9845 26.0294 56.1995 26.1723 55.8898 26.8076C55.6595 27.2762 54.7542 26.9506 54.6484 26.4582L54.3969 25.852C54.3334 27.03 53.5366 27.7023 52.8087 28.4911C52.7822 28.5203 52.3957 29.145 52.3613 28.867C52.4646 27.75 51.9537 26.6303 52.2528 25.5212C52.4354 24.8382 53.1263 24.4147 53.5048 23.8535C53.3619 23.6603 53.0998 22.7259 52.9648 22.6756C52.7425 23.0965 52.2316 23.0197 51.8398 22.9112C51.4243 22.7974 51.1913 22.4188 50.8763 22.9985C50.6857 23.3479 50.6804 23.6021 50.331 23.9144C49.8413 24.3538 48.9493 24.4756 48.5205 24.9018C48.4569 24.9653 48.4569 25.0923 48.4066 25.1347C48.261 25.2591 48.0228 25.2168 47.9805 24.9918C47.9381 24.7668 47.9593 24.1103 47.9805 23.8509C48.0149 23.3982 48.134 22.9429 48.3616 22.5485C47.5993 22.6756 46.8184 22.7629 46.0455 22.8053C43.2899 22.9562 40.3967 22.8662 37.739 22.0853C37.2017 21.9265 36.532 21.7624 36.1005 21.405L36.0926 21.4103ZM58.5845 20.3938C58.2298 20.3303 57.9757 20.0206 57.6951 19.8221L58.2033 20.9656C58.0233 21.0371 57.6157 20.4865 57.568 20.5209C57.3775 21.1006 57.1922 21.2621 57.8936 21.4341C58.1213 21.4897 59.8419 21.6697 59.9186 21.6009L59.3336 20.5659C59.0769 20.0524 58.6348 19.8856 58.0763 19.9491C58.1028 20.0524 58.2616 20.0577 58.3622 20.1397C58.4416 20.2033 58.5395 20.3012 58.5845 20.3938ZM54.5372 20.5421C54.7516 20.4097 55.0269 20.4203 54.9607 20.0762C54.8839 20.1583 54.1587 20.6109 54.2619 20.7115C54.389 20.8306 54.5081 20.558 54.5345 20.5421H54.5372ZM51.5963 21.4103C51.5963 21.3203 51.6307 20.91 51.501 20.9047C51.4454 20.9021 50.9346 21.368 50.8949 21.4394C50.7996 21.6062 50.7916 22.1647 50.9028 22.3262C51.014 22.4877 52.1072 22.6518 52.3666 22.7762C52.7398 22.6068 53.9681 21.3785 53.8781 21.008C53.8145 20.7512 52.7107 20.7538 52.3904 20.648C52.266 20.6083 52.0648 20.5156 51.9563 20.4441C51.8001 20.3409 51.689 19.965 51.4084 20.325C51.7048 20.2694 51.6334 20.55 51.6625 20.5818C51.6863 20.6056 51.816 20.505 51.914 20.5474C52.1363 20.64 52.5704 21.2038 52.8695 21.3124C52.6843 21.4632 52.2316 20.91 52.1072 21.0265L52.266 21.5347C52.1363 21.5082 51.9298 20.8333 51.7896 20.963C51.771 21.1112 51.7578 21.3441 51.599 21.4077L51.5963 21.4103ZM50.1352 21.7915C49.5184 21.6035 49.2537 21.9582 48.9652 22.4321C48.576 23.07 48.2875 23.9012 48.2928 24.6503C49.3199 24.1738 50.9981 23.5544 50.5799 22.1091C50.4607 21.9847 49.979 22.8424 49.9075 22.9297C49.8334 23.025 49.7434 23.1044 49.6587 23.1891C49.5634 22.9932 50.1934 22.2388 50.1352 22.1727L49.4363 22.7444L50.1352 21.7915ZM55.9798 24.4597C56.001 24.3618 55.9692 24.3115 55.9189 24.2347C55.7734 24.0097 54.8442 23.4247 54.5504 23.1865C54.3863 23.0541 53.8384 22.4744 53.7219 22.4268C53.6451 22.3924 53.6054 22.4374 53.6292 22.5194C53.669 22.6597 54.1904 23.3241 54.1375 23.3771C53.7695 23.2553 53.5498 22.8927 53.2481 22.6782C53.5525 23.8853 54.7595 24.6688 55.9798 24.4571V24.4597ZM52.8669 26.1115C52.8643 25.8785 52.9569 25.6429 53.0443 25.4338C53.1925 25.0765 53.6531 24.4941 53.7272 24.2082C53.841 23.7582 53.4995 24.0362 53.3407 24.2056C52.274 25.3544 52.4037 26.7653 52.6128 28.2106C52.679 28.2609 53.5657 27.1067 53.6425 26.985C54.0528 26.3312 54.1189 25.6403 54.1401 24.8753C54.1454 24.7032 54.119 24.5603 54.0713 24.3988C53.9416 24.3009 53.4095 26.04 53.3725 26.1776C53.264 26.1935 53.3037 26.0268 53.3116 25.9579C53.3275 25.7779 53.4095 25.6032 53.3751 25.4179C53.1448 25.59 53.1343 25.9818 52.8669 26.1167V26.1115ZM55.5934 26.7441C55.7839 26.482 55.1513 26.1935 55.0269 26.3682C54.8681 26.5906 55.4531 26.9373 55.5934 26.7441ZM27.5797 45.4958V46.4169C27.5797 47.9628 29.8932 48.8681 31.1056 49.3101C37.3923 51.6051 46.9719 51.5204 53.5154 50.3054C55.3842 49.9587 59.7836 48.9501 60.9986 47.4969C61.4698 46.9357 61.2818 46.5652 61.3163 45.906C61.5016 42.3749 61.3666 38.767 61.2527 35.2358C61.2263 34.3967 61.303 33.5523 61.1283 32.7238C60.0192 34.2405 57.9572 34.9605 56.1995 35.4502C50.924 36.9246 44.3725 37.2979 38.9223 36.7896C36.5161 36.5646 30.5841 35.6858 29.017 33.7985C28.4559 33.1235 28.3129 32.1414 28.9165 31.4532C27.9582 33.9705 31.1876 35.0135 33.0194 35.5164C37.1832 36.6546 41.7493 36.652 46.0375 36.472C49.9949 36.3052 55.3128 35.7652 58.9286 34.1135C59.4342 33.8832 60.8954 33.0758 60.8742 32.4458C60.8504 31.7602 59.421 30.9582 58.8651 30.7014C58.6798 30.6141 57.7507 30.1905 57.6316 30.2753C57.5072 30.3653 57.5336 32.0302 57.5019 32.3082C57.3298 33.7932 55.1672 34.5238 53.9363 34.9049C49.9181 36.149 44.6372 36.4005 40.447 36.1623C38.287 36.0379 33.5064 35.4926 31.9738 33.8964C31.0261 32.9091 31.4497 31.4452 31.1029 30.2461C29.9012 30.6961 28.4426 31.1911 27.7465 32.3505C27.0503 33.5099 27.3123 35.1829 27.3309 36.5064C27.3706 39.3493 27.4288 42.1764 27.5215 45.0219C27.5559 45.2152 28.3659 45.9616 28.5697 46.1363C29.6047 47.0125 30.87 47.6902 32.1432 48.156C32.8526 48.4154 33.7235 48.5584 34.3826 48.839C34.4594 48.8707 34.5573 48.9025 34.5732 48.9978C32.4926 48.7013 30.4544 48.1587 28.8265 46.7716C28.3738 46.3878 28.0297 45.8928 27.585 45.5037L27.5797 45.4958ZM68.6565 58.776C68.2118 58.7098 67.6268 58.8236 67.1636 58.776C67.108 59.3768 67.1583 60.0704 66.9598 60.6368C66.2159 62.7412 61.2448 64.3692 59.2357 64.9224C52.8298 66.6853 46.109 66.9024 39.4914 66.8494L38.0646 66.7197C38.3532 66.9739 38.8773 67.04 39.2479 67.0903C42.2973 67.5218 45.4578 67.228 48.5125 67.1591C49.0472 67.1486 49.6349 67.1406 50.1669 67.1591C50.2437 67.1618 50.4025 67.1115 50.3893 67.2227C47.6734 67.4715 44.9549 67.6833 42.2231 67.67C41.1193 67.5668 40.0526 67.6171 38.954 67.3815C38.4352 67.2703 37.9535 67.0506 37.4293 66.9686L38.6364 68.398C38.3108 68.4403 37.9323 68.1068 37.6835 67.8897C36.9714 67.2756 36.4155 66.3862 35.587 65.8542C35.6558 65.7456 35.7273 65.8859 35.7776 65.9177C35.8649 65.9759 36.3467 66.328 36.3811 66.328C36.4155 66.328 36.4976 66.2618 36.4129 66.1692C36.2567 65.9971 35.9708 65.9495 35.8411 65.7589C36.3626 65.9971 36.8152 66.1083 37.3976 66.0739C38.2896 66.0209 40.5714 65.285 41.2728 64.7398C41.3973 64.6418 41.924 64.0462 41.9743 64.0436C42.0458 64.0436 42.0643 64.1733 42.0564 64.2501C41.9637 65.0812 40.3305 65.7642 39.6555 66.0765C39.6502 66.1692 39.8832 66.1877 39.9493 66.1956C40.2326 66.2247 40.6111 66.2565 40.8917 66.2697C47.5358 66.5583 55.551 65.8462 61.798 63.5354C63.1242 63.0456 66.478 61.6586 66.658 60.0704C66.5309 56.031 66.8274 51.891 66.6606 47.8649C66.5574 45.3819 65.5859 44.4766 63.3968 43.5025C63.1374 43.3887 62.2771 43.0155 62.0521 43.0022C61.9171 42.9943 61.9701 43.0049 61.9542 43.0975C61.9013 43.8943 61.941 44.7202 61.8907 45.5143C61.8563 46.0463 61.8324 46.9543 61.5386 47.3857C60.5804 48.7834 56.1386 49.9534 54.4604 50.3451C49.8678 51.4198 45.1614 51.6819 40.447 51.5231C37.387 51.4198 29.7026 50.4616 27.6776 48.0263C26.8729 47.0602 27.0318 44.8102 26.8862 43.5449C26.8782 43.4681 26.8597 43.2193 26.7406 43.2696C25.4409 43.8546 23.768 44.466 22.8944 45.6519C22.1347 46.6869 22.3518 47.256 22.3147 48.4393C22.283 49.3975 22.2088 50.324 22.32 51.2901C22.3888 51.891 22.5 51.666 22.823 51.9307C23.3603 52.3701 23.2518 53.5031 23.3947 54.1225C23.6224 54.1569 23.8341 53.9981 24.0538 54.0033C24.2524 54.0086 24.7685 54.3183 24.7659 54.0563C24.7606 53.5984 24.7606 53.5084 24.9935 53.0875C25.0756 52.9392 25.83 51.8407 25.9041 51.7745C25.9835 51.7057 26.0126 51.6925 26.1238 51.7084C26.1688 52.3834 26.5103 52.9948 26.6135 53.6645C26.6506 53.9028 26.5844 54.2283 26.6744 54.4269C26.7115 54.5089 27.1429 54.6413 27.2832 54.7578C28.2282 55.5439 27.7835 56.7933 28.2944 57.5769C28.5962 58.0401 28.98 57.8839 29.4247 58.0348C29.9938 58.2254 30.7297 58.9401 30.9441 59.5039C31.2088 60.2054 31.087 60.9889 30.8885 61.6877C31.1717 61.4733 31.402 60.9836 31.5344 60.6501C31.7091 60.216 32.0003 59.1889 31.807 58.7654C31.7091 58.551 31.0473 58.146 31.0261 57.8972C30.9944 57.508 31.7567 57.1719 32.0929 57.2407C32.0003 57.4339 31.3941 57.8336 31.41 58.0348C31.4153 58.1036 31.7938 58.3974 31.8679 58.5139C32.2253 59.0618 32.0056 60.3245 31.7753 60.9254C32.4926 60.3615 32.5932 59.1386 33.0564 58.4901C33.7076 57.5769 34.3191 58.7919 34.2582 59.4589C36.3864 59.6786 38.5596 59.3424 40.6058 58.7654C40.5343 58.9004 40.3146 58.948 40.177 59.0036C38.8614 59.5198 37.477 59.7607 36.0661 59.848C35.7988 59.8454 34.3191 59.5992 34.2 59.668C34.1761 59.6813 33.9855 60.0201 33.8717 60.1339C33.3741 60.6289 32.5905 60.8936 32.0903 61.4045C32.31 61.4627 32.6726 61.7989 32.8711 61.7459C32.9876 61.7142 33.4138 61.1954 33.5964 61.0683C33.8876 60.8645 34.3376 60.6686 34.6976 60.6765L33.7155 61.3118C32.5508 62.2515 33.0194 62.8339 32.6064 63.9509C32.5191 64.1839 32.347 64.3242 32.2861 64.5518C34.0517 63.9695 34.4408 62.3415 35.2614 60.9518C35.6214 60.3404 35.5076 60.8486 35.4441 61.198C35.2323 62.323 34.7399 63.5565 33.84 64.2977C33.6441 64.4592 33.3688 64.528 33.2391 64.7424C33.9379 64.4327 34.5123 63.8662 35.2297 63.5883C37.5193 62.7015 39.0414 64.5836 41.2464 64.5545C41.2649 64.5677 41.212 64.6365 41.1828 64.6498C40.2167 65.105 37.9879 63.8742 36.8285 63.7921C35.6691 63.7101 34.5282 64.1812 33.6202 64.8059C34.1285 65.0442 34.3614 64.8271 34.8114 64.7583C35.3223 64.6815 36.3388 64.5995 36.8258 64.6815C36.8999 64.6948 36.9767 64.7186 36.9873 64.8059L35.3355 64.9648C35.4864 65.1315 35.7326 65.0362 35.9311 65.068C36.2064 65.113 36.5585 65.1792 36.8232 65.2559C36.9449 65.293 37.1302 65.2983 37.1779 65.4412L35.3991 65.2506C35.4705 65.3883 35.7246 65.3936 35.8623 65.4545C35.9364 65.4889 36.0635 65.5709 35.8782 65.5656C35.5579 65.5392 34.6499 65.1077 34.4197 65.1183C34.3773 65.1183 34.417 65.2559 34.2979 65.2506C33.9273 65.2321 33.4085 65.015 32.9585 64.9912C32.5085 64.9674 31.8335 65.0336 31.3994 65.2189C30.4809 65.6053 31.8335 65.4306 32.0691 65.4386C34.0411 65.5021 35.6294 66.9633 37.0535 68.1412C37.0032 68.2365 36.8999 68.128 36.8443 68.0962C35.9708 67.6144 35.1952 66.95 34.2873 66.5212C34.2105 66.4947 34.1602 66.5371 34.1947 66.6139C34.2291 66.6906 34.7002 67.2439 34.7955 67.3471C35.6717 68.2974 35.8649 68.0459 37.0111 68.2444C37.5379 68.3344 38.4776 68.6362 38.9461 68.5118C39.0705 68.4774 39.404 68.2365 39.4649 68.3C39.4808 68.3159 39.4226 68.4483 39.5046 68.4933C39.5814 68.5356 40.1823 68.6124 40.3199 68.6203C43.4831 68.8215 47.7105 68.7262 50.8684 68.4271C55.911 67.948 65.6601 66.2195 69.0721 62.233C69.5247 61.7062 70.1018 60.8592 69.9589 60.1365C69.9192 59.938 69.4533 59.7024 69.2918 59.533C69.0747 59.3054 68.9292 58.8077 68.6592 58.768L68.6565 58.776ZM72.1188 47.9099C72.0209 47.8913 71.9706 47.9204 71.8938 47.9707C71.6318 48.1401 71.2136 48.5981 70.9065 48.8257C70.1415 49.3896 69.1965 49.7628 68.593 50.5145C67.8545 51.4331 68.008 53.0531 68.7227 53.9451C68.8868 53.9716 68.7915 53.7625 68.8524 53.6301C69.0827 53.1298 70.0012 52.8572 70.438 52.4813C71.7138 51.3881 71.5709 49.3684 72.1215 47.9072L72.1188 47.9099ZM72.1188 54.3289C72.8627 54.3236 73.805 52.3701 72.9447 52.1292C72.0844 51.8884 71.9203 53.8154 72.1188 54.3289ZM26.055 52.2298C25.9359 52.206 25.9015 52.2907 25.8379 52.3622C25.6924 52.5289 25.155 53.3575 25.1153 53.5481C24.9432 54.3898 25.6976 55.0754 25.8644 53.8207C25.9888 53.8604 25.9306 54.2654 25.9968 54.321C26.0524 54.3686 26.3832 54.3528 26.4256 54.2231C26.5923 53.7148 26.1026 52.7619 26.0524 52.2298H26.055ZM22.7356 52.3728C22.545 52.1451 22.0659 52.4389 22.1162 52.8281C22.148 53.0663 22.6933 54.096 22.8574 54.3104C22.8971 54.3633 22.8574 54.4269 23.003 54.3898C23.0771 54.2972 22.8415 52.4998 22.733 52.3728H22.7356ZM19.575 52.9313C19.4427 52.9048 19.4268 52.9975 19.3739 53.0769C19.2892 53.2013 18.945 53.9901 18.9424 54.1119C18.9318 54.3898 19.3712 54.6386 19.4347 54.8822C19.5406 55.2925 19.2362 55.9939 19.8292 56.1395C20.2024 56.2295 20.618 56.2401 20.9939 56.3513C21.2718 56.1554 21.4809 55.8377 21.7377 55.6286C21.9283 55.4725 22.1083 55.4142 22.2909 55.2951C22.3518 55.2554 22.4047 55.303 22.373 55.1548C21.5788 54.6545 21.4359 55.5413 20.9594 55.7425C20.5491 55.9145 19.9906 55.9251 19.7683 55.4725L20.1494 55.5995C20.1309 55.4301 19.9536 54.8689 20.0886 54.7736C20.1044 54.7631 20.3718 54.8504 20.4644 54.7736C20.5227 55.4248 20.8747 54.7286 20.9753 54.8372C21.0071 54.9033 20.7609 55.2872 20.9436 55.2792C20.9965 55.2792 21.5286 54.7657 21.8488 54.7207C21.9441 54.7075 22.0606 54.8107 22.1188 54.7392C22.0077 54.4136 21.5418 54.4904 21.3221 54.3289C21.2162 54.2495 21.1659 54.0086 20.9939 53.9583C20.9515 53.9451 20.2447 53.8789 20.1839 53.8842C19.7709 53.9107 19.6227 54.6439 19.4824 54.6439C19.1674 54.6439 19.6889 53.0636 19.5777 52.9286L19.575 52.9313ZM18.8762 53.3125C18.8445 53.2781 18.1112 53.646 18.0292 53.7042C17.4971 54.0828 17.9392 54.9536 18.0345 55.4566C18.1483 56.0548 18.2145 56.6557 18.368 57.2513C18.4686 57.193 18.5083 56.9363 18.54 56.8198C18.7068 56.2216 18.9318 55.3189 18.5903 54.7736C18.4236 54.9113 18.3547 55.1283 18.2092 55.2819C18.1324 55.3639 18.098 55.3904 18.1139 55.2501L18.8736 53.3098L18.8762 53.3125ZM70.8483 55.4089C71.1183 55.2448 71.6715 54.6757 71.6662 54.3581C71.6636 54.1251 70.8377 53.376 70.61 53.3257C70.1547 53.2198 69.2177 53.4289 69.0933 53.9478C68.9847 54.3951 69.6042 55.483 70.2103 55.3454C70.2341 55.3216 70.16 54.8636 70.3374 54.8372C70.3347 54.9536 70.2897 55.3878 70.4962 55.3454C70.6524 55.2395 70.6921 54.9589 70.9091 54.9642L70.8456 55.4089H70.8483ZM18.4289 58.4583C18.2912 58.101 18.053 57.7754 17.91 57.4207C17.558 56.5445 17.5209 55.6128 17.4759 54.6783L17.3489 54.0113C17.2668 54.2601 17.0736 54.4428 16.9756 54.6863C16.4356 56.0283 17.4442 57.6033 18.4289 58.4583ZM67.2906 56.2348H68.4024C68.4183 56.2348 68.7068 56.1713 68.6883 56.1077C68.5109 56.0522 68.323 56.0257 68.1456 55.9807C68.0398 55.9542 67.9603 56.0442 67.9921 55.8536L68.6274 55.8219C68.5903 55.6816 67.9762 55.4116 67.9921 55.3772C68.0874 55.1601 68.6592 55.4619 68.8497 55.4751C68.9292 55.4804 68.9821 55.4751 68.945 55.3798C68.8312 55.086 68.27 54.7022 68.0556 54.4586C68.5533 54.6201 68.9318 55.0542 69.2944 55.4116C69.395 55.0648 68.855 54.5195 68.585 54.3422C68.3415 54.1807 67.8042 54.0404 67.5156 54.0722C67.3727 54.0881 67.3701 54.231 67.3568 54.3633C67.3012 54.9854 67.288 55.6154 67.2933 56.2401L67.2906 56.2348ZM24.975 56.616C25.1841 56.5207 25.0809 56.2189 25.11 56.0204C25.1788 55.5598 25.5203 54.6995 24.9141 54.4851C24.5462 54.3554 23.1353 54.4004 23.0665 54.8742C23.0083 55.2898 23.6197 55.348 23.8315 55.5863C23.9982 55.7716 24.1015 56.113 24.0856 56.3645C24.4324 56.2825 24.4138 55.753 24.4985 55.4751C24.7235 55.806 24.8188 56.2454 24.975 56.6186V56.616ZM22.688 55.0913C22.7515 54.8557 22.6297 54.2654 22.3041 54.4851C22.0712 54.6439 22.6112 55.1786 22.688 55.0913ZM27.577 57.2486C27.6988 56.3248 27.7862 55.3878 26.8385 54.9086C25.5176 54.2389 25.2979 55.0251 25.3562 56.2348C25.5176 56.1686 25.5229 55.896 25.7374 55.9172L25.6103 56.3619L25.9279 56.0442L25.8009 56.4889C26.4468 55.8986 26.0524 56.5286 26.1185 56.616C26.1953 56.608 26.3647 56.346 26.4362 56.4254C26.5791 56.5816 26.1265 56.796 26.1238 56.8383C26.1106 56.9575 26.6638 57.3016 26.7935 57.3174C27.0582 57.3466 27.0768 57.156 27.1773 57.1348C27.2779 57.1136 27.4394 57.3016 27.5797 57.2513L27.577 57.2486ZM71.2294 56.6769C71.2744 56.7298 71.9812 57.0686 72.0791 57.0607C72.275 57.0422 73.2756 56.4704 73.3603 56.2957C73.3974 56.121 73.228 55.9569 73.1671 55.7875C73.0585 55.4883 72.95 54.9113 72.688 54.7419C72.1188 54.3766 71.7297 55.041 71.3565 55.3745L71.7377 55.3428L71.3565 55.851L71.9283 55.8828L71.2294 56.1051L71.7377 56.4227L71.5471 56.4545L71.7377 56.5525C71.7774 56.8066 71.0044 56.4095 71.2294 56.6769ZM23.1962 58.0771C23.3577 58.101 23.3921 57.9448 23.4344 57.8389C23.5562 57.5239 23.8156 56.4545 23.7547 56.1527C23.6038 55.4169 22.6165 55.2845 22.0553 55.6339C21.7615 55.8166 21.2718 56.6027 21.0547 56.6689C20.7397 56.7642 20.5306 56.4677 20.1812 56.4889C20.0144 56.4995 19.3342 56.7589 19.223 56.8701C19.0986 56.9945 18.7386 58.2492 18.7518 58.4266C18.8074 59.2101 20.2686 59.3477 20.8456 59.1598L20.4327 58.8421L21.4174 59.0963C21.2374 58.776 20.7636 58.678 20.7186 58.2704L21.6715 58.7786L21.3539 58.0163L21.9891 58.588C22.0262 58.2598 21.9283 57.9501 21.8621 57.6351C22.103 57.7913 22.0924 58.236 22.4338 58.2704C22.4497 58.1751 22.4894 58.0851 22.4974 57.9845C22.5133 57.8204 22.3968 57.3333 22.6244 57.381C22.6165 57.4895 22.6059 58.1989 22.8468 58.1433C23.0877 58.0877 23.0109 57.1586 23.228 56.9998C23.3603 57.1639 23.1512 58.0269 23.1962 58.0798V58.0771ZM69.8133 55.5492C68.8842 55.708 68.7783 57.058 70.2262 56.8516C71.4306 56.6795 70.9833 55.3507 69.8133 55.5492ZM18.3018 58.903C18.3309 58.7839 18.2356 58.7521 18.1748 58.6807C17.7142 58.1327 16.4859 57.0766 15.8665 56.7324C15.1095 56.3116 14.2068 56.0972 13.3465 56.0442C14.3154 57.1957 15.2736 58.5324 16.9042 58.6807C16.1365 58.146 15.4351 57.5266 14.8077 56.8383C14.7971 56.7907 14.8686 56.7986 14.9004 56.8066C15.3001 56.931 16.3615 57.606 16.7718 57.8601C17.2959 58.1857 17.7803 58.5748 18.3018 58.903ZM19.3209 56.1713C19.1118 56.3725 19.763 56.6186 19.763 56.3301C19.763 56.2586 19.358 56.1342 19.3209 56.1713ZM68.6883 56.4889H67.5765C67.5553 56.4889 67.3356 56.5895 67.3198 56.6133C67.3092 56.6319 67.2271 57.0077 67.2271 57.0289V58.363C67.2271 58.6039 68.2065 58.4874 68.3839 58.4398C69.0536 58.2651 69.2256 57.6774 69.5142 57.1242L69.133 57.2513L69.1012 57.0607L68.3706 57.4392L68.9424 56.8675C68.5903 56.886 68.2833 57.1057 67.9259 57.058C68.0742 56.7377 68.4924 56.751 68.6883 56.4863V56.4889ZM25.6103 59.4748H24.5938C24.5435 59.6733 24.8559 59.5913 25.0279 59.6442C25.1868 59.6945 25.3615 59.7713 25.4832 59.8877C25.2344 60.0068 24.8374 59.7766 24.6574 60.0465C25.245 60.0757 25.6738 60.5071 26.2773 60.4965C27.2012 60.478 26.4891 59.7051 26.4388 59.2471C26.4018 58.8977 26.6056 58.506 26.5632 58.0427C26.4679 56.9627 25.5626 57.1322 24.8453 56.9019C24.4588 56.7774 24.5012 56.4122 24.0803 56.8357C23.8077 57.111 23.6038 57.7198 23.715 58.0957C23.7627 58.2545 23.985 58.3154 24.083 58.4266C24.1809 58.5377 24.3106 58.858 24.4456 58.8951C24.6918 58.9639 25.2397 58.641 25.5441 58.8395L24.8003 59.0804L24.6547 59.2207C24.9459 59.2577 25.4012 59.2498 25.6076 59.4748H25.6103ZM71.7138 57.2089C71.6344 57.1401 71.0839 56.8251 71.0362 56.8701C71.0997 57.1269 71.2797 57.1719 71.293 57.471C71.3168 57.9766 70.8377 57.1057 70.7186 57.0607C70.6921 57.2089 70.9541 58.0401 70.8139 58.0771L70.3691 57.1877C70.2077 57.3995 70.303 57.6801 70.2739 57.9183C70.2633 58.0083 70.2341 58.1036 70.1468 58.0136C70.1177 57.9819 70.0621 57.373 69.9562 57.2222C69.9086 57.1533 69.8794 57.1666 69.8265 57.2169C69.5512 57.9051 68.7597 58.6939 69.5089 59.3821C70.0436 59.8745 70.303 59.4404 70.7662 59.3636C71.2983 59.2736 71.9547 59.4298 72.3438 58.8448C72.6271 58.416 72.0474 57.5054 71.7138 57.2116V57.2089ZM27.7015 58.768C27.63 58.8263 27.3573 58.7601 27.3918 58.6171C27.4632 58.3021 28.657 57.7092 27.6723 57.5716C27.397 57.5345 27.1535 57.598 26.8862 57.6324C26.9682 58.093 26.7326 58.5616 26.7512 58.9957C26.7671 59.3848 27.0556 59.8136 27.0106 60.2345L27.5188 59.9168C27.5718 60.5018 26.6294 60.883 26.1529 60.8751C25.4329 60.8645 24.5541 60.208 23.8447 60.3377C23.5218 60.396 23.1274 60.9465 22.8124 61.1557C22.5847 61.3065 22.238 61.3462 22.0527 61.603C22.0527 61.701 23.3497 62.8392 23.5324 62.9186C23.7282 63.0033 25.2794 63.2283 25.3535 63.1595C25.2953 62.8551 24.8585 62.7359 24.8453 62.3971L25.7347 62.9054C25.8194 62.7942 25.4435 62.0768 25.5124 61.8889C25.5679 61.7301 25.5838 61.8439 25.6262 61.9021C25.7321 62.0477 25.7718 62.2992 25.9253 62.3971C25.9385 62.2251 25.8856 61.6057 25.9915 61.5077C26.1741 61.3383 26.1662 62.0239 26.3065 62.0159C26.2774 61.7565 27.2462 60.801 27.3573 60.8115C27.4156 60.8168 27.4553 61.1133 27.577 60.9995C27.6512 60.9307 27.7253 59.7765 27.99 59.6018C28.0059 59.8851 27.9159 60.1815 27.8947 60.4595C27.8894 60.5283 27.847 60.6977 27.9582 60.6792C27.9953 60.2927 28.1197 59.8718 28.305 59.533C28.4056 59.3477 29.2394 58.4133 29.1653 58.3286C28.8767 58.318 28.4003 58.1566 28.1329 58.2121C27.7782 58.2863 27.757 58.7177 27.6988 58.7654L27.7015 58.768ZM22.7965 58.4742C22.373 58.5616 21.833 59.263 21.7959 59.6998C21.7562 60.1763 22.1533 61.0604 22.7012 60.9254C22.8124 60.8989 23.625 60.1604 23.768 60.0174C24.1015 59.6839 24.3132 59.4854 24.0962 58.9877C23.8659 58.4583 23.3233 58.3683 22.7965 58.4742ZM29.6762 61.3807C29.6762 61.3807 29.8032 61.3701 29.8614 61.4151C30.0335 61.5554 30.0097 61.7407 30.3961 61.6215C30.8806 61.4733 30.8859 59.5145 30.4041 59.1598C30.1606 59.1121 29.7423 58.5245 29.5835 58.5219C29.2817 58.5139 28.5882 59.6548 28.4585 59.938C28.4056 60.0545 28.1197 60.8354 28.1515 60.8698C28.2547 60.9836 28.2865 60.7824 28.3103 60.7454C28.44 60.523 28.5459 60.2768 28.6623 60.0439C28.7762 60.028 28.7232 60.1868 28.71 60.2504C28.6703 60.441 28.5538 60.6104 28.5353 60.8062C28.7682 60.5971 28.8476 60.2954 29.1706 60.171C29.2764 60.3113 28.7709 60.8618 28.7894 61.0604C29.9409 60.036 28.8635 61.378 28.98 61.5051C29.2315 61.4945 29.4406 61.1927 29.647 61.1239C29.8535 61.0551 29.647 61.3489 29.6762 61.3754V61.3807ZM31.8997 61.1901L33.1914 60.3536C33.5911 60.0518 33.9485 59.8321 33.9352 59.2551C33.93 59.046 33.7897 58.4769 33.4905 58.6145C33.2417 58.7283 32.8711 59.7792 32.715 60.0677C32.4926 60.4807 32.1803 60.8195 31.8997 61.1901ZM18.1774 59.3477C17.1318 59.2021 16.0359 59.3504 15.0671 59.7633C14.4477 60.0254 11.9463 61.566 13.8892 61.6983C14.8209 61.7618 14.1857 61.4548 14.3312 61.1292C14.4239 60.928 14.9189 60.711 15.0936 60.5548C15.2127 60.5945 14.8765 60.8645 15.0936 60.8698C15.128 60.8698 15.4324 60.711 15.5436 60.6845C15.7554 60.6342 15.9777 60.6236 16.1789 60.5574C16.4568 60.4621 16.5389 60.2027 16.8274 60.0624C17.0233 59.9671 18.4077 59.6918 18.1748 59.3477H18.1774ZM16.6527 60.4912C17.2933 60.4648 17.9789 60.4039 18.5745 60.1577C18.9795 59.991 19.9456 59.361 18.9 59.353C18.413 59.3504 18.405 59.6416 18.0927 59.803C17.7459 59.9857 17.2377 59.9883 16.8592 60.2213C16.7612 60.2821 16.6289 60.3483 16.6501 60.4886L16.6527 60.4912ZM21.3988 59.5542C21.2744 59.451 20.4406 59.451 20.2394 59.4748C19.6994 59.5357 19.1833 60.1101 19.1859 60.6501C19.1859 61.4362 20.8668 62.0054 21.473 61.6612C21.6053 61.5871 22.0183 61.0868 21.9574 60.9386C21.7906 60.5336 21.0124 60.9015 20.9065 60.8089C20.9197 60.5018 21.3512 60.5336 21.4783 60.3007C21.15 60.1921 20.8033 60.2504 20.4618 60.2345C20.5491 60.0307 21.8303 59.9089 21.3988 59.5516V59.5542ZM18.9397 60.4912C18.4845 60.5812 18.0133 60.7824 17.558 60.8565C17.1556 60.9227 16.7453 60.891 16.3642 60.9333C16.3006 60.9412 16.1445 60.9624 16.1471 61.0312C16.1471 61.161 17.6056 62.0451 17.8439 62.1298C18.5665 62.3839 19.4162 62.3548 20.1362 62.098C20.2368 62.0609 20.3056 62.1324 20.2765 61.9551C19.9059 61.9921 19.5856 61.918 19.2336 61.8227C19.0721 61.7804 18.2568 61.4654 18.1827 61.3807C18.135 61.3277 18.1562 61.243 18.2753 61.2562C18.4368 61.2748 19.2865 61.6083 19.3262 61.5712C19.313 61.3489 19.035 61.2695 18.9742 61.0657C18.9159 60.8777 18.9556 60.6818 18.945 60.4912H18.9397ZM28.2785 63.7339C28.5962 62.7201 29.5597 61.8465 27.9741 61.4654C27.3759 61.3224 26.8676 61.3754 26.55 61.9736C26.4176 62.2251 26.5129 62.2912 26.4838 62.4765C26.4653 62.6036 26.2879 62.6565 26.4044 62.9054C26.4441 62.9927 27.3256 63.6968 27.4209 63.7312C27.6247 63.808 27.3891 63.2865 27.4526 63.223L27.8338 63.5406L27.8656 63.1621C28.0456 63.2786 28.0641 63.4824 28.1462 63.6439C28.1806 63.7101 28.1144 63.763 28.2785 63.7339ZM31.6456 64.6233C31.7329 64.6948 31.9076 64.4486 31.9526 64.3904C32.49 63.7074 32.5323 62.9186 32.7308 62.1112C32.7308 61.7671 32.0744 61.7486 31.807 61.7671C30.9494 61.8227 30.7403 62.2912 31.6482 62.4659L31.5211 62.5295C31.5 62.7862 31.5529 63.0509 31.7117 63.2627L32.0929 63.0377C32.0929 63.3077 31.8891 63.4824 31.807 63.7365C31.7064 64.0489 31.7435 64.3268 31.6482 64.6259L31.6456 64.6233ZM20.7186 62.8762C20.6497 63.2918 20.7689 63.8715 20.7186 64.3056C21.3009 64.4856 24.4085 64.5174 24.6918 64.1151C24.7315 64.0568 24.6415 63.988 24.6282 63.988H22.9765C22.9394 63.988 22.8335 63.9006 22.7541 63.9245C22.7356 63.8424 22.8733 63.8239 22.9288 63.8133C23.5244 63.7233 24.1518 63.7868 24.7579 63.6095C24.8506 63.583 24.8691 63.6439 24.8506 63.4798C24.5356 63.5142 24.0962 63.2045 23.8527 63.1727C23.6938 63.1542 23.6356 63.2495 23.408 63.1754C22.8865 63.0059 22.14 61.9789 21.6953 61.9683C21.3644 61.9604 20.7741 62.5533 20.7212 62.8736L20.7186 62.8762ZM28.6597 64.5571C29.1467 64.5571 30.0309 65.4412 30.4067 65.4439C30.8064 65.4439 31.3306 64.6471 31.3094 64.2818C31.2988 64.1098 31.132 63.9536 31.14 63.7709C31.1453 63.628 31.2591 63.5168 31.2511 63.3368C31.2379 63.0642 30.9203 62.458 30.69 62.3071C30.3961 62.1112 29.7212 62.0583 29.4247 62.2436C29.1547 62.413 28.7841 63.0245 28.7365 63.3368C28.702 63.5618 28.8503 63.9509 28.6782 64.0568C28.6306 64.0859 28.297 64.1759 28.2415 64.1733C28.1594 64.168 28.0959 64.0727 28.0535 64.0753C27.9423 64.0753 27.9026 64.2951 27.6406 63.9906C27.8841 64.5518 27.4262 64.79 26.9418 64.8801C26.9365 64.6498 27.2276 64.5862 27.3229 64.4353C27.1085 64.4539 26.8279 64.4592 26.8147 64.1812L27.3229 64.1495C27.0873 63.9748 26.2112 63.1701 25.9676 63.1806C25.8829 63.1833 25.695 63.2495 25.6712 63.3554L26.4335 63.5459C26.1 63.5459 25.5468 63.5354 25.2688 63.7471C25.0835 63.8874 24.7129 64.5465 24.7235 64.7821C24.7474 65.2877 25.3959 66.2803 25.9597 66.2565C26.2271 66.2459 26.9179 65.4095 27.1668 65.2003C27.2382 65.1395 27.27 65.0468 27.3891 65.0733C27.1562 65.6133 26.1715 66.3333 26.8835 66.8812C27.3468 67.2359 28.4453 67.3603 28.9694 67.1327C29.3267 66.9792 30.2956 66.0342 29.9726 65.6636C29.7635 65.4253 28.8715 65.0018 28.5459 64.7689C28.3976 64.663 27.9185 64.4036 28.2732 64.2818C28.5988 64.1706 29.0991 64.1971 29.4432 64.2527C29.5597 64.2712 30.2241 64.4486 29.8323 64.5015C29.5888 64.5333 29.3691 64.4353 29.1335 64.4327L28.657 64.565L28.6597 64.5571ZM34.2502 68.1809C34.4726 68.9221 34.6632 68.9909 35.3805 69.1153C37.8635 69.5494 40.9684 69.7162 43.4937 69.7718C50.3813 69.9174 62.3433 68.9115 67.828 64.4301C68.5745 63.8212 69.3553 63.0536 69.7021 62.143C66.6448 65.375 62.0363 66.9183 57.7692 67.8421C52.1151 69.0677 45.8364 69.3986 40.0605 69.0703C39.3855 69.0306 38.7899 68.9247 38.1546 68.8797C37.6914 68.8453 37.2176 68.9856 36.7888 68.8453C36.5188 68.758 36.2593 68.5383 35.9655 68.4615C35.4546 68.3291 34.7797 68.3133 34.2476 68.1809H34.2502ZM21.4809 65.3856C21.4703 65.1421 21.6371 64.9992 21.7986 64.8456C21.7986 64.7371 21.0389 64.5809 20.9091 64.6233C21.0468 64.9065 21.203 65.2136 21.4809 65.3856ZM24.0856 64.7503C23.3074 64.8801 21.6212 64.7186 21.7377 65.9177C21.7456 66.0103 21.9891 66.7277 22.0394 66.8283C22.1691 67.0983 22.8627 67.4292 23.1512 67.4053C23.4106 67.3815 24.1227 66.9077 24.2788 66.688C24.3979 66.5186 24.7685 65.3698 24.66 65.2586C24.5356 65.1315 24.3291 65.5339 24.1835 65.5762C23.8606 65.6689 24.48 65.1368 24.4059 65.068C23.9771 65.1527 23.5853 65.4227 23.1353 65.3856C23.3391 65.0548 23.8527 65.0495 24.0882 64.7503H24.0856ZM33.9961 67.9268C33.5064 66.5371 32.5005 65.7218 31.0103 65.6398C31.3994 66.3545 31.6456 67.3206 32.4847 67.6277C32.6647 67.6939 33.9352 67.9797 33.9961 67.9268ZM33.8691 69.5177C33.8691 69.5177 33.7632 69.5018 33.7129 69.4541C32.9426 68.7394 31.8361 68.0115 31.3597 67.1036C31.2485 66.8944 30.9361 65.9945 30.8223 65.9256C30.6979 65.8489 30.3511 65.8992 30.277 66.0209C30.1923 66.1612 30.7588 67.3233 30.8753 67.5244C31.3782 68.4112 32.7282 69.7877 33.84 69.6421C33.8955 69.65 33.877 69.523 33.8717 69.515L33.8691 69.5177ZM25.0385 66.7197L24.8479 66.0209C24.6732 66.6112 23.6144 67.8024 24.21 68.3424C24.308 68.4297 25.1735 68.7262 25.3297 68.75C26.0841 68.8586 26.9629 68.1491 27.4526 67.6409L26.5871 67.0162C26.5156 66.9447 26.3726 66.6615 26.3303 66.6536C26.1344 66.6139 26.0179 66.8892 25.7374 66.5953L25.7056 66.9765C25.5679 66.9077 25.3853 66.3015 25.3562 66.2777C25.1603 66.1294 25.1947 66.7171 25.0412 66.7224L25.0385 66.7197ZM35.0761 68.0538C34.6182 67.498 34.0649 66.8733 33.5223 66.3995C33.4561 66.3439 33.0961 66.0342 33.0432 66.0844C33.21 66.3836 33.4561 66.6271 33.6414 66.9156C33.75 67.0877 34.0808 67.7944 34.1391 67.8474C34.2502 67.9506 34.8935 68.0486 35.0761 68.0538ZM17.5395 66.148C17.513 66.1189 16.9492 66.3015 16.883 66.3386C16.6739 66.4603 17.325 66.9209 17.4124 66.8468L17.5395 66.148ZM30.1844 66.5292C30.0044 66.365 30.1156 66.7277 30.0917 66.7806C30.0653 66.8468 29.9382 66.8865 29.9303 66.9712C30.1447 66.9342 30.2241 67.0533 30.375 67.1618C30.3829 67.0612 30.2161 66.5583 30.1844 66.5265V66.5292ZM31.1373 68.2444C30.9626 68.1333 30.5656 67.4609 30.457 67.4292C30.2453 67.3656 29.2394 67.7256 28.9138 67.6753C28.8953 67.8394 28.9138 67.7759 29.0065 67.8024C29.6814 68.0009 30.4385 68.1491 31.1373 68.2444ZM34.0597 68.3715C34.0067 68.3344 33.3 68.6521 33.3 68.7209C33.8558 69.1921 34.4091 69.3112 34.0597 68.3715Z" fill="white"/>
<path d="M68.7491 61.6373C68.3706 62.4711 67.6056 63.0958 66.838 63.5696C65.9221 64.1361 64.8315 64.5914 63.7939 64.8772L66.8115 63.2281C67.2906 62.9105 67.7962 62.5478 68.2118 62.1481C68.2806 62.082 68.6459 61.5314 68.7491 61.6373Z" fill="white"/>
<path d="M22.8785 47.2745L23.0691 47.4016C23.0506 47.2136 23.0585 46.131 23.2915 46.131C23.4 46.131 23.7812 47.428 23.9956 47.7139C25.0968 49.1724 29.475 50.3186 31.2776 50.7262C38.2817 52.3171 46.4399 52.4045 53.5234 51.2662C56.4616 50.7951 63.0104 49.2465 64.8739 46.8589C65.3398 46.2633 65.2524 45.7657 65.3212 45.0483C66.3589 46.4963 64.8024 47.7854 63.6642 48.5054C59.2224 51.3112 51.9272 52.2986 46.739 52.4839C40.7064 52.6983 34.1497 52.333 28.3606 50.5304C26.1979 49.858 24.5462 49.2704 23.0082 47.5577C22.9606 47.5048 22.8388 47.3248 22.8812 47.2719L22.8785 47.2745Z" fill="white"/>
<path d="M53.121 60.9995C53.1051 60.8909 53.2719 60.9306 53.3407 60.9359C54.209 61.0048 55.0719 61.145 55.9507 61.1292C60.2574 61.0497 63.9368 58.8183 65.5409 54.771L65.9539 53.6274C65.3742 57.8336 62.0283 60.8168 57.8539 61.2509C56.2869 61.415 54.6537 61.3515 53.121 60.9968V60.9995Z" fill="white"/>
<path d="M37.6808 56.2349L37.072 56.4837C34.0411 57.3307 30.682 56.6584 28.4056 54.4561L30.5232 55.6102C32.7891 56.6743 35.2561 56.7616 37.6808 56.2349Z" fill="white"/>
<path d="M63.5398 54.8374C60.8742 56.7327 57.3483 57.4368 54.1375 56.7433C54.1216 56.6374 54.291 56.6745 54.3625 56.6771C55.3022 56.7089 56.271 56.8095 57.2186 56.7433C59.3919 56.5871 61.5651 55.6792 63.5424 54.8374H63.5398Z" fill="white"/>
<path d="M45.8787 59.1572C45.614 59.5675 45.209 59.8745 44.8199 60.1604C43.3508 61.2404 41.6249 61.9207 39.7799 61.9498L41.2093 61.5713C42.427 61.2033 43.5864 60.6766 44.6664 60.0069L45.8787 59.1545V59.1572Z" fill="white"/>
<path d="M48.674 55.2184C48.396 55.4593 47.8534 55.5387 47.4907 55.5916C46.0005 55.8007 44.1872 55.6975 42.9564 54.7737C44.7775 55.5016 46.7575 55.5863 48.674 55.2184Z" fill="white"/>
<path d="M60.1727 59.2207C60.0854 59.4086 59.871 59.4669 59.6963 59.5383C58.2933 60.1233 56.7978 60.118 55.3075 60.0492C55.0322 60.036 54.7463 59.9328 54.4525 59.983L54.6748 59.9195C56.5648 59.9645 58.3833 59.8454 60.1701 59.2207H60.1727Z" fill="white"/>
<path d="M44.354 58.9031C43.0437 60.0095 41.3125 60.4913 39.6528 60.809C39.6714 60.7031 39.7773 60.6951 39.8567 60.6634C40.2961 60.4966 40.8308 60.4119 41.2887 60.2531C42.3502 59.8878 43.3481 59.3928 44.354 58.9031Z" fill="white"/>
<path d="M28.5962 52.4204C28.2706 52.2139 27.9715 51.6236 27.5294 51.7612C27.0873 51.8989 27.4606 52.4786 27.4209 52.8015C27.09 52.4521 26.9285 51.6765 27.4712 51.4515C27.8523 51.2927 28.5326 52.0392 28.5962 52.4204Z" fill="white"/>
<path d="M61.3798 57.1243C60.9483 57.4578 60.3024 57.6351 59.7677 57.7675C59.1324 57.9237 58.476 58.0454 57.8221 58.0137C57.8116 57.9184 57.9916 57.921 58.063 57.9051C58.5739 57.8072 59.0874 57.7966 59.6142 57.6775C60.2177 57.5399 60.7789 57.2672 61.3798 57.1243Z" fill="white"/>
<path d="M64.6224 52.5473C64.5774 52.4997 64.9745 52.047 65.0327 51.9755C65.2736 51.687 65.5409 51.3932 65.8268 51.1497C65.6812 51.7585 65.0803 52.1688 64.6198 52.5473H64.6224Z" fill="white"/>
<path d="M66.2715 49.1169C66.0571 49.6252 65.7209 50.0858 65.2551 50.3875L65.9565 49.3419L66.2715 49.1169Z" fill="white"/>
<path d="M23.4106 50.8721C23.5641 51.0415 23.7388 51.2029 23.895 51.3724C23.9056 51.42 23.8315 51.4147 23.8024 51.4041C23.4927 51.2771 22.7938 50.4803 22.6906 50.1335C22.9791 50.3321 23.183 50.6153 23.4133 50.8721H23.4106Z" fill="white"/>
<path d="M62.3962 60.6208C61.9515 61.0814 61.3215 61.3276 60.7445 61.5738C60.8054 61.452 60.9695 61.3779 61.0833 61.3091C61.5015 61.0629 61.9595 60.8353 62.3962 60.6208Z" fill="white"/>
<path d="M23.7044 50.1971C23.6197 50.2871 22.7912 49.3713 22.815 49.1807C22.9871 49.3077 23.1485 49.4665 23.2915 49.6254C23.3497 49.6889 23.7468 50.1521 23.7018 50.1971H23.7044Z" fill="white"/>
<path d="M23.4503 52.2298C23.13 51.9784 22.7938 51.6157 22.688 51.2134C22.9606 51.5204 23.2994 51.8381 23.4503 52.2298Z" fill="white"/>
<path d="M64.4927 56.2348C64.5615 56.3063 63.9712 56.8648 63.8892 56.9337C63.8177 56.9945 63.786 57.0872 63.6668 57.0607C63.7118 56.9548 64.3948 56.1343 64.4927 56.2348Z" fill="white"/>
<path d="M65.3649 52.8556L64.5393 53.6809L64.6048 53.7464L65.4304 52.9211L65.3649 52.8556Z" fill="white"/>
<path d="M68.6248 53.5003C68.5056 52.7776 68.5745 52.0868 68.8471 51.4038C68.8789 51.3244 69.1092 50.8506 69.133 50.8321C69.1409 50.8268 69.2653 50.8082 69.2574 50.8612C69.1674 51.1497 69.0642 51.4462 68.9901 51.7374C68.9689 51.8221 68.8709 51.8591 69.0351 51.8459L71.0362 49.5588C70.6577 50.4271 69.98 51.1179 69.4851 51.9147C69.2045 52.3673 69.0192 52.8359 68.7809 53.307C68.7439 53.3812 68.7227 53.4818 68.6248 53.4976V53.5003Z" fill="white"/>
<path d="M15.3821 65.6396L14.8739 64.9408C15.2233 64.9144 15.7024 65.3591 15.3821 65.6396Z" fill="white"/>
<path d="M28.1515 65.2586L27.9609 65.1315L27.8973 65.5127C27.8656 65.4518 27.8762 65.1395 27.7385 65.195C27.5479 65.2718 27.3732 65.7694 27.1985 65.8939C27.2223 65.6847 27.6326 64.7874 27.7676 64.7133C27.9556 64.6127 28.2123 65.0786 28.1488 65.2586H28.1515Z" fill="white"/>
<path d="M29.422 65.5764C29.1785 65.5076 28.972 65.3196 28.747 65.2032C28.4241 65.0337 28.0879 65.1026 28.0244 64.5626C28.0694 64.5149 28.8794 65.0999 28.972 65.1714C29.1203 65.2852 29.3082 65.4308 29.422 65.579V65.5764Z" fill="white"/>
<path d="M31.5185 67.609C31.1956 67.3682 30.9044 66.9182 30.8197 66.5291L31.5185 67.609Z" fill="white"/>
<path d="M40.6031 45.5592C40.6137 45.6731 40.3887 45.6254 40.3172 45.6201C39.7958 45.5804 39.142 45.4481 38.6205 45.3475C34.1232 44.4819 29.0594 41.8878 27.5161 37.2952C27.9423 37.8669 28.2494 38.5154 28.6703 39.0952C31.3597 42.7851 36.2249 44.7757 40.6031 45.5566V45.5592Z" fill="white"/>
<path d="M44.9893 46.8909C44.9734 46.7798 45.1349 46.8301 45.2116 46.8274C49.7725 46.6501 54.6033 45.0698 56.6919 40.6439C56.9354 40.1304 57.0386 39.5136 57.3774 39.0742C56.4642 44.678 50.1801 47.4759 44.9893 46.8909Z" fill="white"/>
<path d="M36.0926 43.3359C36.0343 43.4762 35.6743 43.2935 35.5684 43.2565C34.8617 43.0077 34.0438 42.6186 33.382 42.2665C30.7191 40.8503 28.2017 38.6559 27.3891 35.6462C27.7861 36.1677 28.0456 36.7818 28.4029 37.3324C30.2294 40.1356 33.0643 42.023 36.0926 43.3359Z" fill="white"/>
<path d="M53.121 40.6648C52.7689 40.948 52.3163 41.1889 51.914 41.3953C48.6766 43.0736 45.029 43.243 41.6196 41.9327C41.6064 41.8136 41.7467 41.8824 41.8128 41.8983C42.3608 42.0227 42.8902 42.2053 43.4487 42.2953C45.4843 42.6262 47.5596 42.568 49.5475 42.0121C50.781 41.668 51.9245 41.1015 53.121 40.6621V40.6648Z" fill="white"/>
<path d="M48.9281 45.2392C48.944 45.1281 49.0578 45.1307 49.1319 45.0936C49.4575 44.9375 49.8413 44.8316 50.1775 44.6781C52.221 43.7516 54.0316 42.4572 55.5351 40.7896C55.5351 40.9166 55.4186 41.0384 55.3445 41.1363C53.7748 43.1984 51.3819 44.5086 48.9281 45.2366V45.2392Z" fill="white"/>
<path d="M49.6269 43.3992C49.6137 43.5024 49.3966 43.5315 49.3093 43.558C47.3372 44.1615 44.7722 44.0186 42.8293 43.3674C43.7478 43.4601 44.6611 43.6745 45.5902 43.7195C46.9428 43.783 48.3087 43.6745 49.6269 43.3992Z" fill="white"/>
<path d="M27.5797 39.4581C27.6141 39.4872 27.9185 40.0907 28.0006 40.2151C28.6597 41.2237 29.4405 42.129 30.2505 43.0157C30.2029 43.0581 29.8058 42.7219 29.7423 42.6689C28.7973 41.8404 27.8788 40.681 27.4553 39.4925C27.4473 39.4369 27.5744 39.4528 27.5823 39.4607L27.5797 39.4581Z" fill="white"/>
<path d="M29.7397 38.3145C28.9032 37.6024 28.1911 36.6918 27.8338 35.6462L28.0138 35.8157L29.7397 38.3145Z" fill="white"/>
<path d="M29.5491 36.8506C29.4246 36.8797 29.3982 36.787 29.332 36.7182C28.6226 35.985 27.937 34.9023 27.6432 33.9282C28.1091 34.5873 28.4823 35.3073 28.9244 35.9823C29.1202 36.2788 29.3347 36.5673 29.5491 36.8506Z" fill="white"/>
<path d="M29.8667 45.8741C29.1176 45.5618 28.3473 44.9397 27.8709 44.2806C27.8047 44.188 27.6988 44.09 27.7067 43.9683L29.8667 45.8741Z" fill="white"/>
<path d="M58.521 37.8063C59.2463 38.1001 59.8815 37.7746 60.4268 37.2981C60.2045 37.9757 59.0107 38.3781 58.521 37.8063Z" fill="white"/>
<path d="M53.3116 38.9498L52.8298 39.1351C52.5704 39.1298 52.2766 39.1722 52.0251 39.1245C51.8822 39.0981 51.0828 38.6428 51.2178 38.5051C51.8319 39.0769 52.5307 39.016 53.3142 38.9498H53.3116Z" fill="white"/>
<path d="M29.2314 43.3967C29.1308 43.4867 28.432 42.772 28.3394 42.6687C28.1779 42.4834 27.9714 42.2373 27.8973 41.999C28.0297 42.089 29.3029 43.3331 29.2314 43.3967Z" fill="white"/>
<path d="M60.1092 36.6625C60.0827 36.5434 60.1754 36.5116 60.2362 36.4402C60.3104 36.3528 61.0648 35.5825 61.1256 35.6461C61.1627 35.879 60.1674 36.726 60.1092 36.6625Z" fill="white"/>
<path d="M29.2949 44.3496C29.1255 44.2993 28.9191 44.1193 28.7867 44.0028C28.6994 43.9261 27.8973 43.1399 27.9608 43.0817C28.0853 43.0526 28.1117 43.1452 28.1779 43.214C28.5485 43.5978 28.9244 43.9711 29.2949 44.3523V44.3496Z" fill="white"/>
<path d="M60.6174 35.5164C60.6306 35.3126 60.8106 35.1749 60.8848 34.9896C60.9483 34.8281 60.9642 34.6508 61.0171 34.4867C61.0383 34.4205 61.033 34.2961 61.1256 34.3093C61.1389 34.7434 60.988 35.2676 60.6174 35.5164Z" fill="white"/>
<path d="M40.6455 2.81245C40.6852 2.85745 40.8361 3.06127 40.7937 3.10627C40.3199 2.96862 40.0234 2.14275 40.6455 2.81245Z" fill="white"/>
<path d="M44.2269 27.4483C43.7134 27.9221 42.8822 28.2398 42.2072 28.4463C38.872 29.4733 34.454 28.0307 32.4211 25.1825C32.2517 24.9469 32.0691 24.6689 31.9658 24.3989C32.8314 25.291 33.5646 26.1142 34.6393 26.776C37.5193 28.5521 41.1484 28.973 44.2269 27.4483Z" fill="white"/>
<path d="M40.8599 32.2131C40.844 32.1205 40.9711 32.1258 41.0372 32.1072C41.7281 31.914 42.4349 31.8346 43.1337 31.5964C45.0819 30.9373 47.2895 29.3993 48.4092 27.6576C48.6395 27.2976 48.7825 26.8687 49.0551 26.5564C48.1737 30.1458 44.264 31.9299 40.8599 32.2105V32.2131Z" fill="white"/>
<path d="M37.9349 29.5447C37.9164 29.6744 37.6252 29.6003 37.5405 29.5897C36.127 29.3964 34.2026 28.3614 33.194 27.3609C32.7176 26.8897 32.2491 26.2782 31.9658 25.6667C33.6308 27.4614 35.5605 28.8458 37.9375 29.5447H37.9349Z" fill="white"/>
<path d="M36.2831 32.4035C36.2964 32.5173 36.1402 32.4643 36.0687 32.4591C34.4434 32.3108 33.3793 31.8767 32.3099 30.6247C32.1273 30.4102 31.8864 30.1429 31.8361 29.8623C32.5058 30.4076 33.0643 31.027 33.8267 31.4611C34.589 31.8952 35.4599 32.1838 36.2831 32.4035Z" fill="white"/>
<path d="M46.6225 23.2631C47.361 23.0408 47.1493 24.6131 46.4769 24.2081C46.1063 23.9831 46.2572 23.3716 46.6225 23.2631Z" fill="white"/>
<path d="M33.9326 29.354C33.4693 29.2693 32.9664 28.7267 32.6593 28.372C32.4661 28.147 32.2094 27.8717 32.1538 27.5752L33.9326 29.354Z" fill="white"/>
<path d="M33.869 25.1585L32.9135 24.4941C32.6435 24.1235 32.2782 23.7715 32.1538 23.3162L33.869 25.1585Z" fill="white"/>
<path d="M44.5446 29.9896L45.8734 29.1266L47.0222 28.1472C47.0884 28.224 46.5034 28.7719 46.4213 28.8487C45.9104 29.3093 45.2143 29.8096 44.5446 29.9896Z" fill="white"/>
<path d="M33.6149 23.8878C33.5329 23.9725 32.1458 22.5802 32.2808 22.2361L33.6149 23.8878Z" fill="white"/>
<path d="M33.8055 30.307C33.5699 30.2328 33.3237 30.0264 33.1358 29.8649C32.9479 29.7034 32.6646 29.4202 32.5005 29.2296C32.4476 29.1661 32.1696 28.8326 32.2173 28.7849C32.8102 29.2164 33.3079 29.7723 33.8055 30.3096V30.307Z" fill="white"/>
<path d="M33.2973 22.6809C32.7917 22.3421 32.5482 21.7598 32.5985 21.1562L33.2973 22.6809Z" fill="white"/>
<path d="M48.1657 29.9261L49.3092 28.3379C49.0975 28.952 48.711 29.5741 48.1657 29.9261Z" fill="white"/>
<path d="M49.4998 10.4805C49.3939 10.6393 49.0975 10.6949 48.9122 10.7505C47.7872 11.0999 46.326 11.3169 45.1481 11.3725C42.9934 11.4731 40.7487 11.3619 38.6337 10.9887C38.6761 10.8749 39.0096 10.9172 39.1128 10.9225C41.6566 11.0734 44.5816 11.2216 47.1069 10.9172C47.9116 10.8193 48.6978 10.5996 49.4972 10.4805H49.4998Z" fill="white"/>
<path d="M48.4834 13.9749C46.964 15.084 44.5816 15.4016 42.8293 14.7028C42.7049 14.6525 41.9161 14.274 41.8763 14.2263C41.8711 14.2184 41.8525 14.0913 41.9081 14.1019C43.9331 15.2666 46.4266 14.8113 48.4834 13.9749Z" fill="white"/>
<path d="M42.8902 17.0267C42.9087 17.1088 42.771 17.1273 42.7155 17.1379C42.2919 17.2041 41.4422 17.0294 41.0134 16.8997C39.6581 16.4867 38.6072 15.4994 38.1228 14.1653C38.3928 14.4432 38.5649 14.7953 38.819 15.0891C39.8275 16.2459 41.3655 16.9288 42.8875 17.0267H42.8902Z" fill="white"/>
<path d="M45.8469 15.3087C46.5404 15.2293 47.4087 14.8481 48.0704 14.6099C48.0969 14.7422 47.8587 14.8296 47.766 14.8772C46.514 15.4913 45.156 15.6104 43.7849 15.4357C43.7584 15.3696 43.994 15.3087 44.0072 15.3087C44.571 15.3087 45.3122 15.3696 45.8496 15.3087H45.8469Z" fill="white"/>
<path d="M36.8549 13.2121C36.6167 13.2995 35.6981 12.5371 35.8384 12.3862L36.6299 12.958L36.8549 13.2095V13.2121Z" fill="white"/>
<path d="M51.4692 12.2595C51.3263 12.6089 50.2622 13.133 50.0081 12.8286C49.8519 12.6433 50.241 12.773 50.3575 12.773C50.5189 12.7704 50.6381 12.7466 50.7889 12.691C51.0457 12.593 51.2072 12.3283 51.4692 12.2595Z" fill="white"/>
<path d="M36.8549 12.4503C36.4605 12.3391 36.0714 12.0903 35.8384 11.7515C36.2143 11.8679 36.622 12.1353 36.8549 12.4503Z" fill="white"/>
<path d="M51.0245 12.1326C51.1357 11.8837 51.3448 11.672 51.5963 11.5608C51.6625 11.754 51.0986 12.2014 51.0245 12.1326Z" fill="white"/>
<path d="M40.0949 15.4359C39.8355 15.3936 39.5602 15.0918 39.3961 14.8959C39.3352 14.8245 39.2425 14.7927 39.269 14.6736L40.0949 15.4359Z" fill="white"/>
<path d="M36.6008 16.0713C36.3123 15.9972 36.0767 15.7272 35.902 15.4995C36.1746 15.5975 36.434 15.841 36.6008 16.0713Z" fill="white"/>
<path d="M36.4102 13.7236C36.6326 13.9857 35.8332 13.7236 35.8385 13.4695C35.9258 13.4721 36.389 13.6998 36.4102 13.7236Z" fill="white"/>
</g>
<defs>
<clipPath id="clip0_24_725">
<rect width="90" height="70" fill="white"/>
</clipPath>
</defs>
</svg>
