<svg width="90" height="75" viewBox="0 0 90 75" fill="none" xmlns="http://www.w3.org/2000/svg">
<g clip-path="url(#clip0_24_722)">
<path d="M34.236 6.11098C34.5045 6.0757 34.3818 6.45763 34.3894 6.64477C34.4124 7.24911 34.3281 8.74004 34.7698 9.17719C35.1134 9.51618 36.6458 9.47783 37.1949 9.78614C37.744 10.0944 36.8544 10.4396 36.5691 10.5132C36.1089 10.6313 34.6625 10.6512 34.46 10.8552C34.0489 11.2725 33.8648 14.2359 33.5458 14.2282C32.9369 14.2144 33.2574 11.2832 32.8678 10.6558C32.4782 10.0285 30.6575 10.2938 30.2541 9.55759C30.2495 9.18333 32.5994 9.21554 33.0028 8.93944L33.7728 6.87638C33.7636 9.19866 32.854 9.52998 30.7112 9.4809C30.636 9.94566 30.8293 9.72478 31.0839 9.78921C31.9122 10.0009 33.1393 10.027 33.3065 11.0976C33.3326 11.2633 33.1869 13.0134 33.621 12.544C33.7145 12.4428 33.8986 10.9642 34.1164 10.7387C34.5305 10.3123 36.5031 10.3828 36.6856 10.2432C36.9556 10.0362 36.6289 9.97634 36.4724 9.92112C35.842 9.69564 34.2345 9.75086 34.2345 8.78912V6.10791L34.236 6.11098Z" fill="white"/>
<path d="M20.7548 51.4721C20.5263 51.4476 20.4159 50.9015 20.3683 50.7129C19.8038 48.498 20.9036 44.2476 21.6552 42.0281C21.7227 41.8271 21.6997 41.5602 21.9804 41.5127C21.3423 44.8213 20.4695 48.0547 20.7548 51.4737V51.4721Z" fill="white"/>
<path d="M17.0797 40.7476C16.3112 41.6479 15.7222 42.7201 14.9982 43.645C14.0825 44.8139 13.1867 45.6191 11.8737 46.3431C11.5056 46.5456 9.07746 47.5948 8.96242 47.4889C8.68632 47.2358 9.16489 47.1653 9.26919 47.1147C11.4212 46.0563 12.8477 45.748 14.4721 43.7309C15.2835 42.7232 15.7314 41.1632 17.0797 40.7476Z" fill="white"/>
<path d="M17.0781 48.4061C16.802 48.4429 16.9401 48.0732 16.9646 47.9107C17.2055 46.3753 18.2331 45.4948 18.9433 44.2202C19.7655 42.7461 20.1612 40.9576 21.6721 39.979C21.4098 40.8104 20.7763 41.5052 20.3683 42.2752C19.9894 42.9915 19.7501 43.7692 19.3452 44.4702C18.5859 45.7816 17.2515 46.7756 17.0766 48.4076L17.0781 48.4061Z" fill="white"/>
<path d="M28.1174 12.0809C28.1604 12.1254 29.1374 12.2083 29.3338 12.2435C29.1789 12.6055 28.1328 12.3524 27.9518 12.1699C27.6082 11.8217 28.0193 11.202 27.6511 11.018C27.6404 12.107 27.375 12.3954 26.2722 12.2451C26.3351 12.5841 26.9333 12.2727 27.1986 12.4629C27.3965 12.6055 27.4517 13.2206 27.3428 13.4676C27.9057 13.5933 27.4763 13.0227 27.737 12.8371C28.0361 12.6239 28.8046 12.7236 29.1804 12.7037C29.004 13.2344 28.2493 12.8678 27.9456 13.0749C27.6419 13.282 27.8521 14.3695 27.3443 14.5397C27.0974 14.2069 27.2569 12.7865 27.1818 12.7083C27.1342 12.6592 26.0237 12.5472 25.8105 12.5472C25.5651 11.7236 26.8182 12.127 27.1986 11.8662C27.4272 11.7113 27.395 10.633 27.7278 10.5563C28.3475 10.4121 28.0101 11.972 28.1159 12.0809H28.1174Z" fill="white"/>
<path d="M28.2601 3.19971C28.1512 3.73043 28.8844 3.87921 28.8613 4.16911C28.8368 4.47589 28.0944 5.06796 28.0331 5.49745C27.1587 4.48202 26.7906 3.81632 28.2601 3.19971ZM27.806 4.88543C28.4702 4.53724 28.6113 4.03874 28.0331 3.50955C27.3612 4.02186 27.4502 4.19366 27.806 4.88543Z" fill="white"/>
<path d="M46.1849 46.415C46.4902 47.2326 51.917 47.5808 53.457 48.8707C55.4495 50.5396 54.0429 52.2621 51.782 52.3971C50.1132 52.4968 48.0961 52.2575 46.4211 52.233C44.0314 52.1977 37.8468 52.6456 36.1457 51.0197C35.5306 50.4322 35.5046 50.0104 35.9463 49.2742C37.0752 47.3875 41.0756 47.7924 42.9408 47.2295C43.4654 47.0715 43.7859 46.9212 43.8795 46.3291C44.1096 44.8612 43.8427 42.5619 43.8826 40.9682C43.9455 38.4527 44.3826 35.5537 44.0007 33.0473C43.7599 31.4628 41.9744 31.9092 41.0556 30.9367C40.2105 30.0425 40.7596 29.1543 41.8609 28.9764C42.5711 28.8614 43.2782 29.2065 43.9669 29.254C44.5575 29.2955 43.7599 28.4227 43.654 28.1865C43.1018 26.9532 42.792 25.7062 42.657 24.3564L40.8256 24.3487C40.4528 24.7291 42.3318 27.395 42.1293 28.0254C41.6523 27.6465 41.4069 27.0867 41.1553 26.5483C40.9498 26.1096 40.5203 24.5773 40.3807 24.4116C40.1 24.0788 39.5693 24.3165 39.2963 23.9652L40.2135 23.8886C40.166 23.637 39.9574 22.2749 39.893 22.2197C39.8147 22.1537 37.79 22.3455 38.3775 21.8991C38.6183 21.8546 39.6982 21.9574 39.7564 21.8991C39.8377 21.8178 39.7856 19.8974 39.6031 19.6014C39.9881 19.4848 39.9835 19.9327 40.0172 20.1766C40.0724 20.5785 39.9881 21.554 40.1292 21.7549C40.2703 21.9559 42.5542 21.9666 42.6509 21.8838C42.7153 21.8286 42.7184 21.1889 42.8963 20.9788C43.1708 20.6551 47.7755 20.2778 48.5655 20.2149C48.8446 20.1919 49.9506 20.264 50.0119 20.2057C50.0564 20.1628 50.1408 19.1857 50.1745 18.9894C50.5472 19.1259 50.127 19.9082 50.469 20.1474C50.6761 20.2916 52.3357 20.3637 52.2575 19.8974C52.2299 19.7379 51.7605 18.1473 51.69 18.0844C51.4262 17.8558 45.6726 18.1028 44.7293 18.0752C43.47 18.0368 42.025 17.8129 40.7596 17.7561C39.7411 17.7101 33.5535 17.7469 33.1761 17.296C33.0841 17.1871 33.193 16.7545 33.3111 16.5996C33.6332 16.1762 36.7194 15.8127 37.3851 15.7713C41.8287 15.4983 46.5377 15.963 51.0089 15.7805L51.2436 15.3111C52.1363 19.2624 53.8589 22.9283 55.3835 26.6495L55.6228 26.1878C53.7914 22.3209 52.1992 18.3589 51.2175 14.1761L50.6331 13.8524C51.6823 12.9612 51.7023 15.5351 52.032 15.7468C53.3803 15.983 57.2641 15.6946 58.2227 16.526C59.0296 17.2254 58.3224 19.5523 58.4452 20.5171C60.5466 20.7809 62.6802 20.8607 64.7785 21.1537C66.1927 21.3515 69.3939 21.8086 70.5443 22.3577C67.8279 21.9237 65.0776 21.7059 62.3504 21.4374C59.525 21.1583 56.6965 20.741 53.8481 20.8269C54.1334 22.5173 54.2561 22.6768 55.9173 22.8164C58.8654 23.0649 61.8412 23.1692 64.7985 23.2796C66.6913 23.3502 68.8862 23.6922 70.7821 23.4391C71.9616 23.2811 71.2024 22.6722 70.5443 22.3593C72.635 22.6937 71.8635 24.5328 71.2883 25.9393C70.7775 27.1894 69.9737 28.3107 69.3249 29.4857C69.6286 30.383 72.1135 33.2973 71.2729 34.1241C70.9738 34.4186 70.0152 34.3189 69.5918 34.2713C66.9505 33.9692 63.5315 32.601 60.7705 32.0641C55.0108 30.9459 49.5334 30.0731 43.6786 29.547C42.9546 29.4826 41.5434 28.7494 41.2121 29.8783C40.7611 31.4168 45.5821 32.4077 44.0452 29.8722C45.1051 29.7863 44.7109 31.3508 44.0482 31.7865C44.0513 32.1255 49.5011 33.9707 50.2052 34.2054C51.8679 34.7606 53.4524 35.3036 55.109 35.8896C56.8008 36.4878 58.5341 36.971 60.2812 37.382C60.3149 37.6627 59.956 37.5139 59.7888 37.4925C57.2104 37.1612 54.7255 35.9371 52.2805 35.1947C50.7466 34.7284 49.0977 34.4462 47.5685 34.009C47.9918 35.796 46.3061 35.1825 46.6497 34.776C47.3338 35.3159 47.4059 33.9124 47.2433 33.7191C47.1206 33.5734 45.444 33.3878 45.4272 33.7774C45.4103 34.167 47.1819 35.7362 47.5654 36.0798C48.7925 37.1765 50.604 38.6291 52.0228 39.4359C54.2255 40.6891 56.9036 41.4299 59.0556 42.8211L56.4573 41.8962L52.4707 40.1384C52.9002 42.5727 55.2409 45.1664 57.3684 46.3475C57.9436 46.6666 58.5725 46.8414 59.1584 47.1635C59.3609 47.2755 59.8548 47.4488 59.8241 47.7219L52.6916 44.8949C52.2161 44.8305 52.6763 45.53 52.6272 45.8751C52.595 46.0975 52.3158 46.2647 52.3833 46.4211C52.575 46.8644 56.4342 49.2972 57.1153 49.6653C59.8456 51.1424 62.5191 52.5842 65.2341 54.1089C70.7376 57.1997 76.6231 59.3287 80.8044 64.277C82.5193 66.3078 83.8814 68.6286 85.6315 70.6349C86.9844 72.1871 88.6701 73.6336 90 75.2288L88.4585 74.0861C84.0501 70.3971 81.4379 65.1068 76.9636 61.5298C72.9219 58.2995 68.308 56.4097 63.8567 53.954C61.5712 52.6932 59.4667 50.8878 56.9128 50.2497V52.6257C56.9128 53.0674 57.2656 54.2301 57.4512 54.6918C57.5831 55.0216 57.9206 55.7517 58.2043 55.9296C58.7197 56.2533 61.111 56.4097 61.9685 56.6091C63.059 56.8638 64.4426 57.3009 65.323 58.0034C68.3279 60.3978 64.188 61.9884 61.9669 61.5896C62.0145 61.3074 62.2814 61.3319 62.4823 61.2644C63.6327 60.8718 67.3155 60.4576 65.3706 58.5249C63.5852 56.7518 60.3288 56.896 58.1859 56.2548C57.1552 55.9465 56.7195 54.3559 56.6244 53.3742C56.5293 52.3925 56.9726 50.8464 56.7303 50.0503C56.6689 49.8494 55.3682 48.9658 55.1489 48.8738C54.6964 48.6851 55.0752 49.2297 55.0752 49.2557V52.6272C55.0752 52.9018 54.7332 54.1319 54.5982 54.4494C54.4172 54.8743 53.7699 55.7609 53.3834 55.9925C52.5597 56.4895 50.038 56.6444 48.8799 57.0033C47.593 57.4021 44.3489 59.0127 46.9227 60.0159C50.5012 61.4086 56.1474 60.881 60.0511 61.1341L61.3534 61.4378C61.0742 61.5191 60.8165 61.5819 60.5189 61.6004C57.5463 61.7752 48.4412 61.8044 46.1128 60.2153C43.8749 58.6875 47.6037 56.9727 48.9489 56.6137C50.0917 56.3085 51.7145 56.3116 52.687 55.9082C54.8544 55.0108 54.8712 50.9307 54.7378 48.9812C54.6243 48.5946 52.8619 47.5654 52.4002 47.1819C51.874 46.7463 50.0717 45.2186 50.0257 44.648C50.0073 44.4317 50.1101 44.1878 50.1975 43.99C50.6515 43.7016 54.5215 45.3612 55.3835 45.3459C54.5997 44.6296 53.7193 43.8243 53.1119 42.9454C52.3971 41.91 52.0428 40.7719 51.4844 39.669L45.8873 35.3865L46.1926 46.4196C44.7814 43.7921 45.9702 38.2088 45.7247 35.1641C45.6143 34.4692 44.8857 34.3526 45.1204 33.3387C45.1434 33.2406 45.6665 33.213 45.4272 32.9353C45.3904 32.8924 44.5314 32.6669 44.3565 32.627C44.3734 34.8465 44.6664 37.0783 44.6679 39.2994C44.6679 40.8317 44.6158 42.9669 44.5069 44.5023C44.4286 45.6097 44.312 47.2955 43.1049 47.6973C41.7474 48.1498 37.6198 48.1053 36.7424 49.0701C34.9063 51.0903 39.2395 51.4983 40.4498 51.6286C43.8197 51.9891 48.7434 52.1962 52.0734 51.7667C53.8021 51.5427 54.6718 50.3049 53.0735 49.1146C51.2237 47.7372 47.9979 48.2449 46.573 47.0347C46.2662 46.7739 46.3291 46.6727 46.1926 46.4196L46.1849 46.415ZM51.5412 17.5966C51.4169 16.7269 51.4031 16.0351 50.4 15.917C47.343 15.5566 42.6785 15.9324 39.5279 16.0796C38.4266 16.1302 34.1195 16.0842 33.4722 16.8419C33.1608 17.207 34.3081 17.2929 34.46 17.3052C38.1244 17.5874 42.384 17.6457 46.1005 17.7653C46.8107 17.7883 51.3679 17.842 51.5397 17.5966H51.5412ZM57.9789 16.8373C57.939 16.6057 57.6844 16.5413 57.4926 16.483C56.9358 16.3143 52.3587 15.8955 52.1593 16.0735C52.2882 16.4079 52.4339 17.503 52.7161 17.5951C52.8235 17.6304 54.6626 17.4632 54.974 17.4325C55.9802 17.3328 57.011 17.118 57.9804 16.8373H57.9789ZM55.2225 20.3637C55.3176 20.4588 57.5126 20.3637 57.9037 20.3637C58.1016 20.3637 58.2672 18.7838 58.2856 18.4464C58.2964 18.25 58.3455 17.141 58.2089 17.1426C56.4895 17.7822 54.6013 17.7362 52.8404 18.0598C52.7391 18.1964 53.3067 19.9066 53.4585 20.0615C53.6518 20.2594 54.8406 20.2732 54.9111 20.2027C54.9909 20.1229 54.8544 19.313 55.2225 19.2915C55.2624 19.4971 55.1734 20.3116 55.224 20.3637H55.2225ZM53.23 22.5081C53.0152 22.0433 52.8741 20.9144 52.3894 20.8208C49.3892 20.7993 46.3858 20.7549 43.427 21.284C43.4807 21.5755 43.7445 21.5387 43.9562 21.5969C44.7661 21.8209 45.8843 21.9221 46.7402 22.0295C48.8876 22.3025 51.0672 22.436 53.23 22.5081ZM53.5368 26.0344C53.8757 26.0298 54.6074 26.1694 54.6105 25.6586C54.6105 25.4102 53.5015 23.0633 53.2837 22.9928L42.9684 21.8961C42.9745 23.2842 43.1371 24.6739 43.5405 25.9976C43.7184 26.5805 44.2737 28.4748 44.9578 28.0269C44.3765 28.8015 46.4917 29.0516 46.4917 28.8675C45.7002 27.3628 45.4778 25.7047 45.2646 24.0435C45.7263 23.9683 45.51 24.1554 45.5744 24.4147C45.6818 24.8472 46.0806 27.3597 46.4073 27.3919C46.7095 27.122 48.5302 26.7584 48.6146 26.6281C48.7572 26.4087 48.294 24.7935 48.4811 24.3487L49.0318 26.5038C49.8509 26.4793 50.6592 26.2737 51.4676 26.1878C52.3741 26.0912 53.3619 26.5928 53.3818 25.2675L53.5322 26.0329L53.5368 26.0344ZM40.3639 22.3562C40.5019 23.2704 40.3731 24.0972 41.5066 24.0435C42.1784 24.0113 42.8058 23.8533 42.7674 23.0695C42.7092 21.8807 41.2014 22.4958 40.3639 22.3562ZM71.3036 23.887L64.9426 23.8932L54.7639 23.1216C54.6688 23.2136 55.6228 25.358 55.767 25.5635C56.0876 26.0206 57.2472 25.8811 57.6123 25.5881C57.9068 25.3519 57.7242 24.7843 58.1307 24.6524L57.9789 25.5712C58.2197 25.5451 58.462 25.7077 58.6829 25.7108C60.5282 25.7369 62.7446 25.3166 64.6359 25.2598C66.5271 25.2031 69.1654 24.9393 70.6916 26.1848C70.9033 25.4224 71.3803 24.7092 71.3051 23.8855L71.3036 23.887ZM69.9262 26.0344C69.3709 25.9808 68.8908 25.7675 68.3233 25.7215C67.2097 25.6326 63.4793 25.5513 62.5299 25.7599C61.6556 25.9531 61.7445 27.599 61.5022 28.3306C63.2861 27.8444 66.182 28.5791 66.5578 26.1878C66.9842 26.3888 66.3293 27.0974 66.4029 27.4119C66.5547 27.5499 69.1086 26.7538 69.466 26.5713C69.7053 26.4486 69.9829 26.3826 69.9247 26.036L69.9262 26.0344ZM61.6556 25.8811C60.9331 25.8918 60.2045 25.7967 59.5112 26.036C60.0987 26.2768 60.4791 28.2616 60.5849 28.3322C61.2475 28.777 61.5804 26.3243 61.6556 25.8811ZM54.9142 29.0991C55.4204 29.0746 56.8208 29.2249 57.1337 28.7908C57.2656 28.6083 57.5816 26.8305 57.6031 26.4946C57.6429 25.901 57.0279 26.0651 56.5646 26.2308C55.6458 26.559 54.7869 28.1328 54.9142 29.1007V29.0991ZM60.1048 28.4672C60.726 27.4809 57.6598 24.2889 57.827 27.26C59.2136 26.2983 59.0265 27.8552 58.5924 28.7923C58.8792 28.5715 59.9744 28.6742 60.1048 28.4672ZM54.4356 29.0776C54.3405 28.3414 55.79 26.6664 54.8083 26.3719C52.8465 25.7814 53.7852 27.9349 53.3834 29.0976L54.4356 29.0776ZM53.2315 26.4931C51.8434 26.4777 50.4567 26.6741 49.11 26.967C48.9167 27.306 49.4643 28.8675 49.4014 28.9442C49.0072 29.4228 48.8048 27.4717 48.7587 27.3674C48.7081 27.2523 48.6805 27.1511 48.5425 27.1174C48.1421 27.2692 46.4656 27.2845 46.5132 27.7677C46.5546 28.1773 47.0423 29.1083 47.5209 29.2188C48.9321 29.5439 51.308 29.0623 52.8296 29.231C53.3005 29.07 53.2361 26.9931 53.2331 26.4915L53.2315 26.4931ZM70.233 26.9548C69.4369 27.3106 66.4796 27.8153 65.9826 28.2187C65.7234 28.4288 65.1988 30.1667 64.6405 30.4781C64.4227 29.7909 65.3108 29.1375 65.481 28.5592C65.5516 28.3214 65.4718 28.3138 65.2632 28.3383C63.984 28.4932 62.674 28.846 61.3841 28.981C61.2399 29.297 60.8319 31.0686 60.5051 31.0886C59.9483 31.1223 60.6892 29.6452 60.7337 29.478C60.7674 29.3537 60.9852 28.9243 60.6585 28.9488C60.5404 28.958 59.4284 30.5962 59.2152 30.8401C59.4406 31.1514 59.6769 31.4061 60.0496 31.5472C61.2705 32.0104 63.5944 32.1975 65.027 32.5442C65.9059 32.7574 70.3081 34.1195 70.7453 33.9891C70.9125 33.9385 70.9968 33.802 70.9999 33.6271C71.0076 32.9139 69.3648 30.8493 69.1593 30.0179C68.8126 29.7633 67.2342 32.1807 66.7127 32.3157L69.3188 28.5638L70.2345 26.9532L70.233 26.9548ZM58.5909 27.4134C58.1997 27.0069 57.2687 28.0898 57.8285 28.484C58.2887 28.8077 58.8516 27.6849 58.5909 27.4134ZM59.8164 29.0991C58.8455 29.2694 57.3009 28.8752 56.9834 30.0164C56.7962 29.9458 56.9757 29.4719 56.9082 29.4028C56.8131 29.3031 55.5538 29.4703 55.293 29.5531C55.1795 29.5884 54.9587 29.4964 55.0722 29.7848C55.8222 31.696 59.4253 31.1269 59.818 29.0991H59.8164ZM55.0691 30.6299C54.8605 30.3784 54.8068 29.6805 54.5123 29.5792C53.7331 29.3123 51.874 29.9658 50.9338 29.7127C50.9031 29.9351 51.351 29.9474 51.512 29.9734C52.7039 30.1728 53.908 30.2541 55.0691 30.6284V30.6299ZM50.5718 44.2845C49.6116 44.5774 51.5903 46.2095 52.0765 46.1098C52.9386 45.9334 51.3955 44.0344 50.5718 44.2845Z" fill="white"/>
<path d="M87.6946 49.0213C86.5058 48.1439 85.857 46.6622 85.0011 45.5103C83.2832 43.2002 81.3919 41.0237 79.7583 38.6477C77.3409 35.1321 75.6982 31.032 72.9863 27.8002C72.7945 27.5731 71.2699 26.2249 71.4601 26.0347C71.796 26.0515 72.1288 26.3629 72.3804 26.5685C75.6261 29.2313 76.7167 33.0215 78.9009 36.4435C81.6603 40.7675 85.768 44.1773 87.6946 49.0213Z" fill="white"/>
<path d="M59.3563 58.5234C59.3256 58.7781 58.7765 58.8302 58.5679 58.8808C57.2994 59.1845 53.9248 59.3671 52.7729 58.9023C52.5873 58.8271 52.3511 58.7474 52.3112 58.5234H59.3563Z" fill="white"/>
<path d="M58.1323 56.5311C56.9849 57.4314 54.6136 57.6002 53.3849 56.7581C54.0736 56.7642 54.7562 56.8762 55.4587 56.8409C56.3284 56.7979 57.2395 56.4513 58.1323 56.5295V56.5311Z" fill="white"/>
<path d="M52.7698 33.3894C52.437 33.4615 52.391 33.0872 52.0811 33.078C51.9584 33.0749 52.1056 33.5566 51.6992 33.3878C51.8173 31.9 52.4784 32.1009 52.7698 33.3878V33.3894Z" fill="white"/>
<path d="M63.6465 41.0528C63.441 41.6464 63.5483 42.263 63.3842 42.8658C63.3106 43.1373 63.4302 43.2631 63.0345 43.1971C63.0238 42.6143 63.1204 41.9378 63.2983 41.3872C63.3812 41.131 63.2308 40.9822 63.6465 41.0543V41.0528Z" fill="white"/>
<path d="M64.1082 36.4541C64.6006 36.5676 64.5285 37.9404 64.0315 37.8315C63.5668 37.7303 64.1251 36.7164 64.1082 36.4541Z" fill="white"/>
<path d="M52.0044 38.2929H51.2406C51.2007 37.8818 51.3081 37.4968 51.624 37.2207L52.0044 38.2929Z" fill="white"/>
<path d="M36.8406 21.4343C36.4555 21.5493 36.4617 21.1029 36.4264 20.8591C36.3589 20.3851 36.3758 19.9188 36.3835 19.4448L36.8406 21.4358V21.4343Z" fill="white"/>
<path d="M50.9322 50.4016C51.0043 50.8372 50.8417 50.6577 50.5779 50.7283C48.6008 51.259 40.4191 51.2375 38.6689 50.3264C38.4481 50.2114 38.2962 50.331 38.3714 49.9414C42.4959 50.8464 46.7478 50.5458 50.9307 50.4016H50.9322Z" fill="white"/>
<path d="M46.4902 48.4089C46.7371 48.5991 46.4871 48.6866 46.2647 48.7157C45.9134 48.7602 45.2416 48.7541 44.8827 48.7157C44.582 48.6835 43.8887 48.5562 43.7353 48.2571L46.4917 48.4089H46.4902Z" fill="white"/>
<path d="M10.3398 33.8496C8.67712 35.8957 7.93166 38.8055 6.634 41.1002C5.99591 42.2276 5.00043 43.0344 4.21662 44.0452C2.37137 46.4258 1.47559 49.3325 0 51.9324L0.969408 49.2251C1.74401 46.119 5.07252 43.4194 6.33029 40.9483C6.67848 40.2627 6.69229 39.5249 6.98833 38.8469C7.62335 37.3882 9.16182 35.4432 9.60971 33.96C9.96864 32.7743 9.51308 29.1988 11.2586 29.8645C10.8629 28.0945 10.1696 26.3535 10.3429 24.5006C10.685 24.7169 10.9749 24.9546 11.3783 25.0727C13.9966 25.8412 21.8132 25.2507 24.7981 24.9408C25.1386 24.9055 25.7246 24.8196 25.9761 24.5865C26.3872 24.2061 26.9778 22.4851 27.4947 21.9712C27.3198 21.712 27.2569 21.7718 27.0069 21.781C21.4696 21.982 15.8265 22.2412 10.4948 23.7337C10.4365 23.6907 10.5807 23.568 10.6512 23.5082C11.5255 22.7719 16.9953 22.0433 18.385 21.8976C21.4773 21.5724 24.6003 21.5924 27.7033 21.4129C28.0499 21.2933 30.2817 16.6349 30.564 15.9216C30.8462 15.8864 30.6974 16.2407 30.6452 16.3849C30.1851 17.6549 29.3169 19.0553 28.7264 20.2901C28.6926 20.7365 28.9104 20.4205 29.0086 20.264C29.4856 19.5063 29.843 18.4924 30.2572 17.6825C30.4689 17.4371 30.4213 17.8328 30.3799 17.9556C30.2326 18.3866 28.5822 21.3071 28.7264 21.4359L33.6271 21.7427C33.2498 20.4466 32.9537 19.3621 33.0151 17.9878C33.0228 17.8006 32.8985 17.4187 33.1669 17.454C33.0596 18.2807 33.463 21.0417 34.0075 21.5954C34.3112 21.9053 39.0938 21.6706 37.7778 23.3686C37.0614 24.292 29.4381 24.8028 27.8965 24.9761C27.7493 24.993 27.3213 25.0436 27.349 25.2675C28.5592 25.0328 28.4564 26.9625 28.823 27.0882C28.9733 27.1389 29.9044 27.1373 29.9427 27.0974C30.0317 27.0039 29.8062 26.5974 30.1023 26.6496C30.1452 26.8167 30.1836 27.2294 30.3584 27.2692C30.6314 27.3291 32.3985 27.4656 32.6347 27.4165C33.2252 27.2953 32.8295 26.7155 33.3203 26.4962C33.3771 26.7477 33.0427 27.4088 33.1746 27.5637C33.2482 27.6496 35.1702 27.9948 35.3926 27.7248C35.6303 27.4349 35.5736 26.5729 35.9248 26.3443C36.0429 26.6695 35.5 27.892 35.6211 28.027C35.7346 28.1527 36.9878 28.0561 36.6657 29.1452C36.4233 29.9612 35.072 29.9397 34.5382 30.3937C34.0811 30.7833 33.4875 32.2221 32.8617 32.8556C32.6301 33.0903 32.0595 33.6471 31.791 33.4707C32.0579 33.0673 34.2498 30.633 33.9339 30.3293C33.44 30.4382 32.2037 30.3738 31.8539 30.6223C31.383 30.9582 30.6284 33.3188 29.7203 33.6992C29.6544 33.2974 30.0378 32.7206 30.2311 32.3709C30.3922 32.081 31.3263 30.811 31.3263 30.7112C31.3263 30.4121 29.7295 30.3876 29.4841 30.5517C29.0623 30.834 28.2831 35.1487 27.421 35.6917C27.3398 34.0213 28.5009 32.2973 29.0239 30.7097C28.9979 30.3953 26.7937 30.3922 26.5697 30.5487C26.2016 30.8048 26.6787 35.4555 25.8887 36.1519C25.2752 34.7683 26.355 31.9905 25.9455 30.7343C25.7936 30.268 24.5435 30.5594 24.1278 30.4827L24.5864 36C24.2781 35.9111 24.2367 35.5291 24.1708 35.2669C23.8855 34.118 23.8671 32.6639 23.8226 31.4797C23.841 31.3463 23.5373 31.3877 23.5189 31.403C23.4161 31.4905 22.2964 33.6548 22.2841 33.7882C22.2504 34.1732 23.1354 35.049 23.209 35.5383C22.9958 35.7393 22.1154 34.6058 21.9068 34.4708C21.3392 35.0046 21.5571 35.204 21.9835 35.6917C21.0769 35.3067 20.9435 35.9095 20.6045 36.6105C22.2519 36.9556 23.8195 37.9987 25.5052 37.9925C25.6755 38.6736 24.2843 37.9082 24.588 38.6797C24.7368 39.0571 25.1985 38.7257 25.5083 38.8162C25.8994 38.9297 26.1648 39.5172 26.4992 39.5249C26.3519 35.0276 30.5486 35.1917 33.3663 33.3664C36.0215 31.6469 38.3928 27.4196 38.5278 24.269C38.534 24.1279 38.2134 22.2458 38.6781 22.8179C38.7518 23.4269 38.8591 23.9576 38.8392 24.588C38.7794 26.3597 37.9357 26.5345 39.5969 27.9549C39.7657 28.2279 41.0817 28.7464 40.9759 29.024C40.7826 29.5286 40.0847 28.9366 39.8546 28.7709C39.2932 28.3644 38.8591 27.8168 38.4496 27.2677C37.1059 30.3308 35.5705 33.3326 32.2712 34.6441C32.2297 35.5184 32.5258 36.178 32.331 37.0814C32.1607 37.8729 30.3339 40.3685 29.5623 40.5955C29.3645 40.6538 29.2571 40.5602 29.3369 40.37C29.4335 40.1384 30.4796 39.439 30.7925 39.0663C31.8877 37.7609 31.3984 37.2409 31.3186 35.7746C31.3079 35.5736 31.699 34.9401 31.2542 35.0828C30.949 35.181 28.9426 35.9862 28.8644 36.1059C28.392 36.8268 29.9627 38.6966 28.1113 38.4512C28.1082 37.9941 28.5699 38.0156 28.5638 37.4787C28.5607 37.1919 28.323 36.8084 28.4165 36.4602C27.4548 36.5829 26.8443 39.0663 26.9486 39.7626C27.0038 40.1262 28.8199 41.1508 29.254 41.522C32.2558 44.0851 29.8967 46.231 27.0284 47.1283L27.1925 49.7926C27.7892 49.8601 27.3351 48.8539 27.6373 48.3615C28.0208 47.7372 29.5194 49.1883 29.7939 49.5641C30.2127 50.1347 30.5317 50.9706 30.3753 51.6747C30.0992 52.9187 27.9518 52.7147 27.8183 53.1089C27.7432 53.3282 28.2125 55.5032 28.3506 55.7579C29.0454 57.0478 34.0949 57.281 35.569 58.1906C36.8037 58.9529 37.0829 60.0527 35.9877 61.1203C35.4355 61.6587 33.5535 62.0866 32.7635 62.1863C32.3571 62.2369 31.5272 62.3643 31.1744 62.128C32.4537 61.4547 35.6334 61.7093 36.1611 60.068C36.5384 58.8977 35.6825 58.551 34.7775 58.2182C31.6024 57.0494 28.3398 58.0433 27.4164 53.9356C26.6879 50.6976 26.6679 47.0761 26.401 43.7645C26.3427 43.5942 25.3304 42.9362 25.1264 42.8933C24.884 42.8427 24.8794 42.8733 24.9239 43.0942C25.5221 46.1374 25.8089 50.6102 25.6678 53.7055C25.6372 54.3651 24.9116 56.9942 25.8918 56.9942H28.6497C28.6742 56.9942 29.0976 57.1445 29.0316 57.2994C28.0637 57.5801 26.9425 57.6369 25.9577 57.3899C25.5206 57.2795 25.2874 56.9098 25.0942 56.8592C24.8579 56.7963 23.6462 57.6522 23.209 57.8347C21.6276 58.4958 20.06 58.5986 18.5108 59.5711C15.6639 61.355 18.6979 61.8489 20.379 62.0513C20.9558 62.1204 21.7764 62.1848 22.3623 62.2124C24.8487 62.3305 27.3351 62.0406 29.7985 62.2063C30.1237 62.4455 27.8076 62.6588 27.5836 62.671C25.2951 62.7953 20.0861 62.8658 18.0476 62.0851C17.1564 61.743 16.6947 60.7015 17.3236 59.9147C18.4893 58.4575 21.4988 58.0893 23.1385 57.4574C23.9806 57.1322 25.2031 56.5631 25.2031 55.5385V53.2392C25.2031 53.0721 24.8288 53.0199 24.6754 53.0015C21.9804 52.6855 18.9648 53.704 16.3772 54.0629C15.4952 54.1856 13.3708 54.0982 12.7526 54.4203C12.363 54.6228 10.3414 57.9007 9.8582 58.5741C9.18636 59.5082 8.31819 60.8426 7.585 61.6633C7.35492 61.921 7.04968 62.352 6.67081 62.3566C6.27354 61.9562 11.6866 55.4388 12.0317 54.5446C9.90115 54.948 8.14333 55.672 5.90081 55.0814C5.69987 55.0293 5.17529 54.879 5.2934 54.5446C6.43613 54.5783 7.585 54.8099 8.73847 54.6964C9.91802 54.5798 11.1037 53.9203 12.2817 53.7976C13.4597 53.6749 14.7421 53.8835 15.9201 53.7592C17.4754 53.5966 19.1627 52.8374 20.8438 52.7085C22.2565 52.5996 23.7827 52.7822 25.2077 52.707C25.154 52.029 25.3196 48.0778 25.0543 47.8017C24.9484 47.6912 24.1984 47.9244 23.9836 47.955C23.9039 47.5194 24.091 47.7035 24.3196 47.6099C24.6908 47.4565 25.111 47.5348 25.0696 46.9611C24.7414 45.6144 24.9822 44.0038 24.7429 42.6739C24.6616 42.2276 24.0757 41.7014 23.9913 41.1247C23.8072 39.8685 24.8671 38.8132 23.479 37.9619C22.8885 37.5999 18.6059 36.1396 17.8942 36.0369C17.3266 35.9556 14.0748 36.6136 13.7588 36.9587C13.5748 37.1597 13.3692 38.3668 13.3048 38.7288C13.2711 38.9175 13.1161 41.5987 12.6483 41.0588C12.4995 38.6168 14.1868 35.7301 13.3723 33.3602C13.2205 32.92 11.5347 30.4152 11.1942 30.4858C10.9227 30.541 11.0424 30.8263 11.0347 30.9459C10.9948 31.5825 10.9795 33.3863 10.6159 33.8219C10.5515 33.8986 10.3628 33.8388 10.349 33.8557C10.6435 32.8188 10.4503 31.7083 10.5009 30.6376L10.0361 33.4676L10.349 33.8542L10.3398 33.8496ZM37.5676 23.2413C38.1091 22.8287 37.2072 22.4759 36.8774 22.3946C34.4462 21.7918 31.4613 22.1231 28.9657 21.7458C28.3122 21.6261 26.9026 24.5343 27.036 24.654C29.659 24.3932 32.4644 24.2951 35.0567 23.8686C35.4908 23.7965 37.3237 23.4269 37.5661 23.2428L37.5676 23.2413ZM23.9729 25.4225C19.5431 25.7461 15.0289 26.3075 10.6435 25.3458C11.2326 29.205 12.8078 32.8587 16.3081 34.8496C16.7668 35.1104 19.9342 36.5093 20.2072 36.4403C20.5324 36.359 20.6751 35.4018 20.5263 35.0782C20.3775 34.7545 18.9203 33.4523 18.4878 32.8234C18.1242 32.2957 17.5046 30.8017 17.2438 30.5425C16.9109 30.2112 15.5443 30.0977 15.0043 30.0225C14.7957 29.9934 14.716 30.0118 14.785 30.2434C15.3433 32.0933 18.0506 34.1594 19.5308 35.3052C19.3253 35.4524 18.839 35.2254 18.632 35.1319C17.3282 34.5444 15.8035 32.7436 15.0243 31.538C14.8049 31.199 14.4429 30.2066 14.285 30.0563C13.9138 29.7035 12.7434 29.7879 12.3323 29.3277L14.0165 29.4029C13.8401 29.1758 13.4628 27.7831 13.3892 27.7309C13.2818 27.6527 11.1052 28.2923 11.7188 27.7202C11.7617 27.6803 12.5716 27.6006 12.8554 27.395C13.087 27.2294 13.0809 26.9671 13.1023 26.9533C13.1606 26.9103 13.4521 27.1956 13.6499 27.2171C14.2037 27.2769 15.8188 26.852 16.5459 26.8014C18.6657 26.6542 20.8208 26.6557 22.9467 26.6496L23.9744 25.4225H23.9729ZM26.4256 29.2525C26.8689 29.6467 29.4718 26.7201 27.6036 25.697C26.8305 25.2737 24.0557 25.1862 23.7336 26.1787C23.5986 26.5928 23.7842 29.1482 24.0082 29.3706C24.183 29.544 25.8212 29.6498 25.947 29.5424L26.1188 27.8751L26.4256 29.2541V29.2525ZM23.3594 28.639L23.2857 26.8014C22.7857 27.2723 22.6492 28.3169 23.3594 28.639ZM22.5939 27.1066C22.4866 26.9977 19.9588 27.1879 19.5308 27.1066C19.7133 28.0807 19.9603 29.2035 20.5263 30.0179H23.6661C23.502 29.3967 22.8302 28.9611 22.666 28.3368C22.5771 27.9963 22.6384 27.1496 22.5939 27.1051V27.1066ZM16.9263 29.863L16.1701 27.3214L13.7113 27.5668C13.9859 29.6713 14.9982 29.8431 16.9278 29.863H16.9263ZM16.4677 27.26C16.6011 27.8582 16.9539 29.2786 17.3159 29.7096C17.5767 30.0195 19.7455 30.1897 19.813 29.794C19.8468 29.5961 19.2271 27.553 18.9955 27.26H16.4677ZM26.5774 30.0179H29.1052C29.412 29.7219 29.9949 27.7616 29.7939 27.5668C29.7587 27.5315 28.8583 27.4211 28.8092 27.4318C28.708 27.4564 28.1588 28.6467 27.8827 28.9473C27.4839 29.3829 26.9394 29.5608 26.5774 30.0164V30.0179ZM32.7037 27.8736L30.1069 27.7279L29.6452 30.0103C29.8216 30.2649 31.449 30.1713 31.7435 29.9765C31.923 29.8584 32.8464 28.0101 32.7037 27.8736ZM35.1548 28.3337C34.6855 28.3506 33.4982 27.8828 33.1623 28.096C33.0596 28.1604 32.1592 29.9535 32.2451 30.0179C33.894 30.1146 34.9017 30.2403 35.1564 28.3353L35.1548 28.3337ZM36.3651 28.6528C36.3175 28.5822 35.5997 28.4166 35.4785 28.5025C35.4187 28.5454 34.9202 29.7587 35.003 29.8645C35.4003 29.7204 36.8007 29.3016 36.3651 28.6528ZM21.0601 34.615C21.8485 33.2452 20.3346 32.0166 20.0707 30.6269C19.8391 30.3907 18.1657 30.4091 17.6932 30.3247C17.9709 31.2711 18.5537 32.1516 19.1642 32.9124C19.3621 33.1593 20.807 34.8082 21.0601 34.6134V34.615ZM23.2075 30.4781H20.603C20.7456 31.3862 21.3224 32.2375 21.6782 33.0826C21.8807 33.2222 23.3287 30.5839 23.2075 30.4781ZM16.4677 35.6871C16.5904 35.5675 13.9153 33.9983 13.7128 33.6962C13.926 34.6303 13.926 35.5215 13.7128 36.4541L16.4692 35.6871H16.4677ZM31.9368 37.0661C32.0625 36.5384 32.3617 35.5736 31.7864 35.2285C31.7941 35.6611 31.768 36.0997 31.7864 36.5323C31.7941 36.7179 31.6714 37.1029 31.9383 37.0661H31.9368ZM24.9914 39.2258C23.752 39.62 26.9087 42.0665 26.7369 40.5204C26.6894 40.0924 25.5206 39.0571 24.9914 39.2258ZM24.6386 40.3839C24.5128 40.2688 24.4929 39.9942 24.2812 39.9789C23.4176 41.7444 26.4992 42.9301 26.6986 43.6111C26.8244 44.0421 26.7738 46.6114 26.8842 46.7218C28.2908 46.5838 30.5241 45.1941 30.4213 43.5774C30.3906 43.1034 29.2847 42.1018 28.8782 41.7383C28.6451 41.5297 27.4287 40.5112 27.2646 40.4391C26.8673 40.2657 27.0652 41.4254 26.3489 41.4484C25.9485 41.4606 24.9622 40.6768 24.6401 40.3823L24.6386 40.3839ZM28.8767 50.0933C28.9825 49.3417 28.6665 48.3968 27.803 48.4091C27.6404 49.2297 28.1236 49.6576 28.5684 50.2451L27.6511 49.6331C27.5499 50.1991 27.9763 50.5841 28.1098 51.0872L27.3444 50.5519L27.6557 52.5367C29.7004 52.5107 31.0441 51.6716 29.4887 49.7052L28.8767 50.0933Z" fill="white"/>
<path d="M29.7939 61.28C29.0868 61.1665 28.4073 61.4349 27.734 61.4426C25.3963 61.4672 21.4313 61.4579 19.2164 61.0607C19.0982 61.0392 18.1457 60.7723 18.4602 60.5162C18.5169 60.4701 19.3345 60.7969 19.6075 60.8229C22.6093 61.1113 26.2921 60.6358 29.2648 60.9702C29.4948 60.9963 29.7372 61.0024 29.7955 61.28H29.7939Z" fill="white"/>
<path d="M25.6142 26.0652C27.2876 25.694 27.5438 27.2371 26.0943 27.4656C24.7583 27.6757 24.4315 26.3275 25.6142 26.0652ZM26.424 26.3413C26.0682 26.3213 25.628 26.329 25.3473 26.5729C24.6969 27.1389 26.7876 27.5147 26.424 26.3413Z" fill="white"/>
</g>
<defs>
<clipPath id="clip0_24_722">
<rect width="90" height="75" fill="white"/>
</clipPath>
</defs>
</svg>
